SplineFontDB: 3.0
FontName: Vazir-Light
FullName: Vazir Light
FamilyName: Vazir Light
Weight: Light
Copyright: Copyright (c) 2003 by Bitstream, Inc. All Rights Reserved.\nDejaVu changes are in public domain\nChanges by Saber Rastikerdar are in public domain.\nNon-Arabic(Latin) glyphs and data are imported from Roboto font under the Apache License, Version 2.0.
Version: 6.3.0
ItalicAngle: 0
UnderlinePosition: -500
UnderlineWidth: 100
Ascent: 1638
Descent: 410
InvalidEm: 0
LayerCount: 2
Layer: 0 1 "Back" 1
Layer: 1 1 "Fore" 0
XUID: [1021 502 1027637223 10733329]
UniqueID: 4029293
UseUniqueID: 1
FSType: 0
OS2Version: 1
OS2_WeightWidthSlopeOnly: 0
OS2_UseTypoMetrics: 1
CreationTime: 1431850356
ModificationTime: 1480931067
PfmFamily: 33
TTFWeight: 300
TTFWidth: 5
LineGap: 0
VLineGap: 0
Panose: 2 11 6 3 3 8 4 2 2 4
OS2TypoAscent: 2250
OS2TypoAOffset: 0
OS2TypoDescent: -1200
OS2TypoDOffset: 0
OS2TypoLinegap: 0
OS2WinAscent: 2250
OS2WinAOffset: 0
OS2WinDescent: 1200
OS2WinDOffset: 0
HheadAscent: 2250
HheadAOffset: 0
HheadDescent: -1200
HheadDOffset: 0
OS2SubXSize: 1331
OS2SubYSize: 1433
OS2SubXOff: 0
OS2SubYOff: 286
OS2SupXSize: 1331
OS2SupYSize: 1433
OS2SupXOff: 0
OS2SupYOff: 983
OS2StrikeYSize: 102
OS2StrikeYPos: 530
OS2Vendor: 'PfEd'
OS2CodePages: 00000041.20080000
OS2UnicodeRanges: 80002003.80000000.00000008.00000000
Lookup: 1 9 0 "'fina' Terminal Forms in Arabic lookup 9" { "'fina' Terminal Forms in Arabic lookup 9 subtable"  } ['fina' ('arab' <'KUR ' 'SND ' 'URD ' 'dflt' > ) ]
Lookup: 1 9 0 "'medi' Medial Forms in Arabic lookup 11" { "'medi' Medial Forms in Arabic lookup 11 subtable"  } ['medi' ('arab' <'KUR ' 'SND ' 'URD ' 'dflt' > ) ]
Lookup: 1 9 0 "'init' Initial Forms in Arabic lookup 13" { "'init' Initial Forms in Arabic lookup 13 subtable"  } ['init' ('arab' <'KUR ' 'SND ' 'URD ' 'dflt' > ) ]
Lookup: 4 1 1 "'rlig' Required Ligatures in Arabic lookup 14" { "'rlig' Required Ligatures in Arabic lookup 14 subtable"  } ['rlig' ('arab' <'KUR ' 'dflt' > ) ]

StartChar: exclam
Encoding: 33 33 1
Width: 602
VWidth: 2351
GlyphClass: 2
Flags: W
LayerCount: 2
Fore
SplineSet
182.827148438 134.745117188 m 0,0,1
 182.827148438 140.974787345 182.827148438 140.974787345 183.347157762 146.902720535 c 128,-1,2
 183.867167087 152.830653724 183.867167087 152.830653724 184.915204096 158.497935904 c 128,-1,3
 185.963241105 164.165218083 185.963241105 164.165218083 187.536383907 169.556513883 c 128,-1,4
 189.109526708 174.947809682 189.109526708 174.947809682 191.222963738 180.105127522 c 128,-1,5
 193.336400768 185.262445362 193.336400768 185.262445362 195.979562054 190.169465913 c 128,-1,6
 198.622723339 195.076486464 198.622723339 195.076486464 201.818445397 199.776202105 c 128,-1,7
 205.014167454 204.475917747 205.014167454 204.475917747 208.74423223 208.95102519 c 128,-1,8
 212.474297006 213.426132633 212.474297006 213.426132633 216.768711093 217.72054672 c 0,9,10
 250.520083916 251.471919544 250.520083916 251.471919544 300.872070312 252.788086784 c 0,11,12
 326.915463192 252.107329916 326.915463192 252.107329916 347.333372257 243.526012424 c 128,-1,13
 367.751281322 234.944694932 367.751281322 234.944694932 384.97556463 217.720411624 c 0,14,15
 418.91796875 183.778872146 418.91796875 183.778872146 418.91796875 134.745117188 c 128,-1,16
 418.91796875 85.7103856647 418.91796875 85.7103856647 384.975429532 51.7687110929 c 0,17,18
 367.851241928 34.6445234884 367.851241928 34.6445234884 347.027861682 26.0042002402 c 128,-1,19
 326.204481436 17.363876992 326.204481436 17.363876992 300.872070312 16.7021407899 c 0,20,21
 274.828473657 17.3824546635 274.828473657 17.3824546635 254.410665658 25.9635095951 c 128,-1,22
 233.992857659 34.5445645266 233.992857659 34.5445645266 216.768711093 51.7687110927 c 0,23,24
 182.827148438 85.710273748 182.827148438 85.710273748 182.827148438 134.745117188 c 0,0,1
218.493206472 1432.32128906 m 1,25,-1
 388.848114373 1432.32128906 l 1,26,-1
 368.317122865 456.38671875 l 1,27,-1
 240.051221274 456.38671875 l 1,28,-1
 218.493206472 1432.32128906 l 1,25,-1
EndSplineSet
EndChar

StartChar: period
Encoding: 46 46 2
Width: 602
VWidth: 2351
GlyphClass: 2
Flags: W
LayerCount: 2
Fore
SplineSet
182.827148438 134.745117188 m 0,0,1
 182.827148438 140.974787345 182.827148438 140.974787345 183.347157762 146.902720535 c 128,-1,2
 183.867167087 152.830653724 183.867167087 152.830653724 184.915204096 158.497935904 c 128,-1,3
 185.963241105 164.165218083 185.963241105 164.165218083 187.536383907 169.556513883 c 128,-1,4
 189.109526708 174.947809682 189.109526708 174.947809682 191.222963738 180.105127522 c 128,-1,5
 193.336400768 185.262445362 193.336400768 185.262445362 195.979562054 190.169465913 c 128,-1,6
 198.622723339 195.076486464 198.622723339 195.076486464 201.818445397 199.776202105 c 128,-1,7
 205.014167454 204.475917747 205.014167454 204.475917747 208.74423223 208.95102519 c 128,-1,8
 212.474297006 213.426132633 212.474297006 213.426132633 216.768711093 217.72054672 c 0,9,10
 250.520083916 251.471919544 250.520083916 251.471919544 300.872070312 252.788086784 c 0,11,12
 326.915463192 252.107329916 326.915463192 252.107329916 347.333372257 243.526012424 c 128,-1,13
 367.751281322 234.944694932 367.751281322 234.944694932 384.97556463 217.720411624 c 0,14,15
 418.91796875 183.778872146 418.91796875 183.778872146 418.91796875 134.745117188 c 128,-1,16
 418.91796875 85.7103856647 418.91796875 85.7103856647 384.975429532 51.7687110929 c 0,17,18
 367.851241928 34.6445234884 367.851241928 34.6445234884 347.027861682 26.0042002402 c 128,-1,19
 326.204481436 17.363876992 326.204481436 17.363876992 300.872070312 16.7021407899 c 0,20,21
 274.828473657 17.3824546635 274.828473657 17.3824546635 254.410665658 25.9635095951 c 128,-1,22
 233.992857659 34.5445645266 233.992857659 34.5445645266 216.768711093 51.7687110927 c 0,23,24
 182.827148438 85.710273748 182.827148438 85.710273748 182.827148438 134.745117188 c 0,0,1
EndSplineSet
EndChar

StartChar: colon
Encoding: 58 58 3
Width: 601
VWidth: 2351
GlyphClass: 2
Flags: W
LayerCount: 2
Fore
SplineSet
182.827148438 874.745117188 m 0,0,1
 182.827148438 923.778984065 182.827148438 923.778984065 216.768711093 957.720546721 c 128,-1,2
 250.520083916 991.471919548 250.520083916 991.471919548 300.872070312 992.788086782 c 0,3,4
 326.915463194 992.107329917 326.915463194 992.107329917 347.333372257 983.526012426 c 128,-1,5
 367.751281321 974.944694935 367.751281321 974.944694935 384.97556463 957.720411624 c 0,6,7
 418.91796875 923.778872146 418.91796875 923.778872146 418.91796875 874.745117188 c 0,8,9
 418.91796875 862.284185039 418.91796875 862.284185039 416.83359977 850.993039507 c 128,-1,10
 414.74923079 839.701893974 414.74923079 839.701893974 410.519202352 829.383439991 c 128,-1,11
 406.289173913 819.064986007 406.289173913 819.064986007 399.929916413 809.714353764 c 128,-1,12
 393.570658912 800.36372152 393.570658912 800.36372152 384.975429532 791.768711093 c 0,13,14
 351.224162461 758.017444022 351.224162461 758.017444022 300.872070312 756.702140789 c 0,15,16
 250.519978163 758.017444022 250.519978163 758.017444022 216.768711093 791.768711093 c 0,17,18
 199.596642285 808.940779901 199.596642285 808.940779901 191.211895361 829.410032887 c 128,-1,19
 182.827148438 849.879285874 182.827148438 849.879285874 182.827148438 874.745117188 c 0,0,1
182.827148438 134.745117188 m 0,20,21
 182.827148438 140.974787345 182.827148438 140.974787345 183.347157762 146.902720535 c 128,-1,22
 183.867167087 152.830653724 183.867167087 152.830653724 184.915204096 158.497935904 c 128,-1,23
 185.963241105 164.165218083 185.963241105 164.165218083 187.536383907 169.556513883 c 128,-1,24
 189.109526708 174.947809682 189.109526708 174.947809682 191.222963738 180.105127522 c 128,-1,25
 193.336400768 185.262445362 193.336400768 185.262445362 195.979562054 190.169465913 c 128,-1,26
 198.622723339 195.076486464 198.622723339 195.076486464 201.818445397 199.776202105 c 128,-1,27
 205.014167454 204.475917747 205.014167454 204.475917747 208.74423223 208.95102519 c 128,-1,28
 212.474297006 213.426132633 212.474297006 213.426132633 216.768711093 217.72054672 c 0,29,30
 250.520083916 251.471919544 250.520083916 251.471919544 300.872070312 252.788086784 c 0,31,32
 326.915463192 252.107329916 326.915463192 252.107329916 347.333372257 243.526012424 c 128,-1,33
 367.751281322 234.944694932 367.751281322 234.944694932 384.97556463 217.720411624 c 0,34,35
 418.91796875 183.778872146 418.91796875 183.778872146 418.91796875 134.745117188 c 128,-1,36
 418.91796875 85.7103856647 418.91796875 85.7103856647 384.975429532 51.7687110929 c 0,37,38
 367.851241928 34.6445234884 367.851241928 34.6445234884 347.027861682 26.0042002402 c 128,-1,39
 326.204481436 17.363876992 326.204481436 17.363876992 300.872070312 16.7021407899 c 0,40,41
 274.828473657 17.3824546635 274.828473657 17.3824546635 254.410665658 25.9635095951 c 128,-1,42
 233.992857659 34.5445645266 233.992857659 34.5445645266 216.768711093 51.7687110927 c 0,43,44
 182.827148438 85.710273748 182.827148438 85.710273748 182.827148438 134.745117188 c 0,20,21
EndSplineSet
EndChar

StartChar: afii57388
Encoding: 1548 1548 5
Width: 682
VWidth: 2358
GlyphClass: 2
Flags: W
LayerCount: 2
Fore
SplineSet
348.001161232 15.0178113421 m 0,0,1
 317.383620243 15.515849287 317.383620243 15.515849287 294.267069508 22.2182438003 c 128,-1,2
 271.150518773 28.9206383136 271.150518773 28.9206383136 254.838010783 42.1994070736 c 128,-1,3
 238.525502792 55.4781758337 238.525502792 55.4781758337 228.806937458 75.0934403965 c 128,-1,4
 219.088372123 94.7087049594 219.088372123 94.7087049594 215.258558626 121.441645378 c 0,5,6
 213.023130854 137.04556223 213.023130854 137.04556223 212.509723446 154.049298513 c 128,-1,7
 211.996316038 171.053034797 211.996316038 171.053034797 213.214430884 189.608591981 c 128,-1,8
 214.43254573 208.164149165 214.43254573 208.164149165 217.448582573 228.323199461 c 128,-1,9
 220.464619415 248.482249756 220.464619415 248.482249756 225.27106282 270.123582805 c 0,10,11
 267.353261411 481.001969905 267.353261411 481.001969905 442.063115303 615.342162102 c 1,12,-1
 474.230515586 595.333074662 l 1,13,14
 333.744923412 464.877723492 333.744923412 464.877723492 320.284615419 272.463758184 c 2,15,-1
 319.144235165 256.162118826 l 1,16,-1
 335.483696766 256.418843331 l 2,17,18
 428.899334408 257.886583455 428.899334408 257.886583455 460.616821 218.39452486 c 0,19,20
 493.507607694 178.241795232 493.507607694 178.241795232 487.037667199 106.811854965 c 0,21,22
 483.82981426 75.4101962483 483.82981426 75.4101962483 468.582047568 55.1399134579 c 128,-1,23
 453.334280876 34.8696306674 453.334280876 34.8696306674 423.405038001 24.6231190067 c 128,-1,24
 393.475795125 14.376607346 393.475795125 14.376607346 348.001161232 15.0178113421 c 0,0,1
EndSplineSet
EndChar

StartChar: uni0615
Encoding: 1557 1557 6
Width: -28
VWidth: 2417
GlyphClass: 4
Flags: W
AnchorPoint: "Anchor-10" 585.395 1450.31 mark 0
AnchorPoint: "Anchor-9" 585.395 1450.31 mark 0
AnchorPoint: "Anchor-1" 597.995 2182.63 basemark 0
AnchorPoint: "Anchor-1" 585.395 1450.31 mark 0
LayerCount: 2
Fore
SplineSet
494.01171875 1603.07714844 m 1,0,-1
 602.741210938 1603.07714844 l 2,1,2
 693.794921875 1603.07714844 693.794921875 1603.07714844 751.09765625 1637.35009766 c 128,-1,3
 808.400390625 1671.62304688 808.400390625 1671.62304688 808.400390625 1711.10742188 c 128,-1,4
 808.400390625 1750.59179688 808.400390625 1750.59179688 782.1640625 1764.80273438 c 0,5,6
 690.48885131 1815.96866928 690.48885131 1815.96866928 494.01171875 1603.07714844 c 1,0,-1
887.03515625 1720.98046875 m 0,7,8
 887.34765625 1524.47753906 887.34765625 1524.47753906 630.028320312 1524.47753906 c 2,9,-1
 310.141601562 1524.47753906 l 1,10,-1
 310.141601562 1603.07714844 l 1,11,-1
 406.241210938 1603.07714844 l 1,12,-1
 406.241210938 2076.43164062 l 1,13,-1
 486.022460938 2075.43261719 l 1,14,-1
 485.189453125 1677.9453125 l 1,15,16
 670.331861654 1887.91070866 670.331861654 1887.91070866 803.60546875 1839.92382812 c 0,17,18
 887.344726562 1808.90917969 887.344726562 1808.90917969 887.03515625 1720.98046875 c 0,7,8
EndSplineSet
EndChar

StartChar: uni061B
Encoding: 1563 1563 7
Width: 682
VWidth: 2358
GlyphClass: 2
Flags: W
LayerCount: 2
Fore
SplineSet
232.827148438 134.745117188 m 0,0,1
 232.827148438 159.610758071 232.827148438 159.610758071 241.212176172 180.079898802 c 128,-1,2
 249.597203905 200.549039532 249.597203905 200.549039532 266.768711093 217.72054672 c 0,3,4
 300.520083916 251.471919544 300.520083916 251.471919544 350.872070312 252.788086784 c 0,5,6
 376.915463192 252.107329916 376.915463192 252.107329916 397.333372257 243.526012424 c 128,-1,7
 417.751281322 234.944694932 417.751281322 234.944694932 434.97556463 217.720411624 c 0,8,9
 468.91796875 183.778872146 468.91796875 183.778872146 468.91796875 134.745117188 c 128,-1,10
 468.91796875 85.7103856647 468.91796875 85.7103856647 434.975429532 51.7687110929 c 128,-1,11
 401.224162461 18.0174440219 401.224162461 18.0174440219 350.872070312 16.7021407899 c 0,12,13
 324.828473657 17.3824546635 324.828473657 17.3824546635 304.410665658 25.9635095951 c 128,-1,14
 283.992857659 34.5445645266 283.992857659 34.5445645266 266.768711093 51.7687110927 c 0,15,16
 232.827148438 85.710273748 232.827148438 85.710273748 232.827148438 134.745117188 c 0,0,1
347.992748003 455.017929971 m 0,17,18
 307.16908563 455.636174693 307.16908563 455.636174693 279.443146975 467.487727221 c 128,-1,19
 251.71720832 479.339279748 251.71720832 479.339279748 236.014869273 502.520402031 c 128,-1,20
 220.312530226 525.701524314 220.312530226 525.701524314 215.272657448 561.3407942 c 0,21,22
 207.20454147 620.517595618 207.20454147 620.517595618 225.290590446 710.222080662 c 0,23,24
 268.476088788 922.103805318 268.476088788 922.103805318 442.055141447 1055.34712208 c 1,25,-1
 474.230515586 1035.33307466 l 1,26,27
 333.744923412 904.877723492 333.744923412 904.877723492 320.284615419 712.463758184 c 2,28,-1
 319.144235165 696.162118826 l 1,29,-1
 335.483696766 696.418843331 l 2,30,31
 428.899334408 697.886583455 428.899334408 697.886583455 460.616821 658.39452486 c 0,32,33
 493.507607694 618.241795232 493.507607694 618.241795232 487.037667199 546.811854965 c 0,34,35
 482.212839822 499.581640384 482.212839822 499.581640384 448.920364954 476.822948756 c 128,-1,36
 415.627890086 454.064257128 415.627890086 454.064257128 347.992748003 455.017929971 c 0,17,18
EndSplineSet
EndChar

StartChar: uni061F
Encoding: 1567 1567 8
Width: 989
VWidth: 2351
GlyphClass: 2
Flags: W
LayerCount: 2
Fore
SplineSet
469.827148438 134.745117188 m 0
 469.827148438 159.610758071 469.827148438 159.610758071 478.212176172 180.079898802 c 0
 486.597203905 200.549039532 486.597203905 200.549039532 503.768711093 217.72054672 c 0
 537.520083916 251.471919544 537.520083916 251.471919544 587.872070312 252.788086784 c 0
 638.22405671 251.471919544 638.22405671 251.471919544 671.97556463 217.720411624 c 0
 683.436358927 206.259909277 683.436358927 206.259909277 690.949628077 193.400685448 c 0
 698.462897227 180.541461619 698.462897227 180.541461619 702.190432989 165.947020075 c 0
 705.91796875 151.352578531 705.91796875 151.352578531 705.91796875 134.745117188 c 0
 705.91796875 85.7103856647 705.91796875 85.7103856647 671.975429532 51.7687110929 c 0
 654.851241928 34.6445234884 654.851241928 34.6445234884 634.027861682 26.0042002402 c 0
 613.204481436 17.363876992 613.204481436 17.363876992 587.872070312 16.7021407899 c 0
 581.311134933 16.8735263102 581.311134933 16.8735263102 575.156858101 17.5343627926 c 0
 569.002581269 18.195199275 569.002581269 18.195199275 563.187459941 19.3610789182 c 0
 557.372338614 20.5269585614 557.372338614 20.5269585614 551.911287333 22.1844119541 c 0
 546.450236052 23.8418653469 546.450236052 23.8418653469 541.260585685 26.0275645649 c 0
 536.070935319 28.2132637829 536.070935319 28.2132637829 531.183777572 30.8912542128 c 0
 526.296619824 33.5692446427 526.296619824 33.5692446427 521.613108402 36.7986835624 c 0
 516.92959698 40.0281224821 516.92959698 40.0281224821 512.497000748 43.7505700759 c 0
 508.064404516 47.4730176697 508.064404516 47.4730176697 503.768711093 51.7687110927 c 0
 486.596642285 68.9407799009 486.596642285 68.9407799009 478.211895361 89.4100328876 c 0
 469.827148438 109.879285874 469.827148438 109.879285874 469.827148438 134.745117188 c 0
509.922851562 453.849609375 m 1
 509.922844326 457.441321203 l 2
 510.006481731 542.591609599 510.006481731 542.591609599 387.641186329 662.175107328 c 2
 292.134246394 755.510543483 l 2
 132.040890661 910.321558859 132.040890661 910.321558859 133.081808597 1072.44170906 c 0
 133.524946201 1153.77160211 133.524946201 1153.77160211 163.132686781 1220.42698187 c 0
 192.740427361 1287.08236163 192.740427361 1287.08236163 252.034470974 1340.35058781 c 0
 352.763743255 1431.00693286 352.763743255 1431.00693286 531.984605585 1431.22168759 c 0
 735.289241592 1431.01303709 735.289241592 1431.01303709 877.743239643 1267.45927844 c 1
 800.556308268 1165.97290449 l 1
 678.862214502 1285.98226451 678.862214502 1285.98226451 539.752900218 1283.53019115 c 0
 507.189955092 1282.99369857 507.189955092 1282.99369857 477.247790151 1275.85077001 c 0
 447.30562521 1268.70784146 447.30562521 1268.70784146 420.133889941 1254.96588347 c 0
 392.962154672 1241.22392548 392.962154672 1241.22392548 368.856052685 1220.98887637 c 0
 294.997262176 1158.99062156 294.997262176 1158.99062156 295.041016782 1047.41116619 c 0
 294.997425991 936.450807616 294.997425991 936.450807616 419.668763676 820.958188366 c 1
 517.097064966 724.612987532 l 2
 667.924804688 580.652898205 667.924804688 580.652898205 667.924804688 459.58203125 c 2
 667.924804688 453.849609375 l 1
 509.922851562 453.849609375 l 1
EndSplineSet
EndChar

StartChar: uni0621
Encoding: 1569 1569 9
Width: 888
VWidth: 2510
GlyphClass: 2
Flags: W
AnchorPoint: "Anchor-7" 333.895 -286.273 basechar 0
AnchorPoint: "Anchor-10" 410.147 1169.28 basechar 0
LayerCount: 2
Fore
SplineSet
151.95703125 29.8896563797 m 1,0,-1
 151.95703125 182.270007617 l 1,1,2
 256.978009282 249.0902642 256.978009282 249.0902642 332.474124897 272.682800329 c 2,3,-1
 367.099919067 283.503361007 l 1,4,-1
 334.943538489 300.296137531 l 2,5,6
 162.800959661 390.192817586 162.800959661 390.192817586 159.931516344 520.337469155 c 0,7,8
 159.3082987 548.031551318 159.3082987 548.031551318 162.096082212 573.477027962 c 128,-1,9
 164.883865724 598.922504606 164.883865724 598.922504606 171.001898348 621.929584459 c 128,-1,10
 177.119930973 644.936664311 177.119930973 644.936664311 186.583087375 665.812009884 c 0,11,12
 258.761524109 825.194360996 258.761524109 825.194360996 442.299606243 828.906443503 c 0,13,14
 478.320303917 829.626055455 478.320303917 829.626055455 511.593447299 824.838101527 c 128,-1,15
 544.866590681 820.050147598 544.866590681 820.050147598 575.145804308 809.83400759 c 128,-1,16
 605.425017935 799.617867582 605.425017935 799.617867582 632.800037261 784.15900754 c 128,-1,17
 660.175056588 768.700147498 660.175056588 768.700147498 684.803414671 747.949374065 c 1,18,-1
 641.94247816 651.115406392 l 1,19,20
 559.862281593 694.973538014 559.862281593 694.973538014 480.947017064 694.300727147 c 0,21,22
 440.800191966 694.192898744 440.800191966 694.192898744 408.74478516 686.489441678 c 128,-1,23
 376.689378354 678.785984612 376.689378354 678.785984612 352.737028748 662.976505122 c 0,24,25
 321.117748435 642.106554081 321.117748435 642.106554081 304.020902346 609.515213042 c 128,-1,26
 286.924056258 576.923872003 286.924056258 576.923872003 284.71830583 534.386003059 c 0,27,28
 281.97052488 482.562054575 281.97052488 482.562054575 331.711611644 437.311521923 c 128,-1,29
 381.452698407 392.060989271 381.452698407 392.060989271 479.893848568 350.332134172 c 2,30,-1
 484.177219445 348.516428419 l 1,31,-1
 718.424577967 396.136719422 l 1,32,-1
 739.942490034 247.166558957 l 1,33,34
 489.793328596 216.510968198 489.793328596 216.510968198 151.95703125 29.8896563797 c 1,0,-1
EndSplineSet
EndChar

StartChar: uni0627
Encoding: 1575 1575 15
Width: 494
VWidth: 2510
GlyphClass: 2
Flags: W
AnchorPoint: "Anchor-10" 254.259 1638.01 basechar 0
AnchorPoint: "Anchor-7" 257.719 -282.178 basechar 0
LayerCount: 2
Fore
SplineSet
193.936523438 1441.38382933 m 1,0,-1
 328.338867188 1441.39160156 l 5,1,-1
 328.338867188 15.6454675419 l 1,2,-1
 193.936523438 15.6376953125 l 1,3,-1
 193.936523438 1441.38382933 l 1,0,-1
EndSplineSet
Substitution2: "'fina' Terminal Forms in Arabic lookup 9 subtable" uniFE8E
EndChar

StartChar: uni062D
Encoding: 1581 1581 21
Width: 1351
VWidth: 2510
GlyphClass: 2
Flags: W
AnchorPoint: "Anchor-10" 501.733 1318.7 basechar 0
AnchorPoint: "Anchor-7" 432.936 -762.31 basechar 0
LayerCount: 2
Fore
SplineSet
846.002522884 -646.881835289 m 0,0,1
 504.099425255 -646.940217743 504.099425255 -646.940217743 337.036617715 -520.303136286 c 128,-1,2
 169.973810175 -393.666054828 169.973810175 -393.666054828 170.898316324 -138.892324386 c 0,3,4
 171.925440147 116.638136703 171.925440147 116.638136703 341.842314118 281.760607483 c 128,-1,5
 511.759188089 446.883078262 511.759188089 446.883078262 855.128126642 522.830541443 c 2,6,-1
 896.278688688 531.932357143 l 1,7,8
 832.741472425 563.902900239 832.741472425 563.902900239 703.646062566 606.262331599 c 4,9,10
 569.271785149 650.035770454 569.271785149 650.035770454 500.003601718 648.995941988 c 0,11,12
 378.192735949 646.95507109 378.192735949 646.95507109 226.591169714 483.256524304 c 1,13,-1
 119.983284985 560.754438206 l 1,14,-1
 132.246276985 577.242930204 l 2,15,16
 296.487468246 797.936270005 296.487468246 797.936270005 511.813894661 796.118783338 c 0,17,18
 632.023044942 795.026432544 632.023044942 795.026432544 839.638146935 711.272645871 c 0,19,20
 1087.03492834 612.233896316 1087.03492834 612.233896316 1228.85768404 583.096876953 c 1,21,-1
 1222.77681533 427.576382635 l 1,22,23
 306.005501416 359.308711983 306.005501416 359.308711983 305.740267583 -139.181327527 c 0,24,25
 305.354262796 -322.625264789 305.354262796 -322.625264789 443.34820529 -414.086312515 c 128,-1,26
 581.342147785 -505.547360242 581.342147785 -505.547360242 850.005973149 -505.082030061 c 0,27,28
 1048.10131621 -505.003146524 1048.10131621 -505.003146524 1212.16786 -452.432204708 c 1,29,-1
 1240.03201625 -590.625129963 l 1,30,31
 1154.11789727 -618.822954194 1154.11789727 -618.822954194 1055.74846001 -632.880636586 c 128,-1,32
 957.379022751 -646.938318978 957.379022751 -646.938318978 846.002522884 -646.881835289 c 0,0,1
EndSplineSet
Substitution2: "'fina' Terminal Forms in Arabic lookup 9 subtable" uniFEA2
Substitution2: "'medi' Medial Forms in Arabic lookup 11 subtable" uniFEA4
Substitution2: "'init' Initial Forms in Arabic lookup 13 subtable" uniFEA3
EndChar

StartChar: uni062F
Encoding: 1583 1583 23
Width: 1022
VWidth: 2510
GlyphClass: 2
Flags: W
AnchorPoint: "Anchor-10" 317.388 1279.13 basechar 0
AnchorPoint: "Anchor-7" 369.188 -295.499 basechar 0
LayerCount: 2
Fore
SplineSet
119.544921875 191.9755819 m 1,0,1
 254.894671386 171.973717457 254.894671386 171.973717457 390.888747807 171.519545373 c 0,2,3
 756.010962393 172.020584685 756.010962393 172.020584685 755.890600998 335.833517545 c 0,4,5
 756.008271125 401.610068085 756.008271125 401.610068085 696.860117803 488.470614154 c 0,6,7
 642.741308672 569.540396068 642.741308672 569.540396068 558.263980951 651.328166721 c 128,-1,8
 473.78665323 733.115937374 473.78665323 733.115937374 359.617703145 815.358706375 c 1,9,-1
 445.224740355 941.22236014 l 1,10,11
 897.082161034 607.411158268 897.082161034 607.411158268 899.000735168 337.851492427 c 0,12,13
 899.954560094 241.515174853 899.954560094 241.515174853 850.655746848 168.362736563 c 0,14,15
 800.5193977 93.7074316486 800.5193977 93.7074316486 689.098020589 55.3331314073 c 128,-1,16
 577.676643479 16.958831166 577.676643479 16.958831166 403.923462173 16.9189439171 c 0,17,18
 227.917458746 16.9948610093 227.917458746 16.9948610093 119.544921875 35.9363168516 c 1,19,-1
 119.544921875 191.9755819 l 1,0,1
EndSplineSet
Substitution2: "'fina' Terminal Forms in Arabic lookup 9 subtable" uniFEAA
EndChar

StartChar: uni0631
Encoding: 1585 1585 25
Width: 825
VWidth: 2510
GlyphClass: 2
Flags: W
AnchorPoint: "Anchor-10" 471.802 1061.76 basechar 0
AnchorPoint: "Anchor-7" 275.768 -740.082 basechar 0
LayerCount: 2
Fore
SplineSet
482.051987779 459.454094121 m 1,0,-1
 620.765741853 525.919078575 l 1,1,2
 668.082550938 438.326975835 668.082550938 438.326975835 691.11894782 338.137322248 c 128,-1,3
 714.155344703 237.94766866 714.155344703 237.94766866 713.386105855 123.104450396 c 0,4,5
 713.234839638 101.381811459 713.234839638 101.381811459 711.9660625 80.4201150749 c 128,-1,6
 710.697285363 59.4584186905 710.697285363 59.4584186905 708.315095898 39.2751232428 c 128,-1,7
 705.932906434 19.0918277952 705.932906434 19.0918277952 702.433953885 -0.345212248171 c 128,-1,8
 698.935001335 -19.7822522915 698.935001335 -19.7822522915 694.328700182 -38.4521220384 c 128,-1,9
 689.722399029 -57.1219917854 689.722399029 -57.1219917854 683.999728234 -75.0605237101 c 128,-1,10
 678.277057438 -92.9990556349 678.277057438 -92.9990556349 671.453101762 -110.181647904 c 128,-1,11
 664.629146085 -127.364240172 664.629146085 -127.364240172 656.68921421 -143.830412201 c 128,-1,12
 648.749282334 -160.296584229 648.749282334 -160.296584229 639.714129299 -176.018047242 c 128,-1,13
 630.678976265 -191.739510255 630.678976265 -191.739510255 620.528594867 -206.759240176 c 0,14,15
 594.608036212 -245.545658946 594.608036212 -245.545658946 561.460367151 -279.010179045 c 128,-1,16
 528.312698091 -312.474699143 528.312698091 -312.474699143 487.817120088 -340.712387223 c 128,-1,17
 447.321542084 -368.950075304 447.321542084 -368.950075304 399.437549923 -391.832674666 c 128,-1,18
 351.553557761 -414.715274029 351.553557761 -414.715274029 296.30915455 -432.266247519 c 128,-1,19
 241.064751338 -449.817221009 241.064751338 -449.817221009 178.260710107 -461.984689323 c 128,-1,20
 115.456668875 -474.152157637 115.456668875 -474.152157637 45.269794377 -480.887979811 c 1,21,-1
 20.1233616502 -341.350737209 l 1,22,23
 376.536054121 -305.682528549 376.536054121 -305.682528549 510.323821704 -113.551223223 c 0,24,25
 573.329090821 -22.7495118486 573.329090821 -22.7495118486 572.860542786 108.053730896 c 0,26,27
 572.541167939 197.212712632 572.541167939 197.212712632 542.659438063 305.012444271 c 0,28,29
 517.873928916 394.29330194 517.873928916 394.29330194 482.051987779 459.454094121 c 1,0,-1
EndSplineSet
PairPos2: "'kern' Horizontal Kerning lookup 15-2" uniFBFE dx=50 dy=0 dh=50 dv=0 dx=0 dy=0 dh=0 dv=0
PairPos2: "'kern' Horizontal Kerning lookup 15-1" uniFEE7 dx=-150 dy=0 dh=-150 dv=0 dx=0 dy=0 dh=0 dv=0
PairPos2: "'kern' Horizontal Kerning lookup 15-2" uniFB90 dx=-190 dy=0 dh=-190 dv=0 dx=0 dy=0 dh=0 dv=0
PairPos2: "'kern' Horizontal Kerning lookup 15-2" uniFB8E dx=-190 dy=0 dh=-190 dv=0 dx=0 dy=0 dh=0 dv=0
PairPos2: "'kern' Horizontal Kerning lookup 15-2" uni06A9 dx=-190 dy=0 dh=-190 dv=0 dx=0 dy=0 dh=0 dv=0
PairPos2: "'kern' Horizontal Kerning lookup 15-2" uni064A dx=-50 dy=0 dh=-50 dv=0 dx=0 dy=0 dh=0 dv=0
PairPos2: "'kern' Horizontal Kerning lookup 15-2" afii57414 dx=-50 dy=0 dh=-50 dv=0 dx=0 dy=0 dh=0 dv=0
PairPos2: "'kern' Horizontal Kerning lookup 15-2" uni0649 dx=-50 dy=0 dh=-50 dv=0 dx=0 dy=0 dh=0 dv=0
PairPos2: "'kern' Horizontal Kerning lookup 15-2" uniFEEB dx=-150 dy=0 dh=-150 dv=0 dx=0 dy=0 dh=0 dv=0
PairPos2: "'kern' Horizontal Kerning lookup 15-2" uni0647 dx=-150 dy=0 dh=-150 dv=0 dx=0 dy=0 dh=0 dv=0
PairPos2: "'kern' Horizontal Kerning lookup 15-2" uni0646 dx=-50 dy=0 dh=-50 dv=0 dx=0 dy=0 dh=0 dv=0
PairPos2: "'kern' Horizontal Kerning lookup 15-2" uniFEE3 dx=-150 dy=0 dh=-150 dv=0 dx=0 dy=0 dh=0 dv=0
PairPos2: "'kern' Horizontal Kerning lookup 15-2" uni0645 dx=-150 dy=0 dh=-150 dv=0 dx=0 dy=0 dh=0 dv=0
PairPos2: "'kern' Horizontal Kerning lookup 15-2" uniFEFB dx=-120 dy=0 dh=-120 dv=0 dx=0 dy=0 dh=0 dv=0
PairPos2: "'kern' Horizontal Kerning lookup 15-2" uniFEDF dx=-120 dy=0 dh=-120 dv=0 dx=0 dy=0 dh=0 dv=0
PairPos2: "'kern' Horizontal Kerning lookup 15-2" uni0644 dx=-50 dy=0 dh=-50 dv=0 dx=0 dy=0 dh=0 dv=0
PairPos2: "'kern' Horizontal Kerning lookup 15-2" uniFEDB dx=-190 dy=0 dh=-190 dv=0 dx=0 dy=0 dh=0 dv=0
PairPos2: "'kern' Horizontal Kerning lookup 15-2" uni0643 dx=-120 dy=0 dh=-120 dv=0 dx=0 dy=0 dh=0 dv=0
PairPos2: "'kern' Horizontal Kerning lookup 15-2" uniFED7 dx=-150 dy=0 dh=-150 dv=0 dx=0 dy=0 dh=0 dv=0
PairPos2: "'kern' Horizontal Kerning lookup 15-2" uni0642 dx=-50 dy=0 dh=-50 dv=0 dx=0 dy=0 dh=0 dv=0
PairPos2: "'kern' Horizontal Kerning lookup 15-2" uniFED3 dx=-150 dy=0 dh=-150 dv=0 dx=0 dy=0 dh=0 dv=0
PairPos2: "'kern' Horizontal Kerning lookup 15-2" uni0641 dx=-150 dy=0 dh=-150 dv=0 dx=0 dy=0 dh=0 dv=0
PairPos2: "'kern' Horizontal Kerning lookup 15-2" uniFECF dx=-150 dy=0 dh=-150 dv=0 dx=0 dy=0 dh=0 dv=0
PairPos2: "'kern' Horizontal Kerning lookup 15-2" uniFECB dx=-150 dy=0 dh=-150 dv=0 dx=0 dy=0 dh=0 dv=0
PairPos2: "'kern' Horizontal Kerning lookup 15-2" uniFEC7 dx=-150 dy=0 dh=-150 dv=0 dx=0 dy=0 dh=0 dv=0
PairPos2: "'kern' Horizontal Kerning lookup 15-2" uni0638 dx=-150 dy=0 dh=-150 dv=0 dx=0 dy=0 dh=0 dv=0
PairPos2: "'kern' Horizontal Kerning lookup 15-2" uniFEC3 dx=-150 dy=0 dh=-150 dv=0 dx=0 dy=0 dh=0 dv=0
PairPos2: "'kern' Horizontal Kerning lookup 15-2" uni0637 dx=-150 dy=0 dh=-150 dv=0 dx=0 dy=0 dh=0 dv=0
PairPos2: "'kern' Horizontal Kerning lookup 15-2" uniFEBF dx=-150 dy=0 dh=-150 dv=0 dx=0 dy=0 dh=0 dv=0
PairPos2: "'kern' Horizontal Kerning lookup 15-2" uni0636 dx=-150 dy=0 dh=-150 dv=0 dx=0 dy=0 dh=0 dv=0
PairPos2: "'kern' Horizontal Kerning lookup 15-2" uniFEBB dx=-150 dy=0 dh=-150 dv=0 dx=0 dy=0 dh=0 dv=0
PairPos2: "'kern' Horizontal Kerning lookup 15-2" uni0635 dx=-150 dy=0 dh=-150 dv=0 dx=0 dy=0 dh=0 dv=0
PairPos2: "'kern' Horizontal Kerning lookup 15-2" uniFEB7 dx=-150 dy=0 dh=-150 dv=0 dx=0 dy=0 dh=0 dv=0
PairPos2: "'kern' Horizontal Kerning lookup 15-2" uni0634 dx=-150 dy=0 dh=-150 dv=0 dx=0 dy=0 dh=0 dv=0
PairPos2: "'kern' Horizontal Kerning lookup 15-2" uniFEB3 dx=-150 dy=0 dh=-150 dv=0 dx=0 dy=0 dh=0 dv=0
PairPos2: "'kern' Horizontal Kerning lookup 15-2" uni0633 dx=-150 dy=0 dh=-150 dv=0 dx=0 dy=0 dh=0 dv=0
PairPos2: "'kern' Horizontal Kerning lookup 15-2" uni0630 dx=-150 dy=0 dh=-150 dv=0 dx=0 dy=0 dh=0 dv=0
PairPos2: "'kern' Horizontal Kerning lookup 15-2" uni062F dx=-150 dy=0 dh=-150 dv=0 dx=0 dy=0 dh=0 dv=0
PairPos2: "'kern' Horizontal Kerning lookup 15-2" uniFEA7 dx=-150 dy=0 dh=-150 dv=0 dx=0 dy=0 dh=0 dv=0
PairPos2: "'kern' Horizontal Kerning lookup 15-2" uniFEA3 dx=-150 dy=0 dh=-150 dv=0 dx=0 dy=0 dh=0 dv=0
PairPos2: "'kern' Horizontal Kerning lookup 15-2" uniFE9F dx=-150 dy=0 dh=-150 dv=0 dx=0 dy=0 dh=0 dv=0
PairPos2: "'kern' Horizontal Kerning lookup 15-2" uniFE9B dx=-150 dy=0 dh=-150 dv=0 dx=0 dy=0 dh=0 dv=0
PairPos2: "'kern' Horizontal Kerning lookup 15-2" uni062B dx=-150 dy=0 dh=-150 dv=0 dx=0 dy=0 dh=0 dv=0
PairPos2: "'kern' Horizontal Kerning lookup 15-2" uniFE97 dx=-150 dy=0 dh=-150 dv=0 dx=0 dy=0 dh=0 dv=0
PairPos2: "'kern' Horizontal Kerning lookup 15-2" uni062A dx=-150 dy=0 dh=-150 dv=0 dx=0 dy=0 dh=0 dv=0
PairPos2: "'kern' Horizontal Kerning lookup 15-2" uni0629 dx=-150 dy=0 dh=-150 dv=0 dx=0 dy=0 dh=0 dv=0
PairPos2: "'kern' Horizontal Kerning lookup 15-2" uniFE91 dx=-50 dy=0 dh=-50 dv=0 dx=0 dy=0 dh=0 dv=0
PairPos2: "'kern' Horizontal Kerning lookup 15-2" uni0628 dx=-150 dy=0 dh=-150 dv=0 dx=0 dy=0 dh=0 dv=0
PairPos2: "'kern' Horizontal Kerning lookup 15-2" uni0627 dx=-120 dy=0 dh=-120 dv=0 dx=0 dy=0 dh=0 dv=0
PairPos2: "'kern' Horizontal Kerning lookup 15-2" uni0623 dx=-120 dy=0 dh=-120 dv=0 dx=0 dy=0 dh=0 dv=0
PairPos2: "'kern' Horizontal Kerning lookup 15-2" uni0622 dx=-120 dy=0 dh=-120 dv=0 dx=0 dy=0 dh=0 dv=0
PairPos2: "'kern' Horizontal Kerning lookup 15-2" uni0621 dx=-150 dy=0 dh=-150 dv=0 dx=0 dy=0 dh=0 dv=0
PairPos2: "'kern' Horizontal Kerning lookup 15-2" uniFB94 dx=-190 dy=0 dh=-190 dv=0 dx=0 dy=0 dh=0 dv=0
PairPos2: "'kern' Horizontal Kerning lookup 15-2" uniFB92 dx=-190 dy=0 dh=-190 dv=0 dx=0 dy=0 dh=0 dv=0
PairPos2: "'kern' Horizontal Kerning lookup 15-2" uni06AF dx=-190 dy=0 dh=-190 dv=0 dx=0 dy=0 dh=0 dv=0
PairPos2: "'kern' Horizontal Kerning lookup 15-2" afii57506 dx=-150 dy=0 dh=-150 dv=0 dx=0 dy=0 dh=0 dv=0
PairPos2: "'kern' Horizontal Kerning lookup 15-2" afii57440 dx=-150 dy=0 dh=-150 dv=0 dx=0 dy=0 dh=0 dv=0
PairPos2: "'kern' Horizontal Kerning lookup 15-2" uniFE8B dx=-150 dy=0 dh=-150 dv=0 dx=0 dy=0 dh=0 dv=0
Substitution2: "'fina' Terminal Forms in Arabic lookup 9 subtable" uniFEAE
EndChar

StartChar: uni0633
Encoding: 1587 1587 27
Width: 2381
VWidth: 2510
GlyphClass: 2
Flags: W
AnchorPoint: "Anchor-10" 581.535 972.391 basechar 0
AnchorPoint: "Anchor-7" 343.994 -773.742 basechar 0
LayerCount: 2
Fore
SplineSet
1451.74980375 14.9580084881 m 0,0,1
 1340.27348808 14.9977636743 1340.27348808 14.9977636743 1282.28673154 73.7551113463 c 2,2,-1
 1256.76641117 99.6145735206 l 1,3,-1
 1256.61048969 63.2831239949 l 2,4,5
 1256.46116047 28.4877422658 1256.46116047 28.4877422658 1252.77553716 -5.03271663808 c 128,-1,6
 1249.08991386 -38.5531755419 1249.08991386 -38.5531755419 1241.85665223 -70.8656233104 c 128,-1,7
 1234.6233906 -103.178071079 1234.6233906 -103.178071079 1223.85012359 -134.28495342 c 128,-1,8
 1213.07685658 -165.391835761 1213.07685658 -165.391835761 1198.73941593 -195.38482276 c 0,9,10
 1185.22910437 -223.967574356 1185.22910437 -223.967574356 1168.33197439 -249.365335857 c 128,-1,11
 1151.43484441 -274.763097358 1151.43484441 -274.763097358 1131.02793567 -297.099137744 c 128,-1,12
 1110.62102692 -319.435178129 1110.62102692 -319.435178129 1086.76291576 -338.573695118 c 128,-1,13
 1062.9048046 -357.712212106 1062.9048046 -357.712212106 1035.46081377 -373.742755116 c 128,-1,14
 1008.01682295 -389.773298126 1008.01682295 -389.773298126 977.058026844 -402.596032408 c 128,-1,15
 946.099230735 -415.418766689 946.099230735 -415.418766689 911.478454077 -425.087274129 c 128,-1,16
 876.857677419 -434.755781569 876.857677419 -434.755781569 838.6584926 -441.206194949 c 128,-1,17
 800.459307781 -447.656608328 800.459307781 -447.656608328 758.522041524 -450.906542004 c 128,-1,18
 716.584775267 -454.156475679 716.584775267 -454.156475679 671.004716849 -454.175781992 c 0,19,20
 126.956853497 -454.00470254 126.956853497 -454.00470254 125.410106498 82.7915635119 c 0,21,22
 125.215654462 158.289418294 125.215654462 158.289418294 140.134618988 248.64135329 c 128,-1,23
 155.053583514 338.993288285 155.053583514 338.993288285 184.825471757 442.531952112 c 1,24,-1
 316.749966511 408.244843993 l 1,25,26
 268.009522931 215.82603485 268.009522931 215.82603485 268.390758408 89.5246275842 c 0,27,28
 269.21834182 -106.698010758 269.21834182 -106.698010758 373.038729819 -206.995944131 c 128,-1,29
 476.859117819 -307.293877504 476.859117819 -307.293877504 678.95059634 -307.603434267 c 0,30,31
 895.829444455 -308.317745406 895.829444455 -308.317745406 1006.37957738 -207.259504663 c 128,-1,32
 1116.92971031 -106.20126392 1116.92971031 -106.20126392 1115.79376954 93.0726160982 c 0,33,34
 1115.01445838 254.049737209 1115.01445838 254.049737209 1043.99529186 459.147972972 c 1,35,-1
 1177.29652132 505.72066359 l 1,36,-1
 1234.1485358 323.285578579 l 2,37,38
 1243.5575087 293.335297486 1243.5575087 293.335297486 1257.7238299 268.94991388 c 128,-1,39
 1271.8901511 244.564530274 1271.8901511 244.564530274 1290.60902714 226.049274751 c 128,-1,40
 1309.32790319 207.534019227 1309.32790319 207.534019227 1332.43573504 194.848287957 c 128,-1,41
 1355.54356689 182.162556688 1355.54356689 182.162556688 1383.00382524 175.477384753 c 128,-1,42
 1410.46408359 168.792212819 1410.46408359 168.792212819 1441.94490525 168.201191905 c 0,43,44
 1517.32996924 166.476027123 1517.32996924 166.476027123 1561.00266511 210.326937806 c 128,-1,45
 1604.67536098 254.17784849 1604.67536098 254.17784849 1613.76473343 338.767555288 c 2,46,-1
 1635.67475506 542.671875 l 1,47,-1
 1735.89378267 542.671875 l 1,48,-1
 1757.68022151 338.000692686 l 2,49,50
 1766.39875174 254.244346696 1766.39875174 254.244346696 1814.78924844 210.939823498 c 128,-1,51
 1863.17974514 167.6353003 1863.17974514 167.6353003 1947.29893116 168.356314473 c 0,52,53
 2032.34672562 169.259474994 2032.34672562 169.259474994 2074.27426338 234.87117677 c 128,-1,54
 2116.20180114 300.482878547 2116.20180114 300.482878547 2115.35442887 423.043584921 c 0,55,56
 2115.01682608 539.231026654 2115.01682608 539.231026654 2081.26022697 651.318158853 c 1,57,-1
 2222.18764044 683.772660493 l 1,58,59
 2240.79081409 621.726004407 2240.79081409 621.726004407 2249.64432572 558.966130819 c 128,-1,60
 2258.49783735 496.206257232 2258.49783735 496.206257232 2258.05375598 430.036757248 c 0,61,62
 2257.70811663 288.987712864 2257.70811663 288.987712864 2222.9127525 196.721147863 c 128,-1,63
 2188.11738837 104.454582863 2188.11738837 104.454582863 2119.66874397 59.7272914313 c 128,-1,64
 2051.22009958 15 2051.22009958 15 1947.74121094 15 c 0,65,66
 1766.72618153 15 1766.72618153 15 1700.31972442 131.787405784 c 2,67,-1
 1687.14586928 154.955941391 l 1,68,-1
 1674.17615889 131.672511366 l 2,69,70
 1608.0321133 15.510887359 1608.0321133 15.510887359 1451.74980375 14.9580084881 c 0,0,1
EndSplineSet
Substitution2: "'fina' Terminal Forms in Arabic lookup 9 subtable" uniFEB2
Substitution2: "'medi' Medial Forms in Arabic lookup 11 subtable" uniFEB4
Substitution2: "'init' Initial Forms in Arabic lookup 13 subtable" uniFEB3
EndChar

StartChar: uni0635
Encoding: 1589 1589 29
Width: 2479
VWidth: 2510
GlyphClass: 2
Flags: W
AnchorPoint: "Anchor-7" 418.683 -731.994 basechar 0
AnchorPoint: "Anchor-10" 545.807 972.391 basechar 0
LayerCount: 2
Fore
SplineSet
1234.14623844 323.292817418 m 2,0,1
 1242.05578504 298.228300369 1242.05578504 298.228300369 1250.83199097 279.185524169 c 128,-1,2
 1259.6081969 260.142747968 1259.6081969 260.142747968 1270.42082013 245.389476145 c 128,-1,3
 1281.23344335 230.636204322 1281.23344335 230.636204322 1294.43175492 222.65564593 c 128,-1,4
 1307.63006648 214.675087538 1307.63006648 214.675087538 1322.88313393 213.977573366 c 2,5,-1
 1331.99538392 213.560875314 l 1,6,-1
 1336.55753729 221.459830545 l 2,7,8
 1502.32789405 508.476184323 1502.32789405 508.476184323 1677.71616561 649.126629357 c 128,-1,9
 1853.10443718 789.777074392 1853.10443718 789.777074392 2037.48381106 786.733239696 c 0,10,11
 2060.37044408 786.379203303 2060.37044408 786.379203303 2081.64934727 783.829188084 c 128,-1,12
 2102.92825046 781.279172866 2102.92825046 781.279172866 2122.72664866 776.5348238 c 0,13,14
 2152.22271116 769.538600482 2152.22271116 769.538600482 2178.39189227 758.34196329 c 128,-1,15
 2204.56107339 747.145326097 2204.56107339 747.145326097 2227.58080741 731.648049276 c 128,-1,16
 2250.60054143 716.150772454 2250.60054143 716.150772454 2270.47669814 696.362323392 c 128,-1,17
 2290.35285485 676.57387433 2290.35285485 676.57387433 2307.26294112 652.355457385 c 0,18,19
 2331.37442351 618.163752483 2331.37442351 618.163752483 2343.67816766 569.618265459 c 128,-1,20
 2355.98191181 521.072778434 2355.98191181 521.072778434 2355.9648509 457.985351569 c 0,21,22
 2355.9818314 440.597321956 2355.9818314 440.597321956 2354.51166858 423.812828292 c 128,-1,23
 2353.04150575 407.028334628 2353.04150575 407.028334628 2350.0593289 390.579115784 c 0,24,25
 2335.83951516 309.10909287 2335.83951516 309.10909287 2284.13704946 239.931019247 c 0,26,27
 2117.44614679 15 2117.44614679 15 1609.41210938 15 c 2,28,-1
 1520.0078125 15 l 2,29,30
 1447.35281313 15 1447.35281313 15 1387.35138251 30.2708762011 c 128,-1,31
 1327.34995189 45.5417524023 1327.34995189 45.5417524023 1279.66083639 75.8753567338 c 2,32,-1
 1256.72713502 90.4627907009 l 1,33,-1
 1256.61048969 63.2831239949 l 2,34,35
 1256.46116047 28.4877422658 1256.46116047 28.4877422658 1252.77553716 -5.03271663808 c 128,-1,36
 1249.08991386 -38.5531755419 1249.08991386 -38.5531755419 1241.85665223 -70.8656233104 c 128,-1,37
 1234.6233906 -103.178071079 1234.6233906 -103.178071079 1223.85012359 -134.28495342 c 128,-1,38
 1213.07685658 -165.391835761 1213.07685658 -165.391835761 1198.73941593 -195.38482276 c 0,39,40
 1185.22910437 -223.967574356 1185.22910437 -223.967574356 1168.33197439 -249.365335857 c 128,-1,41
 1151.43484441 -274.763097358 1151.43484441 -274.763097358 1131.02793567 -297.099137744 c 128,-1,42
 1110.62102692 -319.435178129 1110.62102692 -319.435178129 1086.76291576 -338.573695118 c 128,-1,43
 1062.9048046 -357.712212106 1062.9048046 -357.712212106 1035.46081377 -373.742755116 c 128,-1,44
 1008.01682295 -389.773298126 1008.01682295 -389.773298126 977.058026844 -402.596032408 c 128,-1,45
 946.099230735 -415.418766689 946.099230735 -415.418766689 911.478454077 -425.087274129 c 128,-1,46
 876.857677419 -434.755781569 876.857677419 -434.755781569 838.6584926 -441.206194949 c 128,-1,47
 800.459307781 -447.656608328 800.459307781 -447.656608328 758.522041524 -450.906542004 c 128,-1,48
 716.584775267 -454.156475679 716.584775267 -454.156475679 671.004716849 -454.175781992 c 0,49,50
 126.956853497 -454.00470254 126.956853497 -454.00470254 125.410106498 82.7915635119 c 0,51,52
 125.215654462 158.289418294 125.215654462 158.289418294 140.134618988 248.64135329 c 128,-1,53
 155.053583514 338.993288285 155.053583514 338.993288285 184.825471757 442.531952112 c 1,54,-1
 316.749966511 408.244843993 l 1,55,56
 268.009522931 215.82603485 268.009522931 215.82603485 268.390758408 89.5246275842 c 0,57,58
 269.21834182 -106.698010758 269.21834182 -106.698010758 373.038729819 -206.995944131 c 128,-1,59
 476.859117819 -307.293877504 476.859117819 -307.293877504 678.95059634 -307.603434267 c 0,60,61
 895.829444455 -308.317745406 895.829444455 -308.317745406 1006.37957738 -207.259504663 c 128,-1,62
 1116.92971031 -106.20126392 1116.92971031 -106.20126392 1115.79376954 93.0726160982 c 0,63,64
 1115.01445838 254.049737209 1115.01445838 254.049737209 1043.99529186 459.147972972 c 1,65,-1
 1177.29652132 505.72066359 l 1,66,-1
 1234.14623844 323.292817418 l 2,0,1
1469.63652833 170.298828125 m 1,67,-1
 1612.32599459 170.298834518 l 2,68,69
 1940.15819045 169.996154443 1940.15819045 169.996154443 2082.84474703 255.856963199 c 0,70,71
 2126.62418017 281.842689139 2126.62418017 281.842689139 2156.0621465 312.969650217 c 128,-1,72
 2185.50011284 344.096611296 2185.50011284 344.096611296 2199.99973809 380.441855685 c 0,73,74
 2214.57926499 416.9873842 2214.57926499 416.9873842 2215.46493021 460.901462377 c 0,75,76
 2214.95402339 533.594361043 2214.95402339 533.594361043 2163.34883484 581.397118666 c 0,77,78
 2145.5401178 597.794580924 2145.5401178 597.794580924 2122.6066597 608.475944769 c 128,-1,79
 2099.67320159 619.157308614 2099.67320159 619.157308614 2071.79146606 624.265938357 c 0,80,81
 2012.69626023 634.264579733 2012.69626023 634.264579733 1946.11421742 620.253850375 c 0,82,83
 1712.54649366 571.345798503 1712.54649366 571.345798503 1483.42871198 193.069871942 c 2,84,-1
 1469.63652833 170.298828125 l 1,67,-1
EndSplineSet
Substitution2: "'fina' Terminal Forms in Arabic lookup 9 subtable" uniFEBA
Substitution2: "'medi' Medial Forms in Arabic lookup 11 subtable" uniFEBC
Substitution2: "'init' Initial Forms in Arabic lookup 13 subtable" uniFEBB
EndChar

StartChar: uni0637
Encoding: 1591 1591 31
Width: 1458
VWidth: 2510
GlyphClass: 2
Flags: W
AnchorPoint: "Anchor-10" 402.779 1598.69 basechar 0
AnchorPoint: "Anchor-7" 678.281 -338.166 basechar 0
LayerCount: 2
Fore
SplineSet
523.297461835 507.259865652 m 1,0,-1
 532.513500699 518.563198419 l 1,1,2
 759.9205825 790.885399648 759.9205825 790.885399648 1015.07370584 786.733208827 c 0,3,4
 1061.0973433 786.027414424 1061.0973433 786.027414424 1100.2136168 776.559130956 c 0,5,6
 1159.35484863 762.098281654 1159.35484863 762.098281654 1205.3243277 731.158730488 c 128,-1,7
 1251.29380678 700.219179322 1251.29380678 700.219179322 1284.78593887 652.447918928 c 0,8,9
 1301.31575247 628.383244941 1301.31575247 628.383244941 1312.27562494 599.000336373 c 128,-1,10
 1323.23549741 569.617427805 1323.23549741 569.617427805 1328.62877127 534.276172092 c 128,-1,11
 1334.02204513 498.934916379 1334.02204513 498.934916379 1333.5545021 458.230278851 c 0,12,13
 1333.0187235 423.334621493 1333.0187235 423.334621493 1327.63523873 390.509506723 c 0,14,15
 1320.7211107 349.764367658 1320.7211107 349.764367658 1304.30329135 312.216489212 c 128,-1,16
 1287.88547199 274.668610766 1287.88547199 274.668610766 1261.78949057 240.017471312 c 0,17,18
 1092.51365196 15 1092.51365196 15 587 15 c 2,19,-1
 119.625976562 15 l 1,20,-1
 119.625976562 168.259978791 l 1,21,-1
 296.596919024 168.389277974 l 1,22,-1
 300.872609798 176.130777594 l 2,23,24
 344.846975738 255.7500848 344.846975738 255.7500848 354.954827091 269.334162351 c 1,25,-1
 360.595703125 272.606461119 l 1,26,-1
 360.595703125 1442.00585938 l 1,27,-1
 494.997070312 1442.00585938 l 1,28,-1
 494.997070312 514.314453125 l 1,29,-1
 510.996997262 514.280265397 l 1,30,-1
 523.297461835 507.259865652 l 1,0,-1
447.199234448 170.298828125 m 1,31,-1
 589.913773593 170.298834622 l 2,32,33
 915.093149912 169.99618393 915.093149912 169.99618393 1060.36978125 255.819860655 c 0,34,35
 1165.15159381 317.326645409 1165.15159381 317.326645409 1186.35295849 408.550471677 c 0,36,37
 1192.99593373 436.206855227 1192.99593373 436.206855227 1193.0517532 461.011763135 c 0,38,39
 1192.99483224 533.595658788 1192.99483224 533.595658788 1140.96467592 581.371472653 c 0,40,41
 1106.0126934 613.971052152 1106.0126934 613.971052152 1049.37797526 624.266059258 c 0,42,43
 1019.6425142 629.285628433 1019.6425142 629.285628433 988.390547744 628.265149791 c 128,-1,44
 957.138581284 627.244671148 957.138581284 627.244671148 923.696756636 620.252728794 c 0,45,46
 805.971020074 595.556680965 805.971020074 595.556680965 690.682678769 488.560661142 c 128,-1,47
 575.394337464 381.56464132 575.394337464 381.56464132 461.022890191 193.080243352 c 2,48,-1
 447.199234448 170.298828125 l 1,31,-1
EndSplineSet
Substitution2: "'fina' Terminal Forms in Arabic lookup 9 subtable" uniFEC2
Substitution2: "'medi' Medial Forms in Arabic lookup 11 subtable" uniFEC4
Substitution2: "'init' Initial Forms in Arabic lookup 13 subtable" uniFEC3
EndChar

StartChar: uni0639
Encoding: 1593 1593 33
Width: 1282
VWidth: 2510
GlyphClass: 2
Flags: W
AnchorPoint: "Anchor-10" 490.933 1425.86 basechar 0
AnchorPoint: "Anchor-7" 383.912 -871.729 basechar 0
LayerCount: 2
Fore
SplineSet
806.003379979 -646.881835139 m 0,0,1
 464.971156577 -646.940237679 464.971156577 -646.940237679 297.959480959 -525.180697349 c 128,-1,2
 130.947805341 -403.421157018 130.947805341 -403.421157018 130.898436861 -158.836411058 c 0,3,4
 130.931448968 -45.776292999 130.931448968 -45.776292999 169.230549508 46.6529319602 c 128,-1,5
 207.529650048 139.082156919 207.529650048 139.082156919 284.854600879 211.83513988 c 128,-1,6
 362.179551711 284.58812284 362.179551711 284.58812284 479.028309092 337.781639435 c 2,7,-1
 501.800396045 348.148265596 l 1,8,-1
 481.925999045 363.348371717 l 2,9,10
 467.906242123 374.070799823 467.906242123 374.070799823 449.109268749 395.258285961 c 128,-1,11
 430.312295375 416.445772099 430.312295375 416.445772099 407.922040384 447.1124038 c 0,12,13
 341.978929182 538.860643886 341.978929182 538.860643886 341.467693186 656.049066881 c 0,14,15
 341.019603792 793.031584834 341.019603792 793.031584834 431.90242303 888.697710348 c 0,16,17
 530.37320482 992.904654184 530.37320482 992.904654184 687.850574926 990.58472866 c 0,18,19
 737.485727586 990.090255034 737.485727586 990.090255034 791.138797778 975.888415342 c 128,-1,20
 844.79186797 961.686575649 844.79186797 961.686575649 902.717796366 933.541582357 c 128,-1,21
 960.643724762 905.396589065 960.643724762 905.396589065 1022.15022427 863.476571904 c 1,22,-1
 970.404620619 744.097221746 l 1,23,24
 800.073872716 844.002165198 800.073872716 844.002165198 686.949488433 844.292883702 c 0,25,26
 641.127457809 844.138579989 641.127457809 844.138579989 603.961431135 831.829299563 c 128,-1,27
 566.795404461 819.520019136 566.795404461 819.520019136 538.984790686 794.7586466 c 0,28,29
 508.753298994 767.446762906 508.753298994 767.446762906 493.486679838 733.383276389 c 128,-1,30
 478.220060682 699.319789873 478.220060682 699.319789873 478.480062105 659.578228164 c 0,31,32
 479.036217261 595.780031974 479.036217261 595.780031974 515.036250476 535.864386287 c 0,33,34
 567.678812331 448.731454025 567.678812331 448.731454025 624.802589913 406.119311841 c 2,35,-1
 629.932968932 402.29224631 l 1,36,-1
 636.24584935 403.348068401 l 2,37,38
 887.223035957 445.323718257 887.223035957 445.323718257 1098.38488748 421.795954051 c 1,39,-1
 1081.02211169 277.975054367 l 1,40,41
 825.840660198 287.90121013 825.840660198 287.90121013 666.232512732 246.670661153 c 0,42,43
 264.970363047 141.569342648 264.970363047 141.569342648 265.740238972 -159.224634551 c 0,44,45
 265.876279047 -332.982587107 265.876279047 -332.982587107 403.930308422 -419.264857776 c 128,-1,46
 541.984337797 -505.547128444 541.984337797 -505.547128444 810.008313977 -505.082028946 c 0,47,48
 953.161144148 -505.002684313 953.161144148 -505.002684313 1121.96554148 -461.428801345 c 1,49,-1
 1149.92751693 -600.106863169 l 1,50,51
 1094.81041237 -615.88654177 1094.81041237 -615.88654177 1038.52666095 -626.281816461 c 128,-1,52
 982.242909525 -636.677091153 982.242909525 -636.677091153 924.332959007 -641.798251116 c 128,-1,53
 866.423008489 -646.91941108 866.423008489 -646.91941108 806.003379979 -646.881835139 c 0,0,1
EndSplineSet
Substitution2: "'fina' Terminal Forms in Arabic lookup 9 subtable" uniFECA
Substitution2: "'medi' Medial Forms in Arabic lookup 11 subtable" uniFECC
Substitution2: "'init' Initial Forms in Arabic lookup 13 subtable" uniFECB
EndChar

StartChar: afii57440
Encoding: 1600 1600 35
Width: 245
VWidth: 2510
GlyphClass: 2
Flags: W
AnchorPoint: "Anchor-10" 114.334 1351.94 basechar 0
AnchorPoint: "Anchor-7" 108.334 -174.094 basechar 0
LayerCount: 2
Fore
SplineSet
-5.8857421875 15 m 2,0,1
 -37.0672651968 15 -37.0672651968 15 -51.0336325984 30.6370793819 c 128,-1,2
 -65 46.2741587639 -65 46.2741587639 -65 83 c 2,3,-1
 -65 99 l 2,4,5
 -65 136.831283504 -65 136.831283504 -50.9570897605 152.915641752 c 128,-1,6
 -36.9141795211 169 -36.9141795211 169 -5.8857421875 169 c 2,7,-1
 249.5160922 169 l 1,8,9
 260.114257812 158.102837439 260.114257812 158.102837439 260.114257812 99 c 2,10,-1
 260.114272025 83.0206489826 l 2,11,12
 260.034706655 25.2221881573 260.034706655 25.2221881573 249.578902518 15 c 1,13,-1
 -5.8857421875 15 l 2,0,1
EndSplineSet
EndChar

StartChar: uni0643
Encoding: 1603 1603 38
Width: 1844
VWidth: 2510
GlyphClass: 2
Flags: W
AnchorPoint: "Anchor-10" 580.909 1427.46 basechar 0
AnchorPoint: "Anchor-7" 587.127 -289.157 basechar 0
LayerCount: 2
Fore
SplineSet
864.487190445 168 m 0,0,1
 1029.63593192 168 1029.63593192 168 1136.16842731 177.049725772 c 0,2,3
 1239.68596248 185.90704061 1239.68596248 185.90704061 1318.08135745 210.378133749 c 0,4,5
 1396.47675241 234.849226888 1396.47675241 234.849226888 1449.50753482 274.921407855 c 0,6,7
 1502.53831722 314.993588821 1502.53831722 314.993588821 1528.87692882 371.423266693 c 0,8,9
 1555.21554041 427.852944566 1555.21554041 427.852944566 1553.86035156 499.726362495 c 2,10,-1
 1553.86035156 1442.4702776 l 1,11,12
 1576.43199372 1442.4702776 1576.43199372 1442.4702776 1621.83786477 1442.4773263 c 0,13,14
 1667.24373582 1442.484375 1667.24373582 1442.484375 1688.5625 1442.484375 c 1,15,-1
 1688.5625 465.273909895 l 2,16,17
 1691.87832109 163.974101845 1691.87832109 163.974101845 1373.44388773 63.9932695141 c 0,18,19
 1298.33767096 40.241217858 1298.33767096 40.241217858 1169.72590946 27.9567985332 c 0,20,21
 1041.11414796 15.6723792084 1041.11414796 15.6723792084 860.936217241 15.3495856593 c 0,22,23
 485.232672747 14.6814989424 485.232672747 14.6814989424 301.324196376 140.596348322 c 0,24,25
 117.415720005 266.511197701 117.415720005 266.511197701 117.808575486 519.320342385 c 0,26,27
 117.983917412 631.682311315 117.983917412 631.682311315 149.513553173 728.714010993 c 1,28,-1
 279.001121858 696.838286895 l 1,29,30
 259.047841186 594.053889284 259.047841186 594.053889284 259.957134542 520.820015392 c 0,31,32
 262.078385846 344.046682835 262.078385846 344.046682835 415.216196578 256.276230558 c 0,33,34
 568.354007311 168.50577828 568.354007311 168.50577828 864.487190445 168 c 0,0,1
647.198242188 734.237481763 m 1,35,36
 683.265986964 729.97950982 683.265986964 729.97950982 715.095921913 727.275341376 c 0,37,38
 746.925856863 724.571172932 746.925856863 724.571172932 775.586018508 723.365252324 c 0,39,40
 804.246180153 722.159331716 804.246180153 722.159331716 829.134895343 722.56603457 c 0,41,42
 854.023610532 722.972737424 854.023610532 722.972737424 875.810755268 724.975154664 c 0,43,44
 897.597900004 726.977571904 897.597900004 726.977571904 916.106505691 730.648856131 c 0,45,46
 934.615111377 734.320140357 934.615111377 734.320140357 950.116893495 739.682029081 c 0,47,48
 991.175175224 753.961971788 991.175175224 753.961971788 1021.10660172 783.893398282 c 0,49,50
 1028.68046414 791.467260706 1028.68046414 791.467260706 1034.44183524 798.889948413 c 0,51,52
 1040.20320634 806.31263612 1040.20320634 806.31263612 1044.46226105 814.125440959 c 0,53,54
 1048.72131576 821.938245799 1048.72131576 821.938245799 1050.97078976 830.083572542 c 0,55,56
 1053.22026376 838.228899286 1053.22026376 838.228899286 1053.33164788 846.486766104 c 0,57,58
 1052.92451981 915.915912209 1052.92451981 915.915912209 944.236618767 932.332313929 c 0,59,60
 854.127659224 945.920172908 854.127659224 945.920172908 812.083196239 990.887362634 c 0,61,62
 770.038733255 1035.85455236 770.038733255 1035.85455236 771.834360104 1115.14305725 c 0,63,64
 774.22572199 1212.67125638 774.22572199 1212.67125638 864.50179935 1268.75386926 c 0,65,66
 954.77787671 1324.83648215 954.77787671 1324.83648215 1139.8806983 1337.74827431 c 1,67,-1
 1139.88085938 1242.48925586 l 1,68,69
 969.133136063 1227.13171331 969.133136063 1227.13171331 898.74936621 1168.95713144 c 0,70,71
 891.935354164 1163.3376908 891.935354164 1163.3376908 886.713141585 1156.56470826 c 0,72,73
 881.490929007 1149.79172572 881.490929007 1149.79172572 878.018521804 1142.1540617 c 0,74,75
 874.546114601 1134.51639768 874.546114601 1134.51639768 872.7730573 1126.0468787 c 0,76,77
 871 1117.57735973 871 1117.57735973 871 1108.5 c 0,78,79
 871 1068.39387581 871 1068.39387581 903.453648574 1044.3314594 c 0,80,81
 935.907297147 1020.26904299 935.907297147 1020.26904299 994.609015109 1011.37698942 c 0,82,83
 1075.95063844 998.847699015 1075.95063844 998.847699015 1113.98256874 964.93497521 c 0,84,85
 1152.01449904 931.022251405 1152.01449904 931.022251405 1152.02636743 874.556409661 c 0,86,87
 1152.0015754 736.757717838 1152.0015754 736.757717838 1024.15776654 664.57963537 c 0,88,89
 961.026428834 628.937506646 961.026428834 628.937506646 867.252825023 620.304357382 c 0,90,91
 773.479221211 611.671208117 773.479221211 611.671208117 647.198242188 630.620248594 c 1,92,-1
 647.198242188 734.237481763 l 1,35,36
EndSplineSet
Substitution2: "'fina' Terminal Forms in Arabic lookup 9 subtable" uniFEDA
Substitution2: "'medi' Medial Forms in Arabic lookup 11 subtable" uniFEDC
Substitution2: "'init' Initial Forms in Arabic lookup 13 subtable" uniFEDB
EndChar

StartChar: uni0644
Encoding: 1604 1604 39
Width: 1359
VWidth: 2510
GlyphClass: 2
Flags: W
AnchorPoint: "Anchor-10" 476.417 1209.54 basechar 0
AnchorPoint: "Anchor-7" 439.678 -599.49 basechar 0
LayerCount: 2
Fore
SplineSet
268.39072011 59.5329317633 m 0,0,1
 269.221829197 -124.09880553 269.221829197 -124.09880553 373.265580329 -216.720774075 c 128,-1,2
 477.309331461 -309.342742621 477.309331461 -309.342742621 679.145296233 -307.602811909 c 0,3,4
 870.447441155 -305.749692908 870.447441155 -305.749692908 968.331878278 -204.515424368 c 128,-1,5
 1066.2163154 -103.281155829 1066.2163154 -103.281155829 1066.62301459 92.7335258976 c 2,6,-1
 1069.41910499 1440.35058594 l 1,7,-1
 1202.69072798 1440.35058594 l 1,8,-1
 1202.10058656 262.004298544 l 2,9,10
 1202.05097833 88.8937373984 1202.05097833 88.8937373984 1188.38653956 -26.4553546661 c 128,-1,11
 1174.7221008 -141.804446731 1174.7221008 -141.804446731 1148.81739922 -195.22237221 c 0,12,13
 1086.63398369 -322.789722801 1086.63398369 -322.789722801 967.811074135 -387.458514149 c 128,-1,14
 848.988164578 -452.127305497 848.988164578 -452.127305497 670.843723542 -454.17659535 c 0,15,16
 396.380999801 -457.036221364 396.380999801 -457.036221364 261.284556254 -331.253155141 c 128,-1,17
 126.188112706 -205.470088918 126.188112706 -205.470088918 125.410112203 52.7892808378 c 0,18,19
 125.018583859 214.349723177 125.018583859 214.349723177 184.828325674 422.53121038 c 1,20,-1
 316.753234337 388.243994687 l 1,21,22
 268.009483719 195.594293659 268.009483719 195.594293659 268.39072011 59.5329317633 c 0,0,1
EndSplineSet
Substitution2: "'fina' Terminal Forms in Arabic lookup 9 subtable" uniFEDE
Substitution2: "'medi' Medial Forms in Arabic lookup 11 subtable" uniFEE0
Substitution2: "'init' Initial Forms in Arabic lookup 13 subtable" uniFEDF
EndChar

StartChar: uni0645
Encoding: 1605 1605 40
Width: 1161
VWidth: 2230
GlyphClass: 2
Flags: W
AnchorPoint: "Anchor-10" 600.632 1093.53 basechar 0
AnchorPoint: "Anchor-7" 185.783 -803.114 basechar 0
LayerCount: 2
Fore
SplineSet
368.882058309 295.317706703 m 2,0,1
 447.083387447 486.366523458 447.083387447 486.366523458 511.2227628 567.689659676 c 0,2,3
 607.256695247 689 607.256695247 689 722.5 689 c 0,4,5
 868.324467936 689 868.324467936 689 963.851740905 556.55759306 c 0,6,7
 1045.99781357 443.141462659 1045.99781357 443.141462659 1045.92871306 289.992019882 c 0,8,9
 1045.99706492 161.512996244 1045.99706492 161.512996244 975.554314918 78.6951685397 c 0,10,11
 908.083305433 -0.958106546743 908.083305433 -0.958106546743 788.165046509 -0.233329914159 c 0,12,13
 679.831091126 0.958751661016 679.831091126 0.958751661016 596.051673282 45.6932066653 c 0,14,15
 570.178306969 59.4743893457 570.178306969 59.4743893457 548.554632904 71.3293539538 c 128,-1,16
 526.93095884 83.1843185618 526.93095884 83.1843185618 509.765935391 92.9937391466 c 128,-1,17
 492.600911942 102.803159731 492.600911942 102.803159731 479.815387487 110.60682456 c 0,18,19
 437.958355649 136.157556397 437.958355649 136.157556397 395.458591507 134.577140106 c 0,20,21
 254.013671875 129.468512619 254.013671875 129.468512619 254.013671875 -155.96875 c 2,22,-1
 254.013671875 -618.0625 l 1,23,-1
 119.625976562 -618.0625 l 1,24,-1
 119.625970843 -166.338293653 l 2,25,26
 119.988790765 249.156828501 119.988790765 249.156828501 357.312036252 286.179254797 c 2,27,-1
 365.67549657 287.483954607 l 1,28,-1
 368.882058309 295.317706703 l 2,0,1
520.532507462 261.675910441 m 2,29,30
 588.008461276 203.237661064 588.008461276 203.237661064 648.824487219 173.092422945 c 128,-1,31
 709.640513162 142.947184827 709.640513162 142.947184827 764.723211461 141.733999259 c 0,32,33
 770.76120526 141.622563787 770.76120526 141.622563787 776.594474411 141.745667076 c 0,34,35
 850.291105346 143.306898502 850.291105346 143.306898502 888.355996882 183.879517377 c 128,-1,36
 926.420888419 224.452136253 926.420888419 224.452136253 924.738247894 299.343762486 c 0,37,38
 922.881449985 380.343448864 922.881449985 380.343448864 861.839654498 457.934526929 c 0,39,40
 800.376254997 536.94776566 800.376254997 536.94776566 724.164356138 537.491396732 c 0,41,42
 700.100900644 537.847114173 700.100900644 537.847114173 677.263756837 526.846719276 c 128,-1,43
 654.42661303 515.846324379 654.42661303 515.846324379 633.498164687 494.685869937 c 128,-1,44
 612.569716343 473.525415495 612.569716343 473.525415495 592.331757703 441.505180592 c 128,-1,45
 572.093799063 409.484945689 572.093799063 409.484945689 553.431811067 369.164324705 c 128,-1,46
 534.769823071 328.843703721 534.769823071 328.843703721 516.262502795 278.159634153 c 2,47,-1
 512.715523193 268.445890712 l 1,48,-1
 520.532507462 261.675910441 l 2,29,30
EndSplineSet
Substitution2: "'init' Initial Forms in Arabic lookup 13 subtable" uniFEE3
Substitution2: "'medi' Medial Forms in Arabic lookup 11 subtable" uniFEE4
Substitution2: "'fina' Terminal Forms in Arabic lookup 9 subtable" uniFEE2
EndChar

StartChar: uni0647
Encoding: 1607 1607 42
Width: 930
VWidth: 2510
GlyphClass: 2
Flags: W
AnchorPoint: "Anchor-10" 415.402 1238.94 basechar 0
AnchorPoint: "Anchor-7" 306.214 -319.471 basechar 0
LayerCount: 2
Fore
SplineSet
448.203546145 646.595037671 m 2,0,1
 253.985503769 474.743612062 253.985503769 474.743612062 254.249174726 352.138685508 c 0,2,3
 254.517762806 292.337147811 254.517762806 292.337147811 279.186812991 251.488925539 c 128,-1,4
 303.855863177 210.640703267 303.855863177 210.640703267 351.007300299 190.175717357 c 128,-1,5
 398.158737421 169.710731447 398.158737421 169.710731447 466.384233262 169.556678363 c 0,6,7
 569.69627721 169.788423868 569.69627721 169.788423868 624.435809246 215.521204058 c 128,-1,8
 679.175341282 261.253984248 679.175341282 261.253984248 679.379808845 350.082262615 c 0,9,10
 678.977348732 478.236322695 678.977348732 478.236322695 467.502732397 647.08334982 c 2,11,-1
 457.647874036 654.951734053 l 1,12,-1
 448.203546145 646.595037671 l 2,0,1
383.533700252 913.375122874 m 1,13,14
 803.291922196 606.517926826 803.291922196 606.517926826 809.955845561 348.829683711 c 0,15,16
 814.787793478 155.31157155 814.787793478 155.31157155 673.822413568 69.7161344402 c 0,17,18
 592.750900569 19.9905525258 592.750900569 19.9905525258 467.972851134 19.7167528849 c 0,19,20
 354.494429558 19.9915809939 354.494429558 19.9915809939 268.964133573 61.9035918273 c 0,21,22
 123.024467497 134.291520905 123.024467497 134.291520905 123.562463364 339.017628889 c 0,23,24
 123.986025118 530.660413784 123.986025118 530.660413784 351.17408621 752.106174906 c 2,25,-1
 363.019999267 763.652676163 l 1,26,-1
 306.985960889 810.895774666 l 1,27,-1
 383.533700252 913.375122874 l 1,13,14
EndSplineSet
Substitution2: "'fina' Terminal Forms in Arabic lookup 9 subtable" uniFEEA
Substitution2: "'medi' Medial Forms in Arabic lookup 11 subtable" uniFEEC
Substitution2: "'init' Initial Forms in Arabic lookup 13 subtable" uniFEEB
EndChar

StartChar: uni0648
Encoding: 1608 1608 43
Width: 900
VWidth: 2510
GlyphClass: 2
Flags: W
AnchorPoint: "Anchor-10" 391.958 1186.5 basechar 0
AnchorPoint: "Anchor-7" 351.257 -692.659 basechar 0
LayerCount: 2
Fore
SplineSet
785.181718415 165.950085537 m 0,0,1
 785.922524665 -56.6714052542 785.922524665 -56.6714052542 701.663366349 -197.243011208 c 0,2,3
 680.567979985 -232.157950915 680.567979985 -232.157950915 654.547661803 -262.201076779 c 128,-1,4
 628.527343621 -292.244202642 628.527343621 -292.244202642 597.543494733 -317.476976069 c 0,5,6
 433.798675254 -450.463985171 433.798675254 -450.463985171 126.146361939 -482.942129541 c 1,7,-1
 100.578467123 -342.303000482 l 1,8,9
 327.984710455 -321.501667887 327.984710455 -321.501667887 464.402312739 -235.338552766 c 128,-1,10
 600.819915024 -149.175437644 600.819915024 -149.175437644 643.720233575 3.10640222136 c 2,11,-1
 649.840556503 24.8315098081 l 1,12,-1
 582.671151002 16.5217863978 l 2,13,14
 295.512598169 -19.0777929589 295.512598169 -19.0777929589 198.914910447 102.624635156 c 0,15,16
 142.988183279 172.290712488 142.988183279 172.290712488 142.749752415 279.552003213 c 0,17,18
 142.021121516 406.366985388 142.021121516 406.366985388 204.44216101 526.144172216 c 0,19,20
 289.178644624 691.043028074 289.178644624 691.043028074 456.056886727 691.82823287 c 0,21,22
 587.226296892 692.325689674 587.226296892 692.325689674 665.707000637 607.322127178 c 128,-1,23
 744.187704382 522.318564681 744.187704382 522.318564681 771.498044847 346.695125091 c 0,24,25
 784.86632987 260.728265762 784.86632987 260.728265762 785.181718415 165.950085537 c 0,0,1
568.979996509 166.313341566 m 2,26,-1
 646.230934354 177.426049374 l 1,27,-1
 645.241808749 199.406611471 l 2,28,29
 630.339504651 532.080466682 630.339504651 532.080466682 450.700220854 531.073236837 c 0,30,31
 402.301711382 531.032356955 402.301711382 531.032356955 365.637687961 501.220017477 c 128,-1,32
 328.97366454 471.407677998 328.97366454 471.407677998 305.14644071 414.75183467 c 0,33,34
 278.954600413 350.843744345 278.954600413 350.843744345 279.81305528 294.905750868 c 0,35,36
 279.972245048 283.767794725 279.972245048 283.767794725 281.436159624 273.489654798 c 0,37,38
 302.215250379 127.599719759 302.215250379 127.599719759 568.979996509 166.313341566 c 2,26,-1
EndSplineSet
Substitution2: "'fina' Terminal Forms in Arabic lookup 9 subtable" uniFEEE
EndChar

StartChar: uni0649
Encoding: 1609 1609 44
Width: 1463
VWidth: 2510
GlyphClass: 2
Flags: W
AnchorPoint: "Anchor-10" 465.366 1106.43 basechar 0
AnchorPoint: "Anchor-7" 441.959 -709.182 basechar 0
LayerCount: 2
Fore
SplineSet
699.052730832 -304.603423092 m 0,0,1
 782.830546181 -304.296991452 782.830546181 -304.296991452 852.706340207 -292.700889324 c 128,-1,2
 922.582134232 -281.104787197 922.582134232 -281.104787197 978.697551999 -258.003732412 c 0,3,4
 1127.55118668 -196.882848764 1127.55118668 -196.882848764 1188.04638341 -88.271548954 c 0,5,6
 1205.41910563 -56.9269739991 1205.41910563 -56.9269739991 1209.83662751 -28.1679392969 c 0,7,8
 1210.9855925 -20.7561135165 1210.9855925 -20.7561135165 1211.18796622 -13.9127990616 c 0,9,10
 1212.25492606 22.1666961277 1212.25492606 22.1666961277 1187.51849243 41.4261902982 c 128,-1,11
 1162.78205881 60.6856844688 1162.78205881 60.6856844688 1119.25144209 61.784288976 c 2,12,-1
 952.409683177 65.9944042794 l 2,13,14
 866.235961463 68.3488775503 866.235961463 68.3488775503 825.775041179 111.162983984 c 128,-1,15
 785.314120894 153.977090418 785.314120894 153.977090418 786.491023013 241.813095606 c 0,16,17
 787.941465904 358.20925878 787.941465904 358.20925878 866.789571067 471.476890864 c 0,18,19
 1000.68781745 665.390143478 1000.68781745 665.390143478 1345.36140651 671.978149558 c 1,20,-1
 1334.07313781 522.466813933 l 1,21,22
 1255.0882185 519.612562885 1255.0882185 519.612562885 1190.97582505 506.161194616 c 128,-1,23
 1126.8634316 492.709826347 1126.8634316 492.709826347 1077.60744169 468.392079527 c 128,-1,24
 1028.35145178 444.074332707 1028.35145178 444.074332707 994.828468588 409.1748831 c 128,-1,25
 961.305485398 374.275433492 961.305485398 374.275433492 943.673332794 328.130611516 c 128,-1,26
 926.041180191 281.98578954 926.041180191 281.98578954 925.002515166 225.274679209 c 2,27,-1
 924.730984595 210.44910999 l 1,28,-1
 1140.5456631 204.006882313 l 2,29,30
 1188.04802831 202.5674167 1188.04802831 202.5674167 1223.62931309 192.43283667 c 128,-1,31
 1259.21059787 182.298256641 1259.21059787 182.298256641 1282.81142502 164.143774217 c 0,32,33
 1318.97072094 136.120319882 1318.97072094 136.120319882 1337.54181657 72.7185483961 c 0,34,35
 1346 44.7792586138 1346 44.7792586138 1346 11 c 0,36,37
 1346 -19.0177488732 1346 -19.0177488732 1339.84911015 -49.4787743199 c 128,-1,38
 1333.6982203 -79.9397997666 1333.6982203 -79.9397997666 1321.21368714 -111.228252012 c 128,-1,39
 1308.72915398 -142.516704257 1308.72915398 -142.516704257 1289.91380604 -174.371425984 c 0,40,41
 1228.11141516 -279.003843588 1228.11141516 -279.003843588 1103.08748387 -357.256684554 c 0,42,43
 953.691609139 -450.018828997 953.691609139 -450.018828997 690.926834582 -451.17595969 c 0,44,45
 406.521338017 -452.563219338 406.521338017 -452.563219338 266.355270699 -319.314094843 c 128,-1,46
 126.18920338 -186.064970348 126.18920338 -186.064970348 125.410127707 85.7821920788 c 0,47,48
 125.016104919 287.75921132 125.016104919 287.75921132 231.802676995 535.482797995 c 1,49,-1
 361.601463064 496.468369538 l 1,50,51
 268.007202275 274.581135106 268.007202275 274.581135106 268.39075702 92.5249574274 c 0,52,53
 269.219257773 -104.944778524 269.219257773 -104.944778524 378.172250052 -205.131532482 c 128,-1,54
 487.12524233 -305.31828644 487.12524233 -305.31828644 699.052730832 -304.603423092 c 0,0,1
EndSplineSet
Substitution2: "'fina' Terminal Forms in Arabic lookup 9 subtable" uniFEF0
Substitution2: "'medi' Medial Forms in Arabic lookup 11 subtable" uniFBE9
Substitution2: "'init' Initial Forms in Arabic lookup 13 subtable" uniFBE8
EndChar

StartChar: uni064B
Encoding: 1611 1611 46
Width: -28
VWidth: 2417
GlyphClass: 4
Flags: W
AnchorPoint: "Anchor-10" 639.995 1165.41 mark 0
AnchorPoint: "Anchor-9" 639.995 1165.41 mark 0
AnchorPoint: "Anchor-1" 597.995 1741.82 basemark 0
AnchorPoint: "Anchor-1" 639.995 1165.41 mark 0
LayerCount: 2
Fore
SplineSet
319.116210938 1111.890625 m 1,0,-1
 319.116210938 1228.04589844 l 1,1,-1
 843.963867188 1442.65917969 l 1,2,-1
 843.963867188 1326.50390625 l 1,3,-1
 319.116210938 1111.890625 l 1,0,-1
319.116210938 1399.0703125 m 1,4,-1
 319.116210938 1515.22460938 l 1,5,-1
 843.963867188 1729.83886719 l 1,6,-1
 843.963867188 1613.68261719 l 1,7,-1
 319.116210938 1399.0703125 l 1,4,-1
EndSplineSet
EndChar

StartChar: uni064C
Encoding: 1612 1612 47
Width: -28
VWidth: 2417
GlyphClass: 4
Flags: W
AnchorPoint: "Anchor-10" 710.254 1274.95 mark 0
AnchorPoint: "Anchor-9" 710.254 1274.95 mark 0
AnchorPoint: "Anchor-1" 596.382 2001.77 basemark 0
AnchorPoint: "Anchor-1" 710.254 1274.95 mark 0
LayerCount: 2
Fore
SplineSet
685.288085938 1819.5078125 m 0,0,1
 595.9375 1819.5078125 595.9375 1819.5078125 595.9375 1739.57226562 c 0,2,3
 595.9375 1681.72051997 595.9375 1681.72051997 662.28515625 1655.1796875 c 0,4,5
 686.687378301 1645.42114025 686.687378301 1645.42114025 736.1640625 1630.18457031 c 1,6,-1
 750.583007812 1663.82714844 l 2,7,8
 762.92578125 1692.62792969 762.92578125 1692.62792969 762.92578125 1734.01855469 c 128,-1,9
 762.92578125 1775.40917969 762.92578125 1775.40917969 736.060546875 1797.53027344 c 128,-1,10
 709.370117188 1819.5078125 709.370117188 1819.5078125 685.288085938 1819.5078125 c 0,0,1
336.235351562 1587.265625 m 1,11,12
 339.259946179 1351.09135723 339.259946179 1351.09135723 472.029296875 1352.35449219 c 0,13,14
 544.714813637 1352.60203342 544.714813637 1352.60203342 623.791015625 1429.36132812 c 0,15,16
 669.557617188 1473.21484375 669.557617188 1473.21484375 696.685546875 1527.48046875 c 2,17,-1
 708.607421875 1551.33007812 l 1,18,-1
 682.51171875 1556.8671875 l 2,19,20
 575.508263572 1579.00307633 575.508263572 1579.00307633 537.61106538 1630.91804207 c 128,-1,21
 499.713867188 1682.83300781 499.713867188 1682.83300781 500.231933594 1720.2109375 c 0,22,23
 502.468059717 1881.54501368 502.468059717 1881.54501368 627.72265625 1905.23046875 c 0,24,25
 646.928710938 1908.86230469 646.928710938 1908.86230469 668.795898438 1908.78417969 c 0,26,27
 752.029296875 1909.09667969 752.029296875 1909.09667969 801.842915212 1860.3216725 c 128,-1,28
 851.65653355 1811.5466653 851.65653355 1811.5466653 852.204101562 1725.31152344 c 0,29,30
 852.693359375 1683.77539062 852.693359375 1683.77539062 838.922851562 1640.18457031 c 2,31,-1
 830.90234375 1614.79394531 l 1,32,-1
 857.495117188 1613.39746094 l 2,33,34
 883.252503362 1611.99376718 883.252503362 1611.99376718 922.202148438 1611.22363281 c 1,35,-1
 922.202148438 1521.82617188 l 1,36,37
 880.301757812 1522.55273438 880.301757812 1522.55273438 865.299804688 1523.99511719 c 2,38,-1
 788.586914062 1531.37011719 l 1,39,40
 744.629059448 1427.7015926 744.629059448 1427.7015926 651.124136922 1345.45160241 c 128,-1,41
 557.619214397 1263.20161221 557.619214397 1263.20161221 483.667029074 1263.15793501 c 0,42,43
 274.788614535 1263.03456848 274.788614535 1263.03456848 270.678710938 1587.265625 c 1,44,-1
 336.235351562 1587.265625 l 1,11,12
EndSplineSet
EndChar

StartChar: uni064D
Encoding: 1613 1613 48
Width: -28
VWidth: 2417
GlyphClass: 4
Flags: W
AnchorPoint: "Anchor-7" 580.254 77.5137 mark 0
AnchorPoint: "Anchor-6" 580.254 77.5137 mark 0
AnchorPoint: "Anchor-0" 667.295 -493.518 basemark 0
AnchorPoint: "Anchor-0" 580.254 77.5137 mark 0
LayerCount: 2
Fore
SplineSet
324.661132812 -540.221679688 m 1,0,-1
 324.661132812 -424.065429688 l 1,1,-1
 849.5078125 -209.453125 l 1,2,-1
 849.5078125 -325.607421875 l 1,3,-1
 324.661132812 -540.221679688 l 1,0,-1
324.661132812 -253.041992188 m 1,4,-1
 324.661132812 -136.88671875 l 1,5,-1
 849.5078125 77.7265625 l 1,6,-1
 849.5078125 -38.4287109375 l 1,7,-1
 324.661132812 -253.041992188 l 1,4,-1
EndSplineSet
EndChar

StartChar: uni064E
Encoding: 1614 1614 49
Width: -28
VWidth: 2417
GlyphClass: 4
Flags: W
AnchorPoint: "Anchor-10" 606.73 1427.21 mark 0
AnchorPoint: "Anchor-9" 606.73 1427.21 mark 0
AnchorPoint: "Anchor-1" 564.73 1768.44 basemark 0
AnchorPoint: "Anchor-1" 606.73 1427.21 mark 0
LayerCount: 2
Fore
SplineSet
286.9609375 1397.9609375 m 1,0,-1
 286.9609375 1514.11621094 l 1,1,-1
 811.80859375 1728.73046875 l 1,2,-1
 811.80859375 1612.57421875 l 1,3,-1
 286.9609375 1397.9609375 l 1,0,-1
EndSplineSet
EndChar

StartChar: uni064F
Encoding: 1615 1615 50
Width: -28
VWidth: 2417
GlyphClass: 4
Flags: W
AnchorPoint: "Anchor-10" 646.404 1343.06 mark 0
AnchorPoint: "Anchor-9" 646.404 1343.06 mark 0
AnchorPoint: "Anchor-1" 573.845 2017.36 basemark 0
AnchorPoint: "Anchor-1" 646.404 1343.06 mark 0
LayerCount: 2
Fore
SplineSet
861.864257812 1537.46484375 m 1,0,1
 802.75886905 1538.41223839 802.75886905 1538.41223839 724.322265625 1546.78320312 c 1,2,3
 629.317186411 1413.50269726 629.317186411 1413.50269726 463.555664062 1361.328125 c 0,4,5
 398.0546875 1340.7109375 398.0546875 1340.7109375 328.549804688 1337.78027344 c 1,6,-1
 328.549804688 1426.9453125 l 1,7,8
 495.004163258 1433.01725036 495.004163258 1433.01725036 599.6484375 1547.5859375 c 1,9,-1
 624.728515625 1574.00292969 l 1,10,-1
 589.142578125 1581.90332031 l 2,11,12
 582.368836763 1583.30467247 582.368836763 1583.30467247 542.280121506 1604.12987529 c 0,13,14
 444.15104034 1655.10576727 444.15104034 1655.10576727 444.099934232 1751.62905551 c 128,-1,15
 444.048828125 1848.15234375 444.048828125 1848.15234375 517.573242188 1903.58886719 c 0,16,17
 545.6171875 1924.84570312 545.6171875 1924.84570312 618.536473455 1924.68791998 c 0,18,19
 691.45575941 1924.53013683 691.45575941 1924.53013683 741.62827033 1875.39299811 c 128,-1,20
 791.80078125 1826.25585938 791.80078125 1826.25585938 791.865234375 1740.92871094 c 0,21,22
 791.800587063 1705.86929825 791.800587063 1705.86929825 776.185546875 1655.69335938 c 2,23,-1
 768.360351562 1630.54394531 l 1,24,-1
 794.662109375 1628.98925781 l 2,25,26
 833.15234375 1626.74023438 833.15234375 1626.74023438 861.864257812 1626.68066406 c 1,27,-1
 861.864257812 1537.46484375 l 1,0,1
675.825195312 1645.77636719 m 1,28,-1
 690.245117188 1679.41699219 l 2,29,30
 702.588867188 1708.22362417 702.588867188 1708.22362417 702.588867188 1749.61132381 c 128,-1,31
 702.588867188 1790.99902344 702.588867188 1790.99902344 675.719726562 1813.12011719 c 128,-1,32
 649.025390625 1835.09765625 649.025390625 1835.09765625 624.756347656 1835.09765625 c 0,33,34
 557.541189591 1835.09765625 557.541189591 1835.09765625 541.670898438 1790.02929688 c 0,35,36
 535.599609375 1772.78808594 535.599609375 1772.78808594 535.599609375 1747.84765625 c 0,37,38
 535.599609375 1697.30957031 535.599609375 1697.30957031 601.947265625 1670.76855469 c 0,39,40
 626.31667884 1661.02273973 626.31667884 1661.02273973 675.825195312 1645.77636719 c 1,28,-1
EndSplineSet
EndChar

StartChar: uni0650
Encoding: 1616 1616 51
Width: -28
VWidth: 2417
GlyphClass: 4
Flags: W
AnchorPoint: "Anchor-7" 595.761 -19.0098 mark 0
AnchorPoint: "Anchor-6" 595.761 -19.0098 mark 0
AnchorPoint: "Anchor-0" 645.774 -345.291 basemark 0
AnchorPoint: "Anchor-0" 595.761 -19.0098 mark 0
LayerCount: 2
Fore
SplineSet
335.749023438 -369.465820312 m 1,0,-1
 335.749023438 -253.310546875 l 1,1,-1
 860.595703125 -38.697265625 l 1,2,-1
 860.595703125 -154.853515625 l 1,3,-1
 335.749023438 -369.465820312 l 1,0,-1
EndSplineSet
EndChar

StartChar: uni0651
Encoding: 1617 1617 52
Width: -28
VWidth: 2417
GlyphClass: 4
Flags: W
AnchorPoint: "Anchor-10" 639.995 1457.73 mark 0
AnchorPoint: "Anchor-9" 639.995 1457.73 mark 0
AnchorPoint: "Anchor-1" 607.789 1930.36 basemark 0
AnchorPoint: "Anchor-1" 639.995 1457.73 mark 0
LayerCount: 2
Fore
SplineSet
639.284914329 1838.45410156 m 1,0,1
 641 1796 641 1796 641.701202211 1747.30475603 c 0,2,3
 641 1602 641 1602 757.646484375 1602.67773438 c 0,4,5
 842 1603 842 1603 842.766162133 1715.97473918 c 0,6,7
 843 1833 843 1833 830.45388851 1903.95214844 c 1,8,-1
 926.2578125 1903.95214844 l 1,9,10
 938 1817 938 1817 938.25 1727.72851562 c 0,11,12
 938 1503 938 1503 762.91015625 1501.75195312 c 0,13,14
 658 1501 658 1501 616.671875 1575.38867188 c 5,15,16
 581 1430 581 1430 422.60607923 1430.21972839 c 0,17,18
 243 1430 243 1430 271.057264981 1685.06180907 c 0,19,20
 275 1722 275 1722 283.767125861 1779.3203125 c 1,21,-1
 368.674350936 1779.3203125 l 1,22,23
 355 1682 355 1682 354.75 1652.79980469 c 0,24,25
 355 1537 355 1537 435.69978042 1537.23144409 c 0,26,27
 550 1537 550 1537 554.137869604 1685.93103661 c 0,28,29
 556 1748 556 1748 555.428602914 1838.45410156 c 1,30,-1
 639.284914329 1838.45410156 l 1,0,1
EndSplineSet
EndChar

StartChar: uni0652
Encoding: 1618 1618 53
Width: -28
VWidth: 2417
GlyphClass: 4
Flags: W
AnchorPoint: "Anchor-10" 617.953 1245.08 mark 0
AnchorPoint: "Anchor-9" 617.953 1245.08 mark 0
AnchorPoint: "Anchor-1" 602.43 1880.98 basemark 0
AnchorPoint: "Anchor-1" 617.953 1245.08 mark 0
LayerCount: 2
Fore
SplineSet
708.37890625 1438.96191406 m 128,-1,1
 744.711914062 1475.29394531 744.711914062 1475.29394531 744.711914062 1527.59716797 c 128,-1,2
 744.711914062 1579.90039062 744.711914062 1579.90039062 708.37890625 1616.23339844 c 128,-1,3
 672.049804688 1652.56640625 672.049804688 1652.56640625 619.015623832 1652.56640625 c 128,-1,4
 565.981442976 1652.56640625 565.981442976 1652.56640625 530.016601562 1616.59960938 c 128,-1,5
 494.048828125 1580.63379166 494.048828125 1580.63379166 494.048828125 1527.59765755 c 128,-1,6
 494.048828125 1474.56152344 494.048828125 1474.56152344 530.016601562 1438.59570312 c 128,-1,7
 565.982421875 1402.62890625 565.982421875 1402.62890625 619.017089844 1402.62890625 c 128,-1,0
 672.051757812 1402.62890625 672.051757812 1402.62890625 708.37890625 1438.96191406 c 128,-1,1
759.3359375 1388.00683594 m 128,-1,9
 702.325195312 1330.63671875 702.325195312 1330.63671875 608.184903419 1330.63671875 c 128,-1,10
 514.044611526 1330.63671875 514.044611526 1330.63671875 455.106445312 1418.32324219 c 0,11,12
 423.057617188 1466.0060017 423.057617188 1466.0060017 423.057617188 1538.35407507 c 128,-1,13
 423.057617188 1610.70214844 423.057617188 1610.70214844 480.07421875 1667.72949219 c 128,-1,14
 537.090820312 1724.74609375 537.090820312 1724.74609375 619.723632812 1724.74609375 c 0,15,16
 734.277048408 1724.74609375 734.277048408 1724.74609375 791.061523438 1626.8671875 c 0,17,18
 816.388671875 1583.20904919 816.388671875 1583.20904919 816.388671875 1514.31692694 c 128,-1,8
 816.388671875 1445.42480469 816.388671875 1445.42480469 759.3359375 1388.00683594 c 128,-1,9
EndSplineSet
EndChar

StartChar: uni0653
Encoding: 1619 1619 54
Width: -29
VWidth: 2510
GlyphClass: 4
Flags: W
AnchorPoint: "Anchor-10" 432.798 1448.66 mark 0
AnchorPoint: "Anchor-9" 432.798 1448.66 mark 0
AnchorPoint: "Anchor-1" 432.798 1848.71 basemark 0
AnchorPoint: "Anchor-1" 432.798 1448.66 mark 0
LayerCount: 2
Fore
SplineSet
357.413607149 1543.59884597 m 2,0,1
 250.3224507 1555.07144384 250.3224507 1555.07144384 165.97353718 1456.68835867 c 1,2,-1
 75.3131249981 1543.14445752 l 1,3,4
 180.981648114 1693.93010347 180.981648114 1693.93010347 341.083450316 1673.60942224 c 2,5,-1
 518.287031718 1651.11814222 l 2,6,7
 566.444630573 1645.11908023 566.444630573 1645.11908023 617.701015608 1655.60329251 c 128,-1,8
 668.957400643 1666.08750479 668.957400643 1666.08750479 723.340202889 1692.76701002 c 1,9,-1
 782.115535651 1579.55769927 l 1,10,11
 668.284174255 1510.29550772 668.284174255 1510.29550772 526.884310274 1525.44357253 c 2,12,-1
 357.413607149 1543.59884597 l 2,0,1
EndSplineSet
EndChar

StartChar: uni0657
Encoding: 1623 1623 57
Width: -28
VWidth: 2417
GlyphClass: 4
Flags: W
AnchorPoint: "Anchor-10" 597.995 1412.51 mark 0
AnchorPoint: "Anchor-9" 597.995 1412.51 mark 0
AnchorPoint: "Anchor-1" 597.995 2183.68 basemark 0
AnchorPoint: "Anchor-1" 597.995 1412.51 mark 0
LayerCount: 2
Fore
SplineSet
272.17578125 1890.02734375 m 1,0,1
 331.083198419 1888.99329785 331.083198419 1888.99329785 409.728515625 1880.71484375 c 1,2,3
 465.388627376 1959.94202573 465.388627376 1959.94202573 543.538085938 2007.14257812 c 0,4,5
 731.084960938 2121.84570312 731.084960938 2121.84570312 822.25 2128.15234375 c 1,6,-1
 822.25 2039.02636719 l 1,7,8
 724.508789062 2034.85449219 724.508789062 2034.85449219 586.485351562 1927.04785156 c 0,9,10
 558.302734375 1905.23632812 558.302734375 1905.23632812 534.405273438 1879.92480469 c 2,11,-1
 509.315429688 1853.51074219 l 1,12,-1
 544.92578125 1845.58691406 l 1,13,14
 573.18602373 1840.76886676 573.18602373 1840.76886676 607.377571456 1814.94330638 c 0,15,16
 689.848999464 1752.65098603 689.848999464 1752.65098603 690.090820312 1681.96777344 c 0,17,18
 689.952148438 1501.51855469 689.952148438 1501.51855469 515.640625 1503.12207031 c 0,19,20
 442.863563482 1503.59415462 442.863563482 1503.59415462 392.40234375 1552.3203125 c 0,21,22
 342.200195312 1601.14453125 342.200195312 1601.14453125 342.174804688 1686.5703125 c 0,23,24
 342.200195312 1721.49023438 342.200195312 1721.49023438 357.853515625 1771.80371094 c 2,25,-1
 365.678710938 1796.953125 l 1,26,-1
 339.37890625 1798.50683594 l 2,27,28
 302.862791879 1800.66429458 302.862791879 1800.66429458 272.17578125 1800.80957031 c 1,29,-1
 272.17578125 1890.02734375 l 1,0,1
504.17578125 1592.40039062 m 0,30,31
 598.440429688 1592.40039062 598.440429688 1592.40039062 598.440429688 1672.33496094 c 0,32,33
 598.440429688 1730.18652344 598.440429688 1730.18652344 532.094726562 1756.7265625 c 0,34,35
 507.766806249 1766.46320504 507.766806249 1766.46320504 458.215820312 1781.72265625 c 1,36,-1
 443.795898438 1748.08105469 l 2,37,38
 431.451171875 1719.27929688 431.451171875 1719.27929688 431.451171875 1677.89550781 c 128,-1,39
 431.451171875 1636.51171875 431.451171875 1636.51171875 458.31640625 1614.38378906 c 128,-1,40
 485.0078125 1592.40039062 485.0078125 1592.40039062 504.17578125 1592.40039062 c 0,30,31
EndSplineSet
EndChar

StartChar: uni065A
Encoding: 1626 1626 58
Width: 1185
VWidth: 2417
GlyphClass: 4
Flags: W
AnchorPoint: "Anchor-10" 597.995 1412.51 mark 0
AnchorPoint: "Anchor-9" 597.995 1412.51 mark 0
AnchorPoint: "Anchor-1" 595.622 1946.4 basemark 0
AnchorPoint: "Anchor-1" 597.995 1412.51 mark 0
LayerCount: 2
Fore
SplineSet
521.889648438 1506.68164062 m 1,0,-1
 315.200195312 1852.22460938 l 1,1,-1
 432.729492188 1852.22460938 l 1,2,-1
 597.994140625 1604.3203125 l 1,3,-1
 763.259765625 1852.22460938 l 1,4,-1
 880.790039062 1852.22460938 l 1,5,-1
 674.09765625 1506.68164062 l 1,6,-1
 521.889648438 1506.68164062 l 1,0,-1
EndSplineSet
EndChar

StartChar: afii57392
Encoding: 1632 1632 59
Width: 1004
VWidth: 2510
GlyphClass: 2
Flags: W
LayerCount: 2
Fore
SplineSet
418.391695106 683.410562604 m 0,0,1
 380.703125 645.721992497 380.703125 645.721992497 380.703125 592.977539062 c 0,2,3
 380.703125 540.233085629 380.703125 540.233085629 418.391289616 502.544921014 c 0,4,5
 436.987388317 483.948276892 436.987388317 483.948276892 459.904505278 474.448484966 c 0,6,7
 482.821622238 464.948693041 482.821622238 464.948693041 508.820318288 465.068200931 c 0,8,9
 561.539242305 464.825909178 561.539242305 464.825909178 599.256992343 502.54476547 c 0,10,11
 636.946289062 540.234062189 636.946289062 540.234062189 636.946289062 592.9765625 c 0,12,13
 636.946289062 645.719910509 636.946289062 645.719910509 599.256836799 683.410468197 c 0,14,15
 580.651216606 702.015542707 580.651216606 702.015542707 557.774272815 711.557576041 c 0,16,17
 534.897329025 721.099609375 534.897329025 721.099609375 508.82421875 721.099609375 c 0,18,19
 456.080741877 721.099609375 456.080741877 721.099609375 418.391695106 683.410562604 c 0,0,1
319.67251635 778.205406664 m 0,20,21
 396.588203436 855.12109375 396.588203436 855.12109375 504.000488281 855.12109375 c 0,22,23
 611.41272036 855.12109375 611.41272036 855.12109375 688.328945157 778.203945157 c 0,24,25
 765.24609375 701.286796564 765.24609375 701.286796564 765.24609375 593.874511719 c 0,26,27
 765.24609375 539.870251817 765.24609375 539.870251817 746.136570562 494.056972049 c 0,28,29
 727.027047374 448.243692282 727.027047374 448.243692282 688.328817887 409.545927572 c 0,30,31
 662.504965881 383.721455828 662.504965881 383.721455828 633.598571756 366.717696137 c 0,32,33
 604.69217763 349.713936447 604.69217763 349.713936447 572.382178972 341.349531893 c 0,34,35
 540.072180313 332.985127339 540.072180313 332.985127339 503.991196762 333.150548336 c 0,36,37
 396.559308915 332.657800771 396.559308915 332.657800771 319.671054843 409.546054843 c 0,38,39
 242.7578137 486.459295986 242.7578137 486.459295986 242.757834442 593.875019045 c 0,40,41
 242.757844871 647.880910951 242.757844871 647.880910951 261.866975022 693.69495322 c 0,42,43
 280.976105174 739.508995489 280.976105174 739.508995489 319.67251635 778.205406664 c 0,20,21
EndSplineSet
EndChar

StartChar: afii57393
Encoding: 1633 1633 60
Width: 723
VWidth: 2510
GlyphClass: 2
Flags: W
LayerCount: 2
Fore
SplineSet
267.232112922 1404.7322633 m 1,0,1
 509.846182549 811.860887925 509.846182549 811.860887925 527.030889103 24.8017578125 c 1,2,-1
 393.605268488 24.8017578125 l 1,3,4
 378.457376926 743.819271469 378.457376926 743.819271469 136.037414615 1359.84857649 c 1,5,-1
 267.232112922 1404.7322633 l 1,0,1
EndSplineSet
EndChar

StartChar: afii57394
Encoding: 1634 1634 61
Width: 1177
VWidth: 2510
GlyphClass: 2
Flags: W
LayerCount: 2
Fore
SplineSet
351.105660596 1170.12236646 m 0,0,1
 427.455493954 958.004211004 427.455493954 958.004211004 672.970088537 957.90625129 c 0,2,3
 793.154583231 957.956098614 793.154583231 957.956098614 853.765021941 1043.65073264 c 128,-1,4
 914.37546065 1129.34536667 914.37546065 1129.34536667 914.769478037 1293.43660779 c 0,5,6
 914.859404903 1328.03988697 914.859404903 1328.03988697 914.784129763 1353.7687789 c 128,-1,7
 914.708854624 1379.49767084 914.708854624 1379.49767084 914.473146589 1396.74057107 c 1,8,-1
 1048.62017127 1396.31572411 l 1,9,10
 1048.97174528 1379.39613941 1048.97174528 1379.39613941 1048.911133 1363.08943795 c 0,11,12
 1048.95497589 1084.29969301 1048.95497589 1084.29969301 956.564075832 948.651621053 c 128,-1,13
 864.173175771 813.003549091 864.173175771 813.003549091 679.113636794 813.006835925 c 0,14,15
 638.753880037 813.00516498 638.753880037 813.00516498 604.472515821 817.114592874 c 128,-1,16
 570.191151606 821.224020769 570.191151606 821.224020769 542.733545685 829.246067182 c 128,-1,17
 515.275939764 837.268113594 515.275939764 837.268113594 494.11281579 848.840579348 c 128,-1,18
 472.949691816 860.413045102 472.949691816 860.413045102 457.815277238 875.591263424 c 2,19,-1
 421.885447814 911.625085045 l 1,20,-1
 432.524893422 861.86374322 l 2,21,22
 517.525461756 464.310854465 517.525461756 464.310854465 527.035743977 24.8017578125 c 1,23,-1
 393.605268488 24.8017578125 l 1,24,25
 378.457376926 743.819271469 378.457376926 743.819271469 136.037414615 1359.84857649 c 1,26,-1
 266.578967882 1404.50881252 l 1,27,28
 273.645321722 1384.7786101 273.645321722 1384.7786101 285.380388905 1352.1931166 c 128,-1,29
 297.115456089 1319.60762309 297.115456089 1319.60762309 313.519268065 1274.16624211 c 128,-1,30
 329.923080041 1228.72486112 329.923080041 1228.72486112 351.105660596 1170.12236646 c 0,0,1
EndSplineSet
EndChar

StartChar: afii57395
Encoding: 1635 1635 62
Width: 1329
VWidth: 2510
GlyphClass: 2
Flags: W
LayerCount: 2
Fore
SplineSet
435.33132713 838.864711142 m 2,0,1
 517.53499706 454.26896968 517.53499706 454.26896968 527.029032786 24.8017578125 c 1,2,-1
 393.605268488 24.8017578125 l 1,3,4
 378.457376926 743.819271469 378.457376926 743.819271469 136.037414615 1359.84857649 c 1,5,-1
 266.490105576 1404.47841139 l 1,6,7
 309.056953505 1283.00938123 309.056953505 1283.00938123 363.481821242 1130.05035533 c 0,8,9
 420.44190556 972.057960688 420.44190556 972.057960688 548.842975137 971.350677927 c 0,10,11
 604.293666487 971.156478524 604.293666487 971.156478524 635.21607168 1001.96516985 c 128,-1,12
 666.138476872 1032.77386117 666.138476872 1032.77386117 668.743055029 1090.15689233 c 0,13,14
 669.587870259 1108.58710963 669.587870259 1108.58710963 670.340950643 1127.27934145 c 128,-1,15
 671.094031028 1145.97157327 671.094031028 1145.97157327 671.750724629 1164.79387917 c 128,-1,16
 672.407418229 1183.61618507 672.407418229 1183.61618507 672.971242517 1202.63117777 c 128,-1,17
 673.535066804 1221.64617046 673.535066804 1221.64617046 674.002864114 1240.75336563 c 128,-1,18
 674.470661423 1259.86056081 674.470661423 1259.86056081 674.844355334 1279.08901796 c 128,-1,19
 675.218049245 1298.31747511 675.218049245 1298.31747511 675.496075984 1317.60026314 c 128,-1,20
 675.774102723 1336.88305117 675.774102723 1336.88305117 675.956891596 1356.21777344 c 1,21,-1
 795.859155247 1356.21777344 l 1,22,-1
 797.877315965 1232.13592634 l 2,23,24
 800.01913918 1129.92953927 800.01913918 1129.92953927 806.104764111 1080.230269 c 0,25,26
 808.764582814 1057.84346158 808.764582814 1057.84346158 816.387105071 1039.53326996 c 128,-1,27
 824.009627328 1021.22307834 824.009627328 1021.22307834 836.224830491 1007.52475069 c 128,-1,28
 848.440033655 993.826423034 848.440033655 993.826423034 865.024629502 984.485519466 c 128,-1,29
 881.60922535 975.144615899 881.60922535 975.144615899 902.328875196 970.42771708 c 128,-1,30
 923.048525043 965.710818261 923.048525043 965.710818261 947.544256704 965.632151808 c 0,31,32
 1001.81145336 965.279968888 1001.81145336 965.279968888 1034.94638282 998.045316919 c 128,-1,33
 1068.08131227 1030.81066495 1068.08131227 1030.81066495 1077.61460967 1092.11691555 c 0,34,35
 1086.48570809 1147.4549922 1086.48570809 1147.4549922 1089.86705161 1227.71133002 c 128,-1,36
 1093.24839512 1307.96766783 1093.24839512 1307.96766783 1091.17552568 1410.84284339 c 1,37,-1
 1222.45479171 1410.96892173 l 1,38,-1
 1221.99425198 1307.05779844 l 2,39,40
 1221.01323427 1052.46346626 1221.01323427 1052.46346626 1163.86358681 934.28955438 c 0,41,42
 1106.56650704 814.071208698 1106.56650704 814.071208698 952.905639273 815.228177292 c 0,43,44
 826.354020222 816.903935314 826.354020222 816.903935314 757.578472357 904.199823213 c 2,45,-1
 746.020491974 918.870213942 l 1,46,-1
 734.189458729 904.419126543 l 2,47,48
 665.866615731 820.965775083 665.866615731 820.965775083 580.901771408 820.556318993 c 0,49,50
 540.525041061 820.291903365 540.525041061 820.291903365 510.249674605 828.716157412 c 128,-1,51
 479.974308148 837.140411459 479.974308148 837.140411459 459.401379672 853.688201755 c 2,52,-1
 426.507834075 880.146053648 l 1,53,-1
 435.33132713 838.864711142 l 2,0,1
EndSplineSet
EndChar

StartChar: afii57396
Encoding: 1636 1636 63
Width: 1032
VWidth: 2510
GlyphClass: 2
Flags: W
LayerCount: 2
Fore
SplineSet
129.34208318 318.27252368 m 0,0,1
 125.826440895 440.826645726 125.826440895 440.826645726 214.139133947 549.369317547 c 128,-1,2
 302.451826999 657.911989367 302.451826999 657.911989367 485.674631393 752.394767506 c 2,3,-1
 522.477449278 771.372931761 l 1,4,-1
 482.058385087 780.368340185 l 2,5,6
 341.571322913 811.634242252 341.571322913 811.634242252 274.452052334 884.336948547 c 128,-1,7
 207.332781756 957.039654843 207.332781756 957.039654843 209.467330668 1073.40964654 c 0,8,9
 212.561813378 1246.5239036 212.561813378 1246.5239036 332.198146563 1332.12252229 c 128,-1,10
 451.834479748 1417.72114098 451.834479748 1417.72114098 694.42578125 1417.09745963 c 1,11,-1
 694.42578125 1268.7168884 l 1,12,13
 530.108046613 1260.7074497 530.108046613 1260.7074497 444.546132094 1211.20502855 c 128,-1,14
 358.984217575 1161.70260739 358.984217575 1161.70260739 358.965820527 1068.10683828 c 0,15,16
 359.001809964 855.296157077 359.001809964 855.296157077 729.212305541 849.34326446 c 1,17,-1
 730.958878877 724.621976332 l 1,18,19
 493.838430628 628.886055317 493.838430628 628.886055317 376.200173244 529.681791249 c 128,-1,20
 258.561915861 430.47752718 258.561915861 430.47752718 263.791465388 323.688526729 c 0,21,22
 271.719000284 166.352505807 271.719000284 166.352505807 601.760208309 167.479579651 c 2,23,-1
 901.726767904 168.50395011 l 1,24,-1
 903.451408894 15.0215176747 l 1,25,-1
 560.447467077 15.3974466417 l 2,26,27
 346.147913793 15.693312671 346.147913793 15.693312671 240.05344766 91.2025791234 c 128,-1,28
 133.958981528 166.711845576 133.958981528 166.711845576 129.34208318 318.27252368 c 0,0,1
EndSplineSet
EndChar

StartChar: afii57397
Encoding: 1637 1637 64
Width: 1227
VWidth: 2510
GlyphClass: 2
Flags: W
LayerCount: 2
Fore
SplineSet
585.55892625 1077.26064567 m 2,0,1
 278.003360434 779.356987877 278.003360434 779.356987877 277.859376664 506.542739285 c 0,2,3
 277.93265797 350.965000391 277.93265797 350.965000391 373.695815524 272.056817115 c 0,4,5
 469.458973078 193.148633839 469.458973078 193.148633839 654.788759368 193.304727991 c 0,6,7
 809.531907212 193.664281039 809.531907212 193.664281039 889.110891067 270.866885307 c 0,8,9
 968.689874922 348.069489574 968.689874922 348.069489574 968.355457934 498.018013606 c 0,10,11
 967.991090555 801.427931227 967.991090555 801.427931227 605.095960616 1078.41002926 c 2,12,-1
 594.832784692 1086.24346588 l 1,13,-1
 585.55892625 1077.26064567 l 2,0,1
432.626432149 1215.43963474 m 1,14,-1
 513.517870595 1338.00178215 l 1,15,16
 1098.00035609 961.482615258 1098.00035609 961.482615258 1098.01269534 493.013615206 c 0,17,18
 1098.00958099 442.230291954 1098.00958099 442.230291954 1092.04605709 398.138562018 c 0,19,20
 1086.08253319 354.046832082 1086.08253319 354.046832082 1074.24944865 316.927882872 c 0,21,22
 1062.4163641 279.808933662 1062.4163641 279.808933662 1044.96106706 249.395886884 c 0,23,24
 1027.50577001 218.982840106 1027.50577001 218.982840106 1004.32408741 194.953100781 c 0,25,26
 873.571356957 57.0217186545 873.571356957 57.0217186545 629.735930981 57.8447251806 c 0,27,28
 277.660161808 57.9958547294 277.660161808 57.9958547294 164.488185253 306.948547844 c 0,29,30
 129.018888461 385.199215499 129.018888461 385.199215499 129.588513177 482.95456284 c 0,31,32
 131.957057852 827.698206933 131.957057852 827.698206933 475.146578157 1167.30964255 c 2,33,-1
 488.672153287 1180.69420039 l 1,34,-1
 432.626432149 1215.43963474 l 1,14,-1
EndSplineSet
EndChar

StartChar: afii57398
Encoding: 1638 1638 65
Width: 1251
VWidth: 2510
GlyphClass: 2
Flags: W
LayerCount: 2
Fore
SplineSet
779.899969994 1227.99050562 m 2,0,1
 754.775348152 1220.59098745 754.775348152 1220.59098745 709.784936166 1215.53465309 c 128,-1,2
 664.794524179 1210.47831872 664.794524179 1210.47831872 598.989293962 1207.87700254 c 128,-1,3
 533.184063745 1205.27568636 533.184063745 1205.27568636 449.298433433 1205.41110717 c 0,4,5
 343.01526733 1205.21456487 343.01526733 1205.21456487 250.584709463 1215.90242101 c 128,-1,6
 158.154151595 1226.59027715 158.154151595 1226.59027715 80.2333984375 1247.91365181 c 1,7,-1
 80.2333984375 1412.8745884 l 1,8,9
 285.500433725 1362.00739281 285.500433725 1362.00739281 493.045512185 1362.50199572 c 0,10,11
 695.410877345 1362.9842548 695.410877345 1362.9842548 930.387774763 1414.49333959 c 1,12,13
 934.628162466 861.374330916 934.628162466 861.374330916 1026.16611974 403.714382165 c 0,14,15
 1045.71735264 305.928807321 1045.71735264 305.928807321 1115.79196848 24.8017578125 c 1,16,-1
 965.347079564 24.8017578125 l 1,17,18
 911.796160783 234.574664792 911.796160783 234.574664792 878.435704738 410.311919541 c 128,-1,19
 845.075248692 586.049174291 845.075248692 586.049174291 831.699179389 728.550926234 c 0,20,21
 816.352035756 896.091551984 816.352035756 896.091551984 808.206643895 1017.54965932 c 128,-1,22
 800.061252034 1139.00776666 800.061252034 1139.00776666 799.136548602 1213.78703491 c 2,23,-1
 798.891746016 1233.58382331 l 1,24,-1
 779.899969994 1227.99050562 l 2,0,1
EndSplineSet
EndChar

StartChar: afii57399
Encoding: 1639 1639 66
Width: 1221
VWidth: 2510
GlyphClass: 2
Flags: W
LayerCount: 2
Fore
SplineSet
545.40011944 24.8017578125 m 1,0,1
 524.210769897 232.447707811 524.210769897 232.447707811 393.295918679 646.041663696 c 0,2,3
 264.278532267 1052.15320956 264.278532267 1052.15320956 106.540599919 1360.47999373 c 1,4,-1
 235.884106379 1405.20183536 l 1,5,6
 524.267040986 849.43276306 524.267040986 849.43276306 595.201774484 313.125924889 c 2,7,-1
 608.950492683 209.177813396 l 1,8,-1
 624.897762814 312.811406938 l 2,9,10
 635.104167272 379.137891813 635.104167272 379.137891813 648.386830578 445.975874969 c 128,-1,11
 661.669493885 512.813858125 661.669493885 512.813858125 678.020880377 580.131442776 c 128,-1,12
 694.37226687 647.449027426 694.37226687 647.449027426 713.793198939 715.262146772 c 128,-1,13
 733.214131009 783.075266117 733.214131009 783.075266117 755.698636634 851.360061998 c 128,-1,14
 778.183142259 919.64485788 778.183142259 919.64485788 803.730375948 988.408688962 c 128,-1,15
 829.277609636 1057.17252004 829.277609636 1057.17252004 857.88326725 1126.4001027 c 128,-1,16
 886.488924863 1195.62768536 886.488924863 1195.62768536 918.150493026 1265.31780373 c 128,-1,17
 949.812061189 1335.00792209 949.812061189 1335.00792209 984.526799404 1405.15333117 c 1,18,-1
 1114.97917516 1360.34248562 l 1,19,20
 951.983950151 1030.92796298 951.983950151 1030.92796298 825.691628171 631.002276714 c 0,21,22
 697.810834912 224.59324056 697.810834912 224.59324056 675.711913846 24.8017578125 c 1,23,-1
 545.40011944 24.8017578125 l 1,0,1
EndSplineSet
EndChar

StartChar: afii57400
Encoding: 1640 1640 67
Width: 1221
VWidth: 2510
GlyphClass: 2
Flags: W
LayerCount: 2
Fore
SplineSet
545.402779629 1408.61621094 m 1,0,-1
 675.708948547 1408.61621094 l 1,1,2
 697.810600542 1208.42054969 697.810600542 1208.42054969 825.694934743 802.405197096 c 0,3,4
 951.984016021 402.08058786 951.984016021 402.08058786 1114.97128114 73.0727715069 c 1,5,-1
 984.52316916 28.2633905825 l 1,6,7
 706.55835704 589.522284557 706.55835704 589.522284557 624.89802849 1120.60483464 c 2,8,-1
 608.950538446 1224.32023513 l 1,9,-1
 595.201578592 1120.29056224 l 2,10,11
 524.266986861 583.573424866 524.266986861 583.573424866 235.887821117 28.2148489778 c 1,12,-1
 106.549297127 72.9349678719 l 1,13,14
 264.278355909 380.855682654 264.278355909 380.855682654 393.299418221 787.387335402 c 0,15,16
 524.210971585 1200.56556186 524.210971585 1200.56556186 545.402779629 1408.61621094 c 1,0,-1
EndSplineSet
EndChar

StartChar: afii57401
Encoding: 1641 1641 68
Width: 1234
VWidth: 2510
GlyphClass: 2
Flags: W
LayerCount: 2
Fore
SplineSet
949.314699894 24.8017578125 m 1,0,1
 871.300568954 399.747542029 871.300568954 399.747542029 841.49956334 649.203138761 c 2,2,-1
 839.634051288 664.818800464 l 1,3,-1
 824.124039536 662.217154629 l 2,4,5
 679.743728362 637.998834156 679.743728362 637.998834156 587.01289062 637.914056961 c 0,6,7
 488.896604381 637.998375645 488.896604381 637.998375645 414.695326992 657.010477309 c 0,8,9
 291.053232451 689.396617096 291.053232451 689.396617096 213.678838163 773.380062481 c 0,10,11
 130.003760278 865.778406685 130.003760278 865.778406685 130.092771461 1002.30750585 c 0,12,13
 130.003191426 1176.78772594 130.003191426 1176.78772594 237.810480263 1284.52929694 c 0,14,15
 404.045434594 1452.7649197 404.045434594 1452.7649197 644.31737804 1406.86461632 c 0,16,17
 915.892205303 1354.4461776 915.892205303 1354.4461776 942.758349007 993.193526443 c 0,18,19
 980.373440129 494.73767848 980.373440129 494.73767848 1098.39753624 24.8017578125 c 1,20,-1
 949.314699894 24.8017578125 l 1,0,1
826.557948726 809.361601927 m 1,21,-1
 815.419499979 915.274597095 l 2,22,23
 797.303182671 1089.43484074 797.303182671 1089.43484074 728.494460832 1179.80569761 c 128,-1,24
 659.685738993 1270.17655448 659.685738993 1270.17655448 540.366582311 1270.37670482 c 0,25,26
 502.469500946 1270.59476539 502.469500946 1270.59476539 467.952333375 1261.92266308 c 128,-1,27
 433.435165803 1253.25056077 433.435165803 1253.25056077 402.577777552 1235.75331667 c 128,-1,28
 371.7203893 1218.25607257 371.7203893 1218.25607257 344.834110667 1192.08457958 c 0,29,30
 304.685379782 1152.96766178 304.685379782 1152.96766178 284.307710085 1105.68029051 c 128,-1,31
 263.930040388 1058.39291925 263.930040388 1058.39291925 263.851581224 1003.92161191 c 0,32,33
 264.011375942 902.788375662 264.011375942 902.788375662 341.437941011 840.752659915 c 0,34,35
 415.705089046 779.949044078 415.705089046 779.949044078 584.080042108 781.551971372 c 0,36,37
 612.722884289 781.70481578 612.722884289 781.70481578 647.719955247 784.595879431 c 128,-1,38
 682.717026205 787.486943083 682.717026205 787.486943083 723.851351969 793.067900243 c 128,-1,39
 764.985677734 798.648857404 764.985677734 798.648857404 812.74499955 806.958335112 c 2,40,-1
 826.557948726 809.361601927 l 1,21,-1
EndSplineSet
EndChar

StartChar: afii57381
Encoding: 1642 1642 69
Width: 1154
VWidth: 3432
GlyphClass: 2
Flags: W
LayerCount: 2
Fore
SplineSet
708.860351562 299.670898438 m 0,0,1
 708.860351562 314.179569966 708.860351562 314.179569966 711.347708286 327.517728604 c 128,-1,2
 713.83506501 340.855887242 713.83506501 340.855887242 718.846100526 353.142167013 c 128,-1,3
 723.857136041 365.428446785 723.857136041 365.428446785 731.375314895 376.668758692 c 128,-1,4
 738.893493748 387.9090706 738.893493748 387.9090706 748.988638062 398.244702032 c 0,5,6
 759.608852986 408.623427144 759.608852986 408.623427144 771.068976018 416.348320361 c 128,-1,7
 782.52909905 424.073213577 782.52909905 424.073213577 794.951635048 429.20696852 c 128,-1,8
 807.374171047 434.340723462 807.374171047 434.340723462 820.757473754 436.885693762 c 128,-1,9
 834.140776461 439.430664062 834.140776461 439.430664062 848.620117188 439.430664062 c 0,10,11
 854.148545485 439.430664062 854.148545485 439.430664062 859.488236217 439.0464418 c 128,-1,12
 864.827926949 438.662219538 864.827926949 438.662219538 870.007552596 437.891826533 c 128,-1,13
 875.187178243 437.121433528 875.187178243 437.121433528 880.210429617 435.958929411 c 128,-1,14
 885.233680992 434.796425295 885.233680992 434.796425295 890.113742755 433.24499896 c 128,-1,15
 894.993804517 431.693572625 894.993804517 431.693572625 899.750887822 429.741803838 c 128,-1,16
 904.507971126 427.790035052 904.507971126 427.790035052 909.138740292 425.446592571 c 128,-1,17
 913.769509458 423.103150089 913.769509458 423.103150089 918.309663458 420.351476308 c 0,18,19
 951.018511254 401.110821198 951.018511254 401.110821198 969.26537632 369.420341185 c 0,20,21
 988.37988281 337.879820523 988.37988281 337.879820523 988.37988281 299.670898438 c 0,22,23
 988.37988281 270.73368456 988.37988281 270.73368456 978.156106958 245.996801934 c 128,-1,24
 967.932331106 221.259919308 967.932331106 221.259919308 947.193920797 200.039416715 c 0,25,26
 926.531386008 179.857220671 926.531386008 179.857220671 902.06375779 169.884176741 c 128,-1,27
 877.596129572 159.911132812 877.596129572 159.911132812 848.620117188 159.911132812 c 0,28,29
 810.127495834 159.911132812 810.127495834 159.911132812 777.642861155 178.063974459 c 0,30,31
 745.162152808 197.170428802 745.162152808 197.170428802 727.047237366 228.63174359 c 0,32,33
 708.860351562 261.177300521 708.860351562 261.177300521 708.860351562 299.670898438 c 0,0,1
165.024415726 1126.92720171 m 0,34,35
 165.002346643 1184.84442222 165.002346643 1184.84442222 205.151725627 1225.50256715 c 0,36,37
 247.129080766 1266.96988652 247.129080766 1266.96988652 304.802893937 1266.68820626 c 0,38,39
 342.826740247 1266.96879584 342.826740247 1266.96879584 374.393080084 1247.65799452 c 0,40,41
 381.023027897 1243.68248298 381.023027897 1243.68248298 386.988801327 1239.3014182 c 128,-1,42
 392.954574758 1234.92035342 392.954574758 1234.92035342 398.320388095 1230.08695202 c 128,-1,43
 403.686201432 1225.25355063 403.686201432 1225.25355063 408.474906275 1219.9311911 c 128,-1,44
 413.263611117 1214.60883157 413.263611117 1214.60883157 417.49928206 1208.79422676 c 128,-1,45
 421.734953002 1202.97962195 421.734953002 1202.97962195 425.480581339 1196.59265411 c 0,46,47
 444.954040136 1164.84147593 444.954040136 1164.84147593 444.543365345 1126.95650661 c 0,48,49
 444.752023214 1097.70732017 444.752023214 1097.70732017 434.579238724 1073.0887996 c 128,-1,50
 424.406454233 1048.47027903 424.406454233 1048.47027903 403.415837229 1027.35409502 c 0,51,52
 395.034903625 1019.20571287 395.034903625 1019.20571287 386.14031888 1012.74914759 c 128,-1,53
 377.245734136 1006.29258231 377.245734136 1006.29258231 367.740654169 1001.46547842 c 128,-1,54
 358.235574202 996.63837452 358.235574202 996.63837452 348.091975499 993.457191911 c 128,-1,55
 337.948376797 990.276009303 337.948376797 990.276009303 327.128362791 988.706940421 c 128,-1,56
 316.308348785 987.13787154 316.308348785 987.13787154 304.72494845 987.168828367 c 0,57,58
 265.944728597 987.015693811 265.944728597 987.015693811 233.901140603 1005.26713737 c 0,59,60
 201.050217803 1024.87335758 201.050217803 1024.87335758 183.231759924 1055.85389413 c 0,61,62
 165.002251671 1088.86265307 165.002251671 1088.86265307 165.024415726 1126.92720171 c 0,34,35
859.035514539 1416.20533924 m 1,63,-1
 976.76417877 1355.55176203 l 1,64,-1
 298.22546633 46.1333407291 l 1,65,-1
 180.705946227 110.71581659 l 1,66,-1
 859.035514539 1416.20533924 l 1,63,-1
EndSplineSet
EndChar

StartChar: uni066B
Encoding: 1643 1643 70
Width: 700
VWidth: 2510
GlyphClass: 2
Flags: W
LayerCount: 2
Fore
SplineSet
455.565266053 692.982766572 m 1,0,-1
 554.227716309 651.098124106 l 1,1,-1
 165.89601715 -244.999046099 l 1,2,-1
 65.4133726463 -201.268550363 l 1,3,-1
 455.565266053 692.982766572 l 1,0,-1
EndSplineSet
EndChar

StartChar: uni066C
Encoding: 1644 1644 71
Width: 501
VWidth: 2417
GlyphClass: 2
Flags: W
LayerCount: 2
Fore
SplineSet
114.683129579 135.803265295 m 0,0,1
 114.983689723 165.73018157 114.983689723 165.73018157 122.788212752 187.432060528 c 128,-1,2
 130.59273578 209.133939486 130.59273578 209.133939486 146.713911269 223.668718981 c 128,-1,3
 162.835086758 238.203498475 162.835086758 238.203498475 187.56653643 245.263846937 c 128,-1,4
 212.297986102 252.324195399 212.297986102 252.324195399 246.547661904 252.42397428 c 0,5,6
 277.183660861 252.559216361 277.183660861 252.559216361 300.8092578 246.322901659 c 128,-1,7
 324.434854738 240.086586957 324.434854738 240.086586957 341.678030702 227.171318905 c 128,-1,8
 358.921206665 214.256050853 358.921206665 214.256050853 369.974582422 194.89586903 c 128,-1,9
 381.027958179 175.535687207 381.027958179 175.535687207 386.571743219 149.048540707 c 0,10,11
 398.620660918 90.3257748728 398.620660918 90.3257748728 376.554193818 1.96773949915 c 0,12,13
 352.279438848 -90.8093132249 352.279438848 -90.8093132249 298.044322458 -172.174730934 c 128,-1,14
 243.809206068 -253.540148643 243.809206068 -253.540148643 159.52002115 -323.610109913 c 1,15,-1
 127.565517039 -303.184522331 l 1,16,17
 270.096441375 -156.215720712 270.096441375 -156.215720712 281.359048549 -1.11074598465 c 2,18,-1
 282.555071469 15.3604939234 l 1,19,-1
 266.045049106 14.9714225811 l 2,20,21
 226.563653992 14.0410132181 226.563653992 14.0410132181 210.860661584 17.729956126 c 0,22,23
 160.867779959 27.8180325096 160.867779959 27.8180325096 137.618871352 56.4023051955 c 128,-1,24
 114.369962745 84.9865778814 114.369962745 84.9865778814 114.683129579 135.803265295 c 0,0,1
EndSplineSet
EndChar

StartChar: afii63167
Encoding: 1645 1645 72
Width: 1346
VWidth: 2510
GlyphClass: 2
Flags: W
LayerCount: 2
Fore
SplineSet
172.576171875 897.29296875 m 1,0,-1
 558.2265625 897.29296875 l 1,1,-1
 678.672851562 1264.01074219 l 1,2,-1
 799.120117188 897.29296875 l 1,3,-1
 1184.77050781 897.29296875 l 1,4,-1
 873.201171875 669.524414062 l 1,5,-1
 992.391601562 303.361328125 l 1,6,-1
 678.672851562 530.056640625 l 1,7,-1
 364.955078125 303.361328125 l 1,8,-1
 484.14453125 669.524414062 l 1,9,-1
 172.576171875 897.29296875 l 1,0,-1
EndSplineSet
EndChar

StartChar: uni066E
Encoding: 1646 1646 73
Width: 1785
VWidth: 2510
GlyphClass: 2
Flags: W
AnchorPoint: "Anchor-10" 872.464 1208.79 basechar 0
AnchorPoint: "Anchor-7" 872.464 -210.167 basechar 0
LayerCount: 2
Fore
SplineSet
878.660588127 168.250003762 m 0,0,1
 1516.7806746 169.017772857 1516.7806746 169.017772857 1521.96838402 520.799315345 c 0,2,3
 1522.94850506 594.05105287 1522.94850506 594.05105287 1502.93317905 696.840384164 c 1,4,-1
 1632.4203243 728.716004026 l 1,5,6
 1664.00985489 631.682473245 1664.00985489 631.682473245 1664.11720934 519.318153541 c 0,7,8
 1664.54551969 268.32070871 1664.54551969 268.32070871 1470.68798778 142.244001769 c 128,-1,9
 1276.83045587 16.1672948278 1276.83045587 16.1672948278 880.936902082 15.3495868615 c 0,10,11
 495.159131959 14.6811990583 495.159131959 14.6811990583 306.287542567 140.671223103 c 128,-1,12
 117.415953176 266.661247149 117.415953176 266.661247149 117.808575486 519.320342385 c 0,13,14
 117.983917412 631.682311315 117.983917412 631.682311315 149.513553173 728.714010993 c 1,15,-1
 279.001121858 696.838286895 l 1,16,17
 259.047841403 594.053890403 259.047841403 594.053890403 259.957128163 520.820547815 c 0,18,19
 264.178465424 167.993819436 264.178465424 167.993819436 878.660588127 168.250003762 c 0,0,1
EndSplineSet
Substitution2: "'init' Initial Forms in Arabic lookup 13 subtable" uni066E.init
Substitution2: "'medi' Medial Forms in Arabic lookup 11 subtable" uni066E.medi
Substitution2: "'fina' Terminal Forms in Arabic lookup 9 subtable" uni066E.fina
EndChar

StartChar: uni066F
Encoding: 1647 1647 74
Width: 1431
VWidth: 2510
GlyphClass: 2
Flags: W
AnchorPoint: "Anchor-10" 140.965 1201.87 basechar 0
AnchorPoint: "Anchor-7" 322.011 -674.755 basechar 0
LayerCount: 2
Fore
SplineSet
1165.44377623 136.780615458 m 1,0,-1
 1094.56959636 128.9838255 l 2,1,2
 1022.15130567 120.997345029 1022.15130567 120.997345029 976.592090091 120.851408066 c 0,3,4
 796.499511592 120.034185649 796.499511592 120.034185649 725.963699868 214.607602414 c 0,5,6
 691.633169079 260.902896776 691.633169079 260.902896776 681.511978892 322.847725212 c 128,-1,7
 671.390788705 384.792553648 671.390788705 384.792553648 685.820718278 465.220181466 c 0,8,9
 709.040441554 591.416430713 709.040441554 591.416430713 784.703013158 682.168975052 c 0,10,11
 800.949862876 701.750209365 800.949862876 701.750209365 818.505765799 717.312914081 c 128,-1,12
 836.061668723 732.875618798 836.061668723 732.875618798 854.974740861 744.483634069 c 128,-1,13
 873.887812999 756.091649341 873.887812999 756.091649341 894.26905529 763.790918613 c 128,-1,14
 914.650297581 771.490187885 914.650297581 771.490187885 936.456044947 775.327826601 c 128,-1,15
 958.261792314 779.165465317 958.261792314 779.165465317 981.694826779 779.20414163 c 0,16,17
 1146.0113582 779.58393872 1146.0113582 779.58393872 1227.60502994 649.608436711 c 128,-1,18
 1309.19870167 519.632934701 1309.19870167 519.632934701 1307.4435328 251.273300175 c 0,19,20
 1307.00648116 160.383887759 1307.00648116 160.383887759 1290.24226536 67.8744611793 c 0,21,22
 1248.67580372 -160.589215059 1248.67580372 -160.589215059 1099.70316807 -273.077071065 c 128,-1,23
 950.730532413 -385.564927071 950.730532413 -385.564927071 690.082272888 -384.176006879 c 0,24,25
 405.76495027 -382.616542938 405.76495027 -382.616542938 265.477497862 -244.420717085 c 128,-1,26
 125.190045454 -106.224891232 125.190045454 -106.224891232 124.410106498 172.791563512 c 0,27,28
 124.019258708 324.54194029 124.019258708 324.54194029 183.67074068 531.993838817 c 1,29,-1
 314.040579774 492.807765399 l 1,30,31
 267.008639063 306.117916009 267.008639063 306.117916009 267.390747886 179.527173416 c 0,32,33
 268.217490429 -24.7153577611 268.217490429 -24.7153577611 376.99700297 -129.979978062 c 128,-1,34
 485.776515512 -235.244598363 485.776515512 -235.244598363 697.843735339 -237.602701648 c 0,35,36
 913.12745264 -239.8455725 913.12745264 -239.8455725 1031.03293393 -150.315465041 c 128,-1,37
 1148.93841523 -60.7853575828 1148.93841523 -60.7853575828 1163.9274182 118.630103578 c 2,38,-1
 1165.44377623 136.780615458 l 1,0,-1
1087.67366865 268.751301199 m 2,39,-1
 1164.92819998 279.864525938 l 1,40,-1
 1163.93871345 301.853097191 l 2,41,42
 1149.31342375 624.485616463 1149.31342375 624.485616463 969.921820008 618.503767566 c 0,43,44
 943.089862173 617.629769782 943.089862173 617.629769782 918.510657789 603.500668473 c 128,-1,45
 893.931453404 589.371567164 893.931453404 589.371567164 872.19602559 563.316093529 c 0,46,47
 837.700396756 523.050924918 837.700396756 523.050924918 821.664237214 476.097632634 c 128,-1,48
 805.628077671 429.14434035 805.628077671 429.14434035 808.531553163 376.732515774 c 0,49,50
 814.795977201 263.155154611 814.795977201 263.155154611 990.579891692 261.226777248 c 0,51,52
 1034.03916729 260.994224616 1034.03916729 260.994224616 1087.67366865 268.751301199 c 2,39,-1
EndSplineSet
Substitution2: "'init' Initial Forms in Arabic lookup 13 subtable" uni066F.init
Substitution2: "'medi' Medial Forms in Arabic lookup 11 subtable" uni066F.medi
Substitution2: "'fina' Terminal Forms in Arabic lookup 9 subtable" uni066F.fina
EndChar

StartChar: uni0670
Encoding: 1648 1648 75
Width: -28
VWidth: 2417
GlyphClass: 4
Flags: W
AnchorPoint: "Anchor-10" 597.995 1412.51 mark 0
AnchorPoint: "Anchor-9" 597.995 1412.51 mark 0
AnchorPoint: "Anchor-1" 597.995 1963.18 basemark 0
AnchorPoint: "Anchor-1" 597.995 1412.51 mark 0
LayerCount: 2
Fore
SplineSet
553.356445312 1472.27539062 m 1,0,-1
 553.356445312 1903.4140625 l 1,1,-1
 642.633789062 1903.4140625 l 1,2,-1
 642.633789062 1472.27539062 l 1,3,-1
 553.356445312 1472.27539062 l 1,0,-1
EndSplineSet
EndChar

StartChar: uni0674
Encoding: 1652 1652 76
Width: 705
VWidth: 2510
GlyphClass: 2
Flags: W
LayerCount: 2
Fore
SplineSet
234.34656179 1780.83618118 m 2,0,1
 211.916066438 1797.02014951 211.916066438 1797.02014951 195.236916883 1815.22284469 c 128,-1,2
 178.557767328 1833.42553988 178.557767328 1833.42553988 167.534136197 1853.66218786 c 128,-1,3
 156.526885969 1873.86876457 156.526885969 1873.86876457 151.028579704 1896.25888453 c 128,-1,4
 145.530273438 1918.64900448 145.530273438 1918.64900448 145.530273438 1943.38964844 c 0,5,6
 145.530273438 2047.41447648 145.530273438 2047.41447648 213.532030059 2107.08558041 c 0,7,8
 281.768713542 2166.96350989 281.768713542 2166.96350989 372.590332039 2167.27393746 c 0,9,10
 387.780316466 2167.32585671 387.780316466 2167.32585671 402.47116537 2166.23592175 c 128,-1,11
 417.162014273 2165.1459868 417.162014273 2165.1459868 431.332031063 2162.91936298 c 128,-1,12
 445.502047853 2160.69273916 445.502047853 2160.69273916 459.183638895 2157.32808597 c 0,13,14
 499.217710215 2147.48268383 499.217710215 2147.48268383 535.651367188 2127.50255811 c 1,15,-1
 535.651367188 2011.59117651 l 1,16,17
 390.31459807 2076.29104803 390.31459807 2076.29104803 305.974583003 2027.4012392 c 0,18,19
 298.566514306 2023.10730615 298.566514306 2023.10730615 292.261626313 2018.20729454 c 128,-1,20
 285.95673832 2013.30728293 285.95673832 2013.30728293 280.698936127 2007.72003147 c 128,-1,21
 275.441133934 2002.13278 275.441133934 2002.13278 271.353219483 1995.94214817 c 0,22,23
 259.095684097 1977.37965386 259.095684097 1977.37965386 256.979263435 1953.14568393 c 0,24,25
 252.875433779 1906.15523754 252.875433779 1906.15523754 282.64969348 1872.93428584 c 0,26,27
 292.45224003 1861.9969887 292.45224003 1861.9969887 306.089646382 1852.59555826 c 128,-1,28
 319.727052734 1843.19412782 319.727052734 1843.19412782 336.761432756 1835.47866835 c 128,-1,29
 353.795812777 1827.76320888 353.795812777 1827.76320888 374.497938552 1821.49195406 c 0,30,31
 391.325255217 1815.78158178 391.325255217 1815.78158178 440.197288133 1821.74447148 c 0,32,33
 486.687246696 1827.41672367 486.687246696 1827.41672367 561.563476562 1844.05005591 c 1,34,-1
 561.563476562 1723.24432704 l 1,35,-1
 143.063476562 1629.28883285 l 1,36,-1
 143.063476562 1747.85718592 l 1,37,-1
 246.859347806 1771.80800194 l 1,38,-1
 234.34656179 1780.83618118 l 2,0,1
EndSplineSet
EndChar

StartChar: uni06A1
Encoding: 1697 1697 80
Width: 1802
VWidth: 2510
GlyphClass: 2
Flags: W
AnchorPoint: "Anchor-10" 586.985 1409.19 basechar 0
AnchorPoint: "Anchor-7" 571.995 -290.748 basechar 0
LayerCount: 2
Fore
SplineSet
1609.88251362 209.841195085 m 0,0,1
 1537.99377217 111.113990164 1537.99377217 111.113990164 1344.79461856 59.2805351464 c 0,2,3
 1264.41333436 37.2835863067 1264.41333436 37.2835863067 1143.18992748 26.2297471877 c 128,-1,4
 1021.9665206 15.1759080687 1021.9665206 15.1759080687 860.975744818 15.3496038673 c 0,5,6
 485.258662546 15.6715733219 485.258662546 15.6715733219 301.337219531 141.595348873 c 128,-1,7
 117.415776516 267.519124423 117.415776516 267.519124423 117.808575486 519.320342385 c 0,8,9
 117.983917412 631.682311315 117.983917412 631.682311315 149.513553173 728.714010993 c 1,10,-1
 279.001121858 696.838286895 l 1,11,12
 259.047841186 594.053889284 259.047841186 594.053889284 259.957134542 520.820015392 c 0,13,14
 262.078272181 344.056155105 262.078272181 344.056155105 414.908401359 256.342753691 c 128,-1,15
 567.738530537 168.629352276 567.738530537 168.629352276 863.256478287 168.250014512 c 0,16,17
 1043.42522625 167.999393984 1043.42522625 167.999393984 1069.41117139 169.51072502 c 0,18,19
 1213.93432831 178.088409138 1213.93432831 178.088409138 1322.94392478 200.043572791 c 0,20,21
 1417.56243313 219.302354653 1417.56243313 219.302354653 1475.71861726 264.023024102 c 128,-1,22
 1533.87480138 308.743693551 1533.87480138 308.743693551 1552.79975811 378.7639927 c 2,23,-1
 1558.70846548 400.625572817 l 1,24,-1
 1481.52243449 390.001475915 l 2,25,26
 1422.96865808 381.998495964 1422.96865808 381.998495964 1363.9268366 381.916813758 c 0,27,28
 1183.52095348 381.036862771 1183.52095348 381.036862771 1113.27127644 475.716381498 c 0,29,30
 1097.54837559 496.760094583 1097.54837559 496.760094583 1086.90197144 521.097092096 c 128,-1,31
 1076.25556729 545.434089609 1076.25556729 545.434089609 1070.62553969 573.491760707 c 128,-1,32
 1064.9955121 601.549431806 1064.9955121 601.549431806 1064.52477929 633.152749358 c 0,33,34
 1064.2713625 679.457365642 1064.2713625 679.457365642 1074.60459846 729.084557617 c 128,-1,35
 1084.93783441 778.711749592 1084.93783441 778.711749592 1105.93155333 831.44015991 c 0,36,37
 1189.16990402 1040.01441797 1189.16990402 1040.01441797 1369.03489491 1040.26957184 c 0,38,39
 1519.80178411 1040.62030592 1519.80178411 1040.62030592 1599.4901118 917.341081153 c 128,-1,40
 1679.17843949 794.061856388 1679.17843949 794.061856388 1686.98420057 539.521373105 c 0,41,42
 1693.84283928 324.683479612 1693.84283928 324.683479612 1609.88251362 209.841195085 c 0,0,1
1475.0157511 529.817052927 m 2,43,-1
 1552.26804373 540.929955625 l 1,44,-1
 1551.27779291 562.935182499 l 2,45,46
 1536.35350432 884.267749174 1536.35350432 884.267749174 1367.3333713 879.571361339 c 0,47,48
 1352.57569484 879.161305028 1352.57569484 879.161305028 1338.86127372 876.181126332 c 128,-1,49
 1325.1468526 873.200947637 1325.1468526 873.200947637 1312.71916093 867.763400385 c 128,-1,50
 1300.29146927 862.325853134 1300.29146927 862.325853134 1288.95942092 854.45425454 c 128,-1,51
 1277.62737258 846.582655946 1277.62737258 846.582655946 1267.56960745 836.413166227 c 128,-1,52
 1257.51184231 826.243676507 1257.51184231 826.243676507 1248.60643078 813.774646062 c 128,-1,53
 1239.70101924 801.305615617 1239.70101924 801.305615617 1232.05744466 786.698171476 c 128,-1,54
 1224.41387009 772.090727335 1224.41387009 772.090727335 1217.97503711 755.319813512 c 0,55,56
 1194.97239271 694.676478275 1194.97239271 694.676478275 1195.51579086 640.929460731 c 0,57,58
 1195.70323713 601.069917804 1195.70323713 601.069917804 1218.01522549 574.358165713 c 128,-1,59
 1240.32721384 547.646413623 1240.32721384 547.646413623 1280.45099673 535.090892152 c 128,-1,60
 1320.57477961 522.53537068 1320.57477961 522.53537068 1377.8957196 522.292354672 c 0,61,62
 1421.02949046 521.992480288 1421.02949046 521.992480288 1475.0157511 529.817052927 c 2,43,-1
EndSplineSet
Substitution2: "'init' Initial Forms in Arabic lookup 13 subtable" uni06A1.init
Substitution2: "'medi' Medial Forms in Arabic lookup 11 subtable" uni06A1.medi
Substitution2: "'fina' Terminal Forms in Arabic lookup 9 subtable" uni06A1.fina
EndChar

StartChar: uni06A9
Encoding: 1705 1705 81
Width: 1857
VWidth: 2510
GlyphClass: 2
Flags: W
AnchorPoint: "Anchor-10" 436.442 1382.73 basechar 0
AnchorPoint: "Anchor-7" 555.216 -298.591 basechar 0
LayerCount: 2
Fore
SplineSet
860.957026907 15.3496226637 m 1,0,1
 485.24547002 14.6815216989 485.24547002 14.6815216989 301.330595459 140.596647019 c 128,-1,2
 117.415720898 266.511772339 117.415720898 266.511772339 117.808575486 519.320342385 c 0,3,4
 117.983917412 631.682311315 117.983917412 631.682311315 149.513553173 728.714010993 c 1,5,-1
 279.001121858 696.838286895 l 1,6,7
 268.81949051 644.390127515 268.81949051 644.390127515 264.15621075 601.307532982 c 128,-1,8
 259.49293099 558.224938449 259.49293099 558.224938449 259.958466468 520.731024917 c 0,9,10
 266.266265633 169.018987716 266.266265633 169.018987716 863.28396416 168.250001461 c 2,11,-1
 1164.12662341 168.382960957 l 2,12,13
 1489.3153258 166.936161102 1489.3153258 166.936161102 1497.25149711 337.500926729 c 0,14,15
 1498.06476672 355.050200336 1498.06476672 355.050200336 1494.66455874 373.168589057 c 0,16,17
 1486.64446214 420.506675483 1486.64446214 420.506675483 1451.45944562 473.962821894 c 128,-1,18
 1416.27442911 527.418968304 1416.27442911 527.418968304 1353.76495003 587.292517187 c 128,-1,19
 1291.25547095 647.16606607 1291.25547095 647.16606607 1203.63555062 712.84226165 c 128,-1,20
 1116.01563029 778.518457229 1116.01563029 778.518457229 1000.69496394 852.310023193 c 0,21,22
 920.966507139 903.238834495 920.966507139 903.238834495 920.50086804 1017.35686303 c 0,23,24
 920.040024012 1138.50673922 920.040024012 1138.50673922 1035.99155448 1180.65432741 c 2,25,-1
 1769 1448.1911425 l 1,26,-1
 1769 1297.58941051 l 1,27,-1
 1026.85637015 1033.92479863 l 1,28,-1
 1049.8449761 1017.18478393 l 2,29,30
 1139.88967164 951.615365337 1139.88967164 951.615365337 1212.13990344 897.448081271 c 128,-1,31
 1284.39013525 843.280797205 1284.39013525 843.280797205 1338.72231007 800.611815014 c 0,32,33
 1476.77162006 691.948057088 1476.77162006 691.948057088 1549.58129616 591.386429485 c 128,-1,34
 1622.39097226 490.824801883 1622.39097226 490.824801883 1630.90296885 399.753241285 c 0,35,36
 1642.60233955 272.632043369 1642.60233955 272.632043369 1589.37887239 186.808702905 c 0,37,38
 1481.53015967 14.7312845296 1481.53015967 14.7312845296 1211.85088347 14.9999925539 c 2,39,-1
 860.957026907 15.3496226637 l 1,0,1
EndSplineSet
Substitution2: "'init' Initial Forms in Arabic lookup 13 subtable" uniFB90
Substitution2: "'medi' Medial Forms in Arabic lookup 11 subtable" uniFB91
Substitution2: "'fina' Terminal Forms in Arabic lookup 9 subtable" uniFB8F
EndChar

StartChar: afii57514
Encoding: 1722 1722 83
Width: 1386
VWidth: 2510
GlyphClass: 2
Flags: W
AnchorPoint: "Anchor-10" 679.275 1015.7 basechar 0
AnchorPoint: "Anchor-7" 705.188 -613.792 basechar 0
LayerCount: 2
Fore
SplineSet
268.390720478 152.533620754 m 0,0,1
 269.218315388 -43.6917436408 269.218315388 -43.6917436408 373.039011359 -143.992811024 c 128,-1,2
 476.85970733 -244.293878407 476.85970733 -244.293878407 678.95059634 -244.603434267 c 0,3,4
 895.830098227 -245.317747559 895.830098227 -245.317747559 1006.37990653 -144.259716612 c 128,-1,5
 1116.92971483 -43.2016856641 1116.92971483 -43.2016856641 1115.79375594 156.075373603 c 0,6,7
 1115.01381108 311.289197721 1115.01381108 311.289197721 1041.14159573 523.798535579 c 1,8,-1
 1175.14499881 570.616551127 l 1,9,10
 1256.98332593 344.236270544 1256.98332593 344.236270544 1256.61048969 126.283123995 c 0,11,12
 1256.31194541 56.7189622867 1256.31194541 56.7189622867 1241.86274261 -7.84073547644 c 128,-1,13
 1227.41353981 -72.4004332395 1227.41353981 -72.4004332395 1198.73941593 -132.38482276 c 0,14,15
 1186.58168177 -158.106027914 1186.58168177 -158.106027914 1171.67865874 -181.247329349 c 128,-1,16
 1156.7756357 -204.388630784 1156.7756357 -204.388630784 1139.04655094 -225.052544562 c 128,-1,17
 1121.31746618 -245.716458341 1121.31746618 -245.716458341 1100.7750509 -263.792011437 c 128,-1,18
 1080.23263563 -281.867564533 1080.23263563 -281.867564533 1056.83280188 -297.431234706 c 128,-1,19
 1033.43296813 -312.994904878 1033.43296813 -312.994904878 1007.14931657 -325.963493291 c 128,-1,20
 980.865665022 -338.932081704 980.865665022 -338.932081704 951.693238236 -349.354291927 c 128,-1,21
 922.520811449 -359.776502151 922.520811449 -359.776502151 890.394079574 -367.596909536 c 128,-1,22
 858.267347699 -375.417316922 858.267347699 -375.417316922 823.220483836 -380.656850852 c 128,-1,23
 788.173619973 -385.896384782 788.173619973 -385.896384782 750.101963731 -388.527394797 c 128,-1,24
 712.03030749 -391.158404812 712.03030749 -391.158404812 671.004716849 -391.175781992 c 0,25,26
 487.97494479 -391.118227068 487.97494479 -391.118227068 367.140498063 -331.965873176 c 128,-1,27
 246.306051336 -272.813519284 246.306051336 -272.813519284 186.118130872 -153.761625329 c 128,-1,28
 125.930210407 -34.7097313732 125.930210407 -34.7097313732 125.410106498 145.791563512 c 0,29,30
 125.215654462 221.289418295 125.215654462 221.289418295 140.134618988 311.64135329 c 128,-1,31
 155.053583514 401.993288285 155.053583514 401.993288285 184.825471757 505.531952112 c 1,32,-1
 316.749966511 471.244843993 l 1,33,34
 268.009512274 278.825992778 268.009512274 278.825992778 268.390720478 152.533620754 c 0,0,1
EndSplineSet
Substitution2: "'init' Initial Forms in Arabic lookup 13 subtable" uni06BA.init
Substitution2: "'medi' Medial Forms in Arabic lookup 11 subtable" uni06BA.medi
Substitution2: "'fina' Terminal Forms in Arabic lookup 9 subtable" uniFB9F
EndChar

StartChar: uni06F4
Encoding: 1780 1780 90
Width: 1209
VWidth: 2510
GlyphClass: 2
Flags: W
LayerCount: 2
Fore
SplineSet
438.33749627 826.835986037 m 2,0,1
 518.546129286 455.137442791 518.546129286 455.137442791 527.064865259 24.8017578125 c 1,2,-1
 393.605268488 24.8017578125 l 1,3,4
 378.457376926 743.819271469 378.457376926 743.819271469 136.037414615 1359.84857649 c 1,5,-1
 266.88569575 1404.61374876 l 1,6,7
 333.597312517 1229.00988874 333.597312517 1229.00988874 382.562374478 1038.78041243 c 2,8,-1
 401.294800783 966.004855668 l 1,9,-1
 417.05036177 1076.13125187 l 2,10,11
 442.694973454 1256.20464442 442.694973454 1256.20464442 552.182011756 1340.55709773 c 128,-1,12
 661.669050058 1424.90955104 661.669050058 1424.90955104 859.689781009 1416.21335382 c 0,13,14
 903.294722022 1414.319 903.294722022 1414.319 941.192991425 1407.95824988 c 128,-1,15
 979.091260828 1401.59749976 979.091260828 1401.59749976 1010.23535156 1391.15078859 c 1,16,-1
 1010.23535156 1250.87783729 l 1,17,18
 933.53793272 1269.99542162 933.53793272 1269.99542162 843.999438308 1269.95214669 c 0,19,20
 742.182366155 1270.00136376 742.182366155 1270.00136376 673.506472982 1243.21955386 c 0,21,22
 551.643834916 1195.2568369 551.643834916 1195.2568369 515.408995089 1070.14744823 c 0,23,24
 497.844568524 1009.099034 497.844568524 1009.099034 528.303941508 955.203425418 c 0,25,26
 543.448799655 929.284666685 543.448799655 929.284666685 571.396866313 910.005652161 c 128,-1,27
 599.344932972 890.726637637 599.344932972 890.726637637 639.840681889 877.212723978 c 0,28,29
 678.808896543 864.582492509 678.808896543 864.582492509 720.646442218 858.327923638 c 128,-1,30
 762.483987894 852.073354766 762.483987894 852.073354766 807.153024044 852.150412619 c 0,31,32
 892.012964706 852.005093191 892.012964706 852.005093191 1072.91451349 878.049616281 c 1,33,-1
 1074.83456397 733.731492964 l 1,34,35
 620.731040507 647.20252053 620.731040507 647.20252053 464.645235997 839.454548037 c 2,36,-1
 425.105224598 888.156269394 l 1,37,-1
 438.33749627 826.835986037 l 2,0,1
EndSplineSet
EndChar

StartChar: uni06F5
Encoding: 1781 1781 91
Width: 1334
VWidth: 2510
GlyphClass: 2
Flags: W
LayerCount: 2
Fore
SplineSet
418.5 169 m 0,0,1
 565.930167498 169 565.930167498 169 624.235765308 436.000454799 c 1,2,-1
 718.309497547 435.920836764 l 1,3,4
 742.275604721 303.30421154 742.275604721 303.30421154 792.789320435 234.615510846 c 128,-1,5
 843.303036149 165.926810153 843.303036149 165.926810153 922.336553145 165.840830193 c 0,6,7
 997.782824536 165.927428523 997.782824536 165.927428523 1036.71557113 211.708116882 c 128,-1,8
 1075.64831772 257.488805242 1075.64831772 257.488805242 1075.25483409 343.038232297 c 0,9,10
 1074.9946109 445.13346151 1074.9946109 445.13346151 1052.48397877 523.381844966 c 0,11,12
 964.266718466 840.275186773 964.266718466 840.275186773 645.646035742 1123.63829883 c 2,13,-1
 634.362343826 1133.6733726 l 1,14,-1
 624.402824058 1122.32293759 l 2,15,16
 382.244317458 846.345334727 382.244317458 846.345334727 288.42884008 524.059587098 c 0,17,18
 280.289687224 496.099030517 280.289687224 496.099030517 274.888528595 468.061480354 c 128,-1,19
 269.487369966 440.023930192 269.487369966 440.023930192 266.823069374 411.871117437 c 128,-1,20
 264.158768781 383.718304683 264.158768781 383.718304683 264.241357656 355.490296795 c 0,21,22
 264.639907273 265.381151904 264.639907273 265.381151904 303.744559148 217.190575952 c 128,-1,23
 342.849211022 169 342.849211022 169 418.5 169 c 0,0,1
657.625396921 195.603661914 m 2,24,25
 592.644505581 16.4417713136 592.644505581 16.4417713136 382.341287257 25.154493605 c 0,26,27
 247.476597846 31.2760444678 247.476597846 31.2760444678 184.704379635 117.413841546 c 128,-1,28
 121.932161424 203.551638624 121.932161424 203.551638624 129.501409692 376.15612854 c 0,29,30
 146.763486219 759.411252707 146.763486219 759.411252707 522.431212507 1225.15395774 c 2,31,-1
 531.179418609 1235.99974749 l 1,32,-1
 483.441269954 1280.68588411 l 1,33,-1
 580.037586702 1398.72476837 l 1,34,-1
 680.958409485 1302.99009773 l 1,35,36
 1210.99608195 806.501416728 1210.99608195 806.501416728 1210.72070817 351.212295593 c 0,37,38
 1210.98771698 25.9563630006 1210.98771698 25.9563630006 932.263531622 25.1462260583 c 0,39,40
 838.78978028 24.5976448541 838.78978028 24.5976448541 777.909019611 66.7250403373 c 128,-1,41
 717.028258942 108.85243582 717.028258942 108.85243582 685.841426974 195.565733054 c 2,42,-1
 671.785919774 234.646309589 l 1,43,-1
 657.625396921 195.603661914 l 2,24,25
EndSplineSet
EndChar

StartChar: uni06F6
Encoding: 1782 1782 92
Width: 1059
VWidth: 2510
GlyphClass: 2
Flags: W
LayerCount: 2
Fore
SplineSet
482.033773572 668.348681494 m 2,0,1
 304.875512239 698.373119338 304.875512239 698.373119338 218.838963003 786.809308901 c 128,-1,2
 132.802413767 875.245498464 132.802413767 875.245498464 133.549622832 1024.501333 c 0,3,4
 133.983110258 1112.53313201 133.983110258 1112.53313201 169.431829465 1185.94702944 c 0,5,6
 280.283427286 1410.90395203 280.283427286 1410.90395203 606.172528288 1407.55958219 c 0,7,8
 649.319536874 1407.06422685 649.319536874 1407.06422685 719.966160459 1396.28346804 c 1,9,-1
 699.969462449 1259.21199547 l 1,10,11
 657.869344927 1263.04423868 657.869344927 1263.04423868 608.484750375 1263.31160377 c 0,12,13
 527.616481706 1263.15161061 527.616481706 1263.15161061 465.280797831 1246.86760208 c 128,-1,14
 402.945113957 1230.58359355 402.945113957 1230.58359355 358.908598332 1197.41527671 c 0,15,16
 271 1130.42852276 271 1130.42852276 271 1017 c 0,17,18
 271 973.717238845 271 973.717238845 286.502712453 937.389627712 c 128,-1,19
 302.005424905 901.062016579 302.005424905 901.062016579 332.180775446 872.646023795 c 128,-1,20
 362.356125987 844.230031012 362.356125987 844.230031012 406.745220158 823.73837202 c 0,21,22
 497.873832514 781.930977185 497.873832514 781.930977185 596.094515646 783.995499962 c 2,23,-1
 599.403698633 784.065056428 l 1,24,-1
 602.376316143 785.520760821 l 2,25,26
 793.140140989 878.938678471 793.140140989 878.938678471 941.647713136 928.733160423 c 1,27,-1
 947.571278783 785.087297518 l 1,28,29
 485.845798721 602.387188654 485.845798721 602.387188654 287.460164314 28.762393164 c 1,30,-1
 157.152795745 72.4043419924 l 1,31,32
 282.381754997 428.387838564 282.381754997 428.387838564 490.303583793 643.125364519 c 2,33,-1
 510.117768951 663.589060536 l 1,34,-1
 482.033773572 668.348681494 l 2,0,1
EndSplineSet
EndChar

StartChar: uniFB8F
Encoding: 64399 64399 107
Width: 1915
VWidth: 2510
GlyphClass: 2
Flags: W
AnchorPoint: "Anchor-10" 489.487 1350.62 basechar 0
AnchorPoint: "Anchor-7" 578.279 -245.914 basechar 0
LayerCount: 2
Fore
SplineSet
1049.84788753 1017.1826644 m 2,0,1
 1350.40264502 798.432857682 1350.40264502 798.432857682 1431.75894124 721.692384099 c 0,2,3
 1601.48676065 563.097587529 1601.48676065 563.097587529 1647.49940983 374.272444547 c 0,4,5
 1672.02277926 274.550742862 1672.02277926 274.550742862 1732.4957348 222.529773184 c 128,-1,6
 1792.96869035 170.508803506 1792.96869035 170.508803506 1886.79242939 169.393637547 c 2,7,-1
 1919.51147546 169.004746987 l 1,8,9
 1930.11425781 158.102837439 1930.11425781 158.102837439 1930.11425781 99 c 2,10,-1
 1930.11427202 83.0206489822 l 2,11,12
 1930.09314492 67.6733448856 1930.09314492 67.6733448856 1928.93737061 54.6494819923 c 128,-1,13
 1927.78159631 41.625619099 1927.78159631 41.625619099 1926.04903361 33.6915019763 c 128,-1,14
 1924.31647091 25.7573848536 1924.31647091 25.7573848536 1922.64910609 21.0644398599 c 128,-1,15
 1920.98174127 16.3714948662 1920.98174127 16.3714948662 1919.57890252 15 c 2,16,-1
 1895.37597656 15 l 2,17,18
 1789.52090562 15 1789.52090562 15 1717.77432046 52.8553653149 c 128,-1,19
 1646.0277353 90.7107306297 1646.0277353 90.7107306297 1605.83032887 166.774202982 c 2,20,-1
 1595.03251947 187.206339009 l 1,21,-1
 1580.76722952 169.024854668 l 2,22,23
 1460.49844103 15.7391449721 1460.49844103 15.7391449721 1211.16212915 15.5771452714 c 2,24,-1
 860.936217241 15.3495856593 l 2,25,26
 485.232672747 14.6814989424 485.232672747 14.6814989424 301.324196376 140.596348322 c 128,-1,27
 117.415720005 266.511197701 117.415720005 266.511197701 117.808575486 519.320342385 c 0,28,29
 117.983917412 631.682311315 117.983917412 631.682311315 149.513553173 728.714010993 c 1,30,-1
 279.001121858 696.838286895 l 1,31,32
 268.81949051 644.390127515 268.81949051 644.390127515 264.15621075 601.307532982 c 128,-1,33
 259.49293099 558.224938449 259.49293099 558.224938449 259.958466468 520.731024917 c 0,34,35
 266.266264244 169.019065168 266.266264244 169.019065168 863.312762893 168.250041817 c 2,36,-1
 1163.57593258 168.959050926 l 2,37,38
 1250.21747558 169.217143245 1250.21747558 169.217143245 1313.99435302 180.743225444 c 0,39,40
 1414.59340796 198.923999153 1414.59340796 198.923999153 1461.29327667 247.774071962 c 128,-1,41
 1507.99314537 296.624144772 1507.99314537 296.624144772 1493.98363367 373.84249661 c 0,42,43
 1458.58232559 572.273911081 1458.58232559 572.273911081 999.870119818 852.992564949 c 0,44,45
 960.403621668 877.212608581 960.403621668 877.212608581 940.701810834 918.138036886 c 128,-1,46
 921 959.063465191 921 959.063465191 921 1018.90625 c 0,47,48
 921 1138.68417763 921 1138.68417763 1035.99155448 1180.65432741 c 2,49,-1
 1769 1448.1911425 l 1,50,-1
 1769 1297.58941051 l 1,51,-1
 1026.84857328 1033.9220286 l 1,52,-1
 1049.84788753 1017.1826644 l 2,0,1
EndSplineSet
EndChar

StartChar: uniFB9F
Encoding: 64415 64415 115
Width: 1465
VWidth: 2510
GlyphClass: 2
Flags: W
AnchorPoint: "Anchor-10" 557.731 787.311 basechar 0
AnchorPoint: "Anchor-7" 466.003 -688.148 basechar 0
LayerCount: 2
Fore
SplineSet
1234.18707936 323.164679065 m 2,0,1
 1284.05513662 169 1284.05513662 169 1453.78222656 169 c 2,2,-1
 1469.72321314 169 l 2,3,4
 1471.64999625 167.247227386 1471.64999625 167.247227386 1473.87370171 160.386572861 c 128,-1,5
 1476.09740718 153.525918337 1476.09740718 153.525918337 1478.1058325 138.036300128 c 128,-1,6
 1480.11425781 122.546681919 1480.11425781 122.546681919 1480.11425781 103 c 2,7,-1
 1480.11427202 83.0206489822 l 2,8,9
 1479.88693963 26.3353399393 1479.88693963 26.3353399393 1469.57890252 15 c 1,10,-1
 1449.03027344 15 l 2,11,12
 1344.93451674 15 1344.93451674 15 1281.87300639 74.1584902069 c 2,13,-1
 1256.75827525 97.7188135831 l 1,14,-1
 1256.61048969 63.2831239949 l 2,15,16
 1256.46116047 28.4877422658 1256.46116047 28.4877422658 1252.77553716 -5.03271663808 c 128,-1,17
 1249.08991386 -38.5531755419 1249.08991386 -38.5531755419 1241.85665223 -70.8656233104 c 128,-1,18
 1234.6233906 -103.178071079 1234.6233906 -103.178071079 1223.85012359 -134.28495342 c 128,-1,19
 1213.07685658 -165.391835761 1213.07685658 -165.391835761 1198.73941593 -195.38482276 c 0,20,21
 1168.29682741 -259.789921162 1168.29682741 -259.789921162 1120.56937016 -308.08769322 c 128,-1,22
 1072.84191291 -356.385465278 1072.84191291 -356.385465278 1007.20007814 -388.931707109 c 128,-1,23
 941.558243372 -421.47794894 941.558243372 -421.47794894 857.497677591 -437.80516067 c 128,-1,24
 773.43711181 -454.132372399 773.43711181 -454.132372399 671.004716052 -454.175752282 c 0,25,26
 396.725792994 -454.089518037 396.725792994 -454.089518037 261.457697747 -320.910446298 c 128,-1,27
 126.189602499 -187.731374558 126.189602499 -187.731374558 125.410106498 82.7915635119 c 0,28,29
 125.215654462 158.289418294 125.215654462 158.289418294 140.134618988 248.64135329 c 128,-1,30
 155.053583514 338.993288285 155.053583514 338.993288285 184.825471757 442.531952112 c 1,31,-1
 316.749966511 408.244843993 l 1,32,33
 268.009522931 215.82603485 268.009522931 215.82603485 268.390758408 89.5246275842 c 0,34,35
 269.218341827 -106.698012429 269.218341827 -106.698012429 373.038725079 -206.995999992 c 128,-1,36
 476.85910833 -307.293987555 476.85910833 -307.293987555 678.950604333 -307.603660238 c 0,37,38
 895.830104951 -308.317857953 895.830104951 -308.317857953 1006.37990988 -207.25977086 c 128,-1,39
 1116.92971482 -106.201683767 1116.92971482 -106.201683767 1115.79375594 93.0753736031 c 0,40,41
 1115.01381108 248.289197721 1115.01381108 248.289197721 1041.14159573 460.798535579 c 1,42,-1
 1174.58520808 507.420971835 l 1,43,-1
 1234.18707936 323.164679065 l 2,0,1
EndSplineSet
EndChar

StartChar: uniFBE8
Encoding: 64488 64488 118
Width: 669
VWidth: 2510
GlyphClass: 2
Flags: W
AnchorPoint: "Anchor-10" 329.875 1200.71 basechar 0
AnchorPoint: "Anchor-7" 321.046 -411.391 basechar 0
LayerCount: 2
Fore
SplineSet
-5.8857421875 15 m 2,0,1
 -37.0672651968 15 -37.0672651968 15 -51.0336325984 30.6370793819 c 128,-1,2
 -65 46.2741587639 -65 46.2741587639 -65 83 c 2,3,-1
 -65 99 l 2,4,5
 -65 136.831283504 -65 136.831283504 -50.9570897605 152.915641752 c 128,-1,6
 -36.9141795211 169 -36.9141795211 169 -5.8857421875 169 c 2,7,-1
 112.87890625 169 l 2,8,9
 273.688249243 169 273.688249243 169 341.555738475 244.541610697 c 0,10,11
 400.01700924 309.246115016 400.01700924 309.246115016 399.52129867 477.275811725 c 0,12,13
 399.022061328 577.603819421 399.022061328 577.603819421 370.819876368 703.863222546 c 1,14,-1
 511.170137837 736.375752468 l 1,15,16
 543.955281062 602.02447618 543.955281062 602.02447618 543.325362114 475.070739177 c 0,17,18
 542.033960451 201.236487012 542.033960451 201.236487012 407.657389505 93.7352302554 c 0,19,20
 308.758258819 15 308.758258819 15 103.48046875 15 c 2,21,-1
 -5.8857421875 15 l 2,0,1
EndSplineSet
EndChar

StartChar: uniFBE9
Encoding: 64489 64489 119
Width: 729
VWidth: 2510
GlyphClass: 2
Flags: W
AnchorPoint: "Anchor-10" 325.108 1108.46 basechar 0
AnchorPoint: "Anchor-7" 354.693 -142.707 basechar 0
LayerCount: 2
Fore
SplineSet
-6.8857421875 15 m 2,0,1
 -37.4961418601 15 -37.4961418601 15 -51.24807093 30.6055636391 c 128,-1,2
 -65 46.2111272783 -65 46.2111272783 -65 83 c 2,3,-1
 -65 99 l 2,4,5
 -65 136.89131755 -65 136.89131755 -51.1728990212 152.945658775 c 128,-1,6
 -37.3457980425 169 -37.3457980425 169 -6.8857421875 169 c 2,7,-1
 80.640625 169 l 2,8,9
 351.304773705 169 351.304773705 169 367.688544152 336.528290946 c 2,10,-1
 389.770621325 562.323242188 l 1,11,-1
 492.162009193 562.323242188 l 1,12,-1
 516.224879312 336.369112563 l 2,13,14
 525.233355251 254.105018601 525.233355251 254.105018601 576.024917952 211.5525093 c 128,-1,15
 626.816480653 169 626.816480653 169 714.943359375 169 c 2,16,-1
 733.5160922 169 l 2,17,18
 735.702105538 166.752314545 735.702105538 166.752314545 737.98453993 159.145686718 c 128,-1,19
 740.266974323 151.539058892 740.266974323 151.539058892 742.190616067 135.393066292 c 128,-1,20
 744.114257812 119.247073693 744.114257812 119.247073693 744.114257812 99 c 2,21,-1
 744.114272025 83.0206489826 l 2,22,23
 744.034706655 25.2221881573 744.034706655 25.2221881573 733.578902518 15 c 1,24,-1
 716.430664062 15 l 2,25,26
 534.008223767 15 534.008223767 15 455.511726483 132.229555771 c 2,27,-1
 444.767687083 148.275099325 l 1,28,-1
 431.87839702 133.895945934 l 2,29,30
 325.301584546 15 325.301584546 15 84.6689453125 15 c 2,31,-1
 -6.8857421875 15 l 2,0,1
EndSplineSet
EndChar

StartChar: uniFE73
Encoding: 65139 65139 127
Width: 631
VWidth: 2510
GlyphClass: 2
Flags: W
AnchorPoint: "Anchor-10" 233.246 1465.94 basechar 0
AnchorPoint: "Anchor-7" 233.246 -138.094 basechar 0
LayerCount: 2
Fore
SplineSet
307.255683611 393.6796875 m 1,0,1
 308.106993518 309.858565102 308.106993518 309.858565102 379.284495253 238.68003571 c 0,2,3
 390.469073728 227.494392983 390.469073728 227.494392983 403.794002584 218.190047889 c 128,-1,4
 417.11893144 208.885702795 417.11893144 208.885702795 432.293419821 201.584240768 c 128,-1,5
 447.467908203 194.282778741 447.467908203 194.282778741 464.619105239 188.854515425 c 0,6,7
 515.293140568 172.815429688 515.293140568 172.815429688 583.665039062 172.815429688 c 2,8,-1
 636.697265625 172.815429688 l 1,9,-1
 636.697265625 24.8017578125 l 1,10,-1
 515.80078125 24.8017578125 l 2,11,12
 356.958280276 24.8017578125 356.958280276 24.8017578125 255.012851718 126.746250156 c 0,13,14
 207.093522483 174.665579391 207.093522483 174.665579391 183.165413585 237.728734072 c 128,-1,15
 159.237304688 300.791888753 159.237304688 300.791888753 159.237304688 380.1328125 c 2,16,-1
 159.237304688 393.6796875 l 1,17,-1
 307.255683611 393.6796875 l 1,0,1
EndSplineSet
EndChar

StartChar: uniFE8E
Encoding: 65166 65166 153
Width: 544
VWidth: 2510
GlyphClass: 2
Flags: W
AnchorPoint: "Anchor-10" 251.453 1610.04 basechar 0
AnchorPoint: "Anchor-7" 272.208 -285.697 basechar 0
LayerCount: 2
Fore
SplineSet
548.578902518 15 m 1,0,-1
 531.28984953 14.9999999794 l 2,1,2
 361.430766536 15.0089122638 361.430766536 15.0089122638 277.396535612 122.630097828 c 128,-1,3
 193.362304688 230.251283392 193.362304688 230.251283392 193.362304688 452.065429688 c 2,4,-1
 193.362304688 1441.40596793 l 1,5,-1
 327.764648438 1441.41113281 l 1,6,-1
 327.764653779 462.883826373 l 2,7,8
 327.885510233 319.666420063 327.885510233 319.666420063 379.487616951 244.333210031 c 128,-1,9
 431.089723669 169 431.089723669 169 533.879882812 169 c 2,10,-1
 548.5160922 169 l 2,11,12
 550.702105538 166.752314545 550.702105538 166.752314545 552.98453993 159.145686718 c 128,-1,13
 555.266974323 151.539058892 555.266974323 151.539058892 557.190616067 135.393066292 c 128,-1,14
 559.114257812 119.247073693 559.114257812 119.247073693 559.114257812 99 c 2,15,-1
 559.114272025 83.0206489826 l 2,16,17
 559.034706655 25.2221881573 559.034706655 25.2221881573 548.578902518 15 c 1,0,-1
EndSplineSet
EndChar

StartChar: uniFEA2
Encoding: 65186 65186 173
Width: 1397
VWidth: 2510
GlyphClass: 2
Flags: W
AnchorPoint: "Anchor-10" 594.412 1312.73 basechar 0
AnchorPoint: "Anchor-7" 451.916 -748.029 basechar 0
LayerCount: 2
Fore
SplineSet
845.002521031 -646.881835288 m 0,0,1
 503.604392648 -646.94021588 503.604392648 -646.94021588 336.789086421 -520.307301217 c 128,-1,2
 169.973780194 -393.674386553 169.973780194 -393.674386553 170.898319058 -138.891640326 c 0,3,4
 171.925797655 119.660552938 171.925797655 119.660552938 341.807896504 284.748743055 c 128,-1,5
 511.689995352 449.836933172 511.689995352 449.836933172 855.007063441 522.804288169 c 2,6,-1
 896.776580711 531.681828723 l 1,7,8
 832.741472425 563.902900239 832.741472425 563.902900239 703.646062566 606.262331599 c 4,9,10
 569.271785149 650.035770454 569.271785149 650.035770454 500.003601718 648.995941988 c 0,11,12
 378.192735949 646.95507109 378.192735949 646.95507109 226.591169714 483.256524304 c 1,13,-1
 119.983284985 560.754438206 l 1,14,-1
 132.246276985 577.242930204 l 2,15,16
 296.487468246 797.936270005 296.487468246 797.936270005 511.813894661 796.118783338 c 0,17,18
 632.023044942 795.026432544 632.023044942 795.026432544 839.638146935 711.272645871 c 0,19,20
 1087.03492834 612.233896316 1087.03492834 612.233896316 1228.85768404 583.096876953 c 1,21,-1
 1222.80977769 428.41940734 l 1,22,23
 1142.06842906 427.062797485 1142.06842906 427.062797485 1079.56984776 416.801836375 c 2,24,-1
 1067 414.738130027 l 1,25,-1
 1067 402 l 2,26,27
 1067 286.422308627 1067 286.422308627 1147.63966496 228.902089721 c 128,-1,28
 1228.27932992 171.381870815 1228.27932992 171.381870815 1382.31641381 172.816079829 c 2,29,-1
 1401.52106148 172.994890529 l 2,30,31
 1403.080971 171.390972619 1403.080971 171.390972619 1404.80442053 166.37803177 c 128,-1,32
 1406.52787006 161.365090921 1406.52787006 161.365090921 1408.22329393 153.106712678 c 128,-1,33
 1409.9187178 144.848334436 1409.9187178 144.848334436 1411.0164878 131.656693608 c 128,-1,34
 1412.11425781 118.46505278 1412.11425781 118.46505278 1412.11425781 103 c 2,35,-1
 1412.11427202 83.0206489822 l 2,36,37
 1411.88693963 26.3353399393 1411.88693963 26.3353399393 1401.57890252 15 c 1,38,-1
 1382.99414062 15 l 2,39,40
 1167.58319601 15 1167.58319601 15 1062.53353797 105.015036305 c 128,-1,41
 957.483879929 195.030072611 957.483879929 195.030072611 956.999947465 377.878566512 c 2,42,-1
 956.952437096 395.829830777 l 1,43,-1
 939.295337868 392.593012461 l 2,44,45
 306.008066961 276.501699217 306.008066961 276.501699217 305.740267583 -139.181327527 c 0,46,47
 305.354285941 -322.614265291 305.354285941 -322.614265291 443.095708754 -414.080823117 c 128,-1,48
 580.837131568 -505.547380942 580.837131568 -505.547380942 849.005973149 -505.082030061 c 0,49,50
 1047.10131621 -505.003146524 1047.10131621 -505.003146524 1211.16786 -452.432204708 c 1,51,-1
 1239.03201625 -590.625129963 l 1,52,53
 1153.11789735 -618.822954167 1153.11789735 -618.822954167 1054.74845943 -632.880636572 c 128,-1,54
 956.379021514 -646.938318977 956.379021514 -646.938318977 845.002521031 -646.881835288 c 0,0,1
EndSplineSet
EndChar

StartChar: uniFEA3
Encoding: 65187 65187 174
Width: 1372
VWidth: 2510
GlyphClass: 2
Flags: W
AnchorPoint: "Anchor-10" 484.964 1260.95 basechar 0
AnchorPoint: "Anchor-7" 663.343 -293.77 basechar 0
LayerCount: 2
Fore
SplineSet
-5.8857421875 15 m 2,0,1
 -37.0672651968 15 -37.0672651968 15 -51.0336325984 30.6370793819 c 128,-1,2
 -65 46.2741587639 -65 46.2741587639 -65 83 c 2,3,-1
 -65 103 l 2,4,5
 -65 140.831283504 -65 140.831283504 -50.9570897605 156.915641752 c 128,-1,6
 -36.9141795211 173 -36.9141795211 173 -5.8857421875 173 c 2,7,-1
 157.473632812 173 l 2,8,9
 635.293554712 173 635.293554712 173 1009.79937085 474.931823522 c 2,10,-1
 1030.21642961 491.392341673 l 5,11,-1
 1005.67675117 500.644861776 l 6,12,13
 909.155671793 537.037483184 909.155671793 537.037483184 732.69404215 597.976453955 c 4,14,15
 605.418583961 642.036101582 605.418583961 642.036101582 518.815231993 640.798090583 c 4,16,17
 397.196522454 638.959328316 397.196522454 638.959328316 245.379282194 475.057552917 c 5,18,-1
 138.77039436 552.556196018 l 5,19,-1
 151.038242971 569.051217615 l 6,20,21
 314.511651354 788.96187413 314.511651354 788.96187413 520.634532252 787.920273952 c 4,22,23
 652.017200851 787.02008503 652.017200851 787.02008503 858.309700783 703.121221422 c 4,24,25
 1141.57740356 586.981463285 1141.57740356 586.981463285 1254.02258495 565.005642633 c 5,26,-1
 1241.73719405 427.2345783 l 1,27,28
 1179.25792533 416.913888392 1179.25792533 416.913888392 998.934561748 297.189809835 c 0,29,30
 573.47768183 15 573.47768183 15 136.286132812 15 c 2,31,-1
 -5.8857421875 15 l 2,0,1
EndSplineSet
EndChar

StartChar: uniFEA4
Encoding: 65188 65188 175
Width: 1425
VWidth: 2510
GlyphClass: 2
Flags: W
AnchorPoint: "Anchor-10" 501.256 1279.42 basechar 0
AnchorPoint: "Anchor-7" 631.161 -284.047 basechar 0
LayerCount: 2
Fore
SplineSet
1254.02246094 565.005859375 m 1,0,-1
 1241.79183722 427.847358762 l 1,1,2
 1196 424 1196 424 1127.8203125 387.182617188 c 5,3,4
 1132 173 1132 173 1399.50292969 173 c 2,5,-1
 1429.5160922 173 l 2,6,7
 1440.11420801 172.999999891 1440.11420801 172.999999891 1440.11425781 103 c 2,8,-1
 1440.11427202 83.0206489822 l 2,9,10
 1440 27 1440 27 1429.57890252 15 c 1,11,-1
 1394.82617188 15 l 2,12,13
 1225 15 1225 15 1132.02539062 86.4799804688 c 128,-1,14
 1039.05116761 157.960661189 1039.05116761 157.960661189 1027.90136719 304.08203125 c 6,15,-1
 1026 329 l 5,16,-1
 1013.95898438 319.107421875 l 5,17,-1
 998.653320312 308.999023438 l 5,18,19
 581 15 581 15 136.286132812 15 c 2,20,-1
 -5.8857421875 15 l 2,21,22
 -37 15 -37 15 -51 30.5 c 128,-1,23
 -65 46 -65 46 -65 83 c 2,24,-1
 -65 103 l 2,25,26
 -65 141 -65 141 -50.9570897605 156.915641752 c 128,-1,27
 -37 173 -37 173 -5.8857421875 173 c 2,28,-1
 157.473632812 173 l 2,29,30
 635.292197812 173 635.292197812 173 1009.79937085 474.931823522 c 2,31,-1
 1030.21679688 491.392578125 l 1,32,-1
 1005.67675781 500.64453125 l 2,33,34
 911 536 911 536 758.5 589 c 0,35,36
 605 642 605 642 518.815429688 640.797851562 c 0,37,38
 397 639 397 639 245.37890625 475.057617188 c 1,39,-1
 138.770507812 552.556640625 l 1,40,-1
 151.038085938 569.05078125 l 2,41,42
 315 789 315 789 520.634765625 787.919921875 c 0,43,44
 652 787 652 787 897 687 c 128,-1,45
 1142 587 1142 587 1254.02246094 565.005859375 c 1,0,-1
EndSplineSet
EndChar

StartChar: uniFEAA
Encoding: 65194 65194 181
Width: 1144
VWidth: 2510
GlyphClass: 2
Flags: W
AnchorPoint: "Anchor-10" 415.655 1369.25 basechar 0
AnchorPoint: "Anchor-7" 373.577 -279.355 basechar 0
LayerCount: 2
Fore
SplineSet
1148.57890252 15 m 1,0,-1
 1121.75292969 15 l 2,1,2
 1054.15220084 15 1054.15220084 15 994.395060287 48.8787233103 c 128,-1,3
 934.637919732 82.7574466206 934.637919732 82.7574466206 881.797384761 151.905533483 c 2,4,-1
 870.282804046 166.973723613 l 1,5,-1
 858.271311831 152.298575313 l 2,6,7
 744.609688098 15.2858921299 744.609688098 15.2858921299 407.772678723 13.8972879068 c 0,8,9
 232.447158209 13.0551565344 232.447158209 13.0551565344 120.491210938 38.4681244004 c 1,10,-1
 120.491210938 194.64567786 l 1,11,12
 270.057842094 164.021393986 270.057842094 164.021393986 422.959321777 164.4248451 c 0,13,14
 609.365842657 163.992146583 609.365842657 163.992146583 696.191937056 205.24689193 c 0,15,16
 739.999013758 226.048407806 739.999013758 226.048407806 751.286135017 267.556603922 c 128,-1,17
 762.573256276 309.064800038 762.573256276 309.064800038 741.549467411 362.783388508 c 0,18,19
 728.922829919 396.334185304 728.922829919 396.334185304 712.153850835 437.326346047 c 128,-1,20
 695.38487175 478.31850679 695.38487175 478.31850679 674.445651875 526.82924799 c 2,21,-1
 516.98812282 891.617501211 l 1,22,-1
 651.126130028 958.396818016 l 1,23,-1
 879.613598974 434.480245057 l 2,24,25
 995.169712982 169 995.169712982 169 1132.34082031 169 c 2,26,-1
 1148.5160922 169 l 1,27,28
 1159.11425781 158.102837439 1159.11425781 158.102837439 1159.11425781 99 c 2,29,-1
 1159.11427202 83.0206489822 l 2,30,31
 1158.88693963 26.3353399393 1158.88693963 26.3353399393 1148.57890252 15 c 1,0,-1
EndSplineSet
EndChar

StartChar: uniFEAE
Encoding: 65198 65198 185
Width: 897
VWidth: 2510
GlyphClass: 2
Flags: W
AnchorPoint: "Anchor-10" 501.018 933.76 basechar 0
AnchorPoint: "Anchor-7" 324.5 -737.548 basechar 0
LayerCount: 2
Fore
SplineSet
481.996493145 459.552900588 m 1,0,-1
 613.828322823 523.863060138 l 1,1,-1
 695.111542803 309.216730361 l 2,2,3
 748.672712483 169 748.672712483 169 870.202148438 169 c 2,4,-1
 901.723213139 169 l 1,5,6
 912.114257812 159.547385195 912.114257812 159.547385195 912.114257812 103 c 2,7,-1
 912.114272025 83.0206489826 l 2,8,9
 912.086670692 62.9702859641 912.086670692 62.9702859641 910.068470064 47.0711390004 c 128,-1,10
 908.050269436 31.1719920366 908.050269436 31.1719920366 905.807914557 24.0571304728 c 128,-1,11
 903.565559678 16.942268909 903.565559678 16.942268909 901.578902518 15 c 2,12,-1
 878.465820312 15 l 2,13,14
 770.118405634 15 770.118405634 15 734.619918002 58.4856473487 c 2,15,-1
 711.135813098 87.2536758564 l 1,16,-1
 708.051813626 50.2456821978 l 2,17,18
 696.371622696 -89.91660897 696.371622696 -89.91660897 617.504801395 -208.794954195 c 0,19,20
 464.127075601 -439.73028391 464.127075601 -439.73028391 45.2643566342 -480.857805844 c 1,21,-1
 20.1233616502 -341.350737209 l 1,22,23
 376.535881035 -305.68254587 376.535881035 -305.68254587 510.348191789 -113.515994337 c 0,24,25
 573.005122584 -22.6634446837 573.005122584 -22.6634446837 572.860332238 107.975922714 c 0,26,27
 573.003319359 197.055898613 573.003319359 197.055898613 542.659438063 305.012444271 c 0,28,29
 530.325940728 349.439420274 530.325940728 349.439420274 514.893091383 388.681101469 c 128,-1,30
 499.460242038 427.922782664 499.460242038 427.922782664 481.996493145 459.552900588 c 1,0,-1
EndSplineSet
PairPos2: "'kern' Horizontal Kerning lookup 15-2" uniFBFE dx=50 dy=0 dh=50 dv=0 dx=0 dy=0 dh=0 dv=0
PairPos2: "'kern' Horizontal Kerning lookup 15-1" uniFEE7 dx=-150 dy=0 dh=-150 dv=0 dx=0 dy=0 dh=0 dv=0
PairPos2: "'kern' Horizontal Kerning lookup 15-2" uniFB90 dx=-190 dy=0 dh=-190 dv=0 dx=0 dy=0 dh=0 dv=0
PairPos2: "'kern' Horizontal Kerning lookup 15-2" uniFB8E dx=-190 dy=0 dh=-190 dv=0 dx=0 dy=0 dh=0 dv=0
PairPos2: "'kern' Horizontal Kerning lookup 15-2" uni06A9 dx=-190 dy=0 dh=-190 dv=0 dx=0 dy=0 dh=0 dv=0
PairPos2: "'kern' Horizontal Kerning lookup 15-2" uni064A dx=-50 dy=0 dh=-50 dv=0 dx=0 dy=0 dh=0 dv=0
PairPos2: "'kern' Horizontal Kerning lookup 15-2" afii57414 dx=-50 dy=0 dh=-50 dv=0 dx=0 dy=0 dh=0 dv=0
PairPos2: "'kern' Horizontal Kerning lookup 15-2" uni0649 dx=-50 dy=0 dh=-50 dv=0 dx=0 dy=0 dh=0 dv=0
PairPos2: "'kern' Horizontal Kerning lookup 15-2" uniFEEB dx=-150 dy=0 dh=-150 dv=0 dx=0 dy=0 dh=0 dv=0
PairPos2: "'kern' Horizontal Kerning lookup 15-2" uni0647 dx=-150 dy=0 dh=-150 dv=0 dx=0 dy=0 dh=0 dv=0
PairPos2: "'kern' Horizontal Kerning lookup 15-2" uni0646 dx=-50 dy=0 dh=-50 dv=0 dx=0 dy=0 dh=0 dv=0
PairPos2: "'kern' Horizontal Kerning lookup 15-2" uniFEE3 dx=-150 dy=0 dh=-150 dv=0 dx=0 dy=0 dh=0 dv=0
PairPos2: "'kern' Horizontal Kerning lookup 15-2" uni0645 dx=-150 dy=0 dh=-150 dv=0 dx=0 dy=0 dh=0 dv=0
PairPos2: "'kern' Horizontal Kerning lookup 15-2" uniFEFB dx=-120 dy=0 dh=-120 dv=0 dx=0 dy=0 dh=0 dv=0
PairPos2: "'kern' Horizontal Kerning lookup 15-2" uniFEDF dx=-120 dy=0 dh=-120 dv=0 dx=0 dy=0 dh=0 dv=0
PairPos2: "'kern' Horizontal Kerning lookup 15-2" uni0644 dx=-50 dy=0 dh=-50 dv=0 dx=0 dy=0 dh=0 dv=0
PairPos2: "'kern' Horizontal Kerning lookup 15-2" uniFEDB dx=-190 dy=0 dh=-190 dv=0 dx=0 dy=0 dh=0 dv=0
PairPos2: "'kern' Horizontal Kerning lookup 15-2" uni0643 dx=-120 dy=0 dh=-120 dv=0 dx=0 dy=0 dh=0 dv=0
PairPos2: "'kern' Horizontal Kerning lookup 15-2" uniFED7 dx=-150 dy=0 dh=-150 dv=0 dx=0 dy=0 dh=0 dv=0
PairPos2: "'kern' Horizontal Kerning lookup 15-2" uni0642 dx=-50 dy=0 dh=-50 dv=0 dx=0 dy=0 dh=0 dv=0
PairPos2: "'kern' Horizontal Kerning lookup 15-2" uniFED3 dx=-150 dy=0 dh=-150 dv=0 dx=0 dy=0 dh=0 dv=0
PairPos2: "'kern' Horizontal Kerning lookup 15-2" uni0641 dx=-150 dy=0 dh=-150 dv=0 dx=0 dy=0 dh=0 dv=0
PairPos2: "'kern' Horizontal Kerning lookup 15-2" uniFECF dx=-150 dy=0 dh=-150 dv=0 dx=0 dy=0 dh=0 dv=0
PairPos2: "'kern' Horizontal Kerning lookup 15-2" uniFECB dx=-150 dy=0 dh=-150 dv=0 dx=0 dy=0 dh=0 dv=0
PairPos2: "'kern' Horizontal Kerning lookup 15-2" uniFEC7 dx=-150 dy=0 dh=-150 dv=0 dx=0 dy=0 dh=0 dv=0
PairPos2: "'kern' Horizontal Kerning lookup 15-2" uni0638 dx=-150 dy=0 dh=-150 dv=0 dx=0 dy=0 dh=0 dv=0
PairPos2: "'kern' Horizontal Kerning lookup 15-2" uniFEC3 dx=-150 dy=0 dh=-150 dv=0 dx=0 dy=0 dh=0 dv=0
PairPos2: "'kern' Horizontal Kerning lookup 15-2" uni0637 dx=-150 dy=0 dh=-150 dv=0 dx=0 dy=0 dh=0 dv=0
PairPos2: "'kern' Horizontal Kerning lookup 15-2" uniFEBF dx=-150 dy=0 dh=-150 dv=0 dx=0 dy=0 dh=0 dv=0
PairPos2: "'kern' Horizontal Kerning lookup 15-2" uni0636 dx=-150 dy=0 dh=-150 dv=0 dx=0 dy=0 dh=0 dv=0
PairPos2: "'kern' Horizontal Kerning lookup 15-2" uniFEBB dx=-150 dy=0 dh=-150 dv=0 dx=0 dy=0 dh=0 dv=0
PairPos2: "'kern' Horizontal Kerning lookup 15-2" uni0635 dx=-150 dy=0 dh=-150 dv=0 dx=0 dy=0 dh=0 dv=0
PairPos2: "'kern' Horizontal Kerning lookup 15-2" uniFEB7 dx=-150 dy=0 dh=-150 dv=0 dx=0 dy=0 dh=0 dv=0
PairPos2: "'kern' Horizontal Kerning lookup 15-2" uni0634 dx=-150 dy=0 dh=-150 dv=0 dx=0 dy=0 dh=0 dv=0
PairPos2: "'kern' Horizontal Kerning lookup 15-2" uniFEB3 dx=-150 dy=0 dh=-150 dv=0 dx=0 dy=0 dh=0 dv=0
PairPos2: "'kern' Horizontal Kerning lookup 15-2" uni0633 dx=-150 dy=0 dh=-150 dv=0 dx=0 dy=0 dh=0 dv=0
PairPos2: "'kern' Horizontal Kerning lookup 15-2" uni0630 dx=-150 dy=0 dh=-150 dv=0 dx=0 dy=0 dh=0 dv=0
PairPos2: "'kern' Horizontal Kerning lookup 15-2" uni062F dx=-150 dy=0 dh=-150 dv=0 dx=0 dy=0 dh=0 dv=0
PairPos2: "'kern' Horizontal Kerning lookup 15-2" uniFEA7 dx=-150 dy=0 dh=-150 dv=0 dx=0 dy=0 dh=0 dv=0
PairPos2: "'kern' Horizontal Kerning lookup 15-2" uniFEA3 dx=-150 dy=0 dh=-150 dv=0 dx=0 dy=0 dh=0 dv=0
PairPos2: "'kern' Horizontal Kerning lookup 15-2" uniFE9F dx=-150 dy=0 dh=-150 dv=0 dx=0 dy=0 dh=0 dv=0
PairPos2: "'kern' Horizontal Kerning lookup 15-2" uniFE9B dx=-150 dy=0 dh=-150 dv=0 dx=0 dy=0 dh=0 dv=0
PairPos2: "'kern' Horizontal Kerning lookup 15-2" uni062B dx=-150 dy=0 dh=-150 dv=0 dx=0 dy=0 dh=0 dv=0
PairPos2: "'kern' Horizontal Kerning lookup 15-2" uniFE97 dx=-150 dy=0 dh=-150 dv=0 dx=0 dy=0 dh=0 dv=0
PairPos2: "'kern' Horizontal Kerning lookup 15-2" uni062A dx=-150 dy=0 dh=-150 dv=0 dx=0 dy=0 dh=0 dv=0
PairPos2: "'kern' Horizontal Kerning lookup 15-2" uni0629 dx=-150 dy=0 dh=-150 dv=0 dx=0 dy=0 dh=0 dv=0
PairPos2: "'kern' Horizontal Kerning lookup 15-2" uniFE91 dx=-50 dy=0 dh=-50 dv=0 dx=0 dy=0 dh=0 dv=0
PairPos2: "'kern' Horizontal Kerning lookup 15-2" uni0628 dx=-150 dy=0 dh=-150 dv=0 dx=0 dy=0 dh=0 dv=0
PairPos2: "'kern' Horizontal Kerning lookup 15-2" uni0627 dx=-120 dy=0 dh=-120 dv=0 dx=0 dy=0 dh=0 dv=0
PairPos2: "'kern' Horizontal Kerning lookup 15-2" uni0623 dx=-120 dy=0 dh=-120 dv=0 dx=0 dy=0 dh=0 dv=0
PairPos2: "'kern' Horizontal Kerning lookup 15-2" uni0622 dx=-120 dy=0 dh=-120 dv=0 dx=0 dy=0 dh=0 dv=0
PairPos2: "'kern' Horizontal Kerning lookup 15-2" uni0621 dx=-150 dy=0 dh=-150 dv=0 dx=0 dy=0 dh=0 dv=0
PairPos2: "'kern' Horizontal Kerning lookup 15-2" uniFB94 dx=-190 dy=0 dh=-190 dv=0 dx=0 dy=0 dh=0 dv=0
PairPos2: "'kern' Horizontal Kerning lookup 15-2" uniFB92 dx=-190 dy=0 dh=-190 dv=0 dx=0 dy=0 dh=0 dv=0
PairPos2: "'kern' Horizontal Kerning lookup 15-2" uni06AF dx=-190 dy=0 dh=-190 dv=0 dx=0 dy=0 dh=0 dv=0
PairPos2: "'kern' Horizontal Kerning lookup 15-2" afii57506 dx=-150 dy=0 dh=-150 dv=0 dx=0 dy=0 dh=0 dv=0
PairPos2: "'kern' Horizontal Kerning lookup 15-2" afii57440 dx=-150 dy=0 dh=-150 dv=0 dx=0 dy=0 dh=0 dv=0
PairPos2: "'kern' Horizontal Kerning lookup 15-2" uniFE8B dx=-150 dy=0 dh=-150 dv=0 dx=0 dy=0 dh=0 dv=0
EndChar

StartChar: uniFEB2
Encoding: 65202 65202 189
Width: 2465
VWidth: 2510
GlyphClass: 2
Flags: W
AnchorPoint: "Anchor-10" 711.649 1012.75 basechar 0
AnchorPoint: "Anchor-7" 435.68 -746.958 basechar 0
LayerCount: 2
Fore
SplineSet
1444.70268682 169.063827219 m 0,0,1
 1521.12451363 168.492265622 1521.12451363 168.492265622 1565.16965374 208.619064226 c 128,-1,2
 1609.21479385 248.74586283 1609.21479385 248.74586283 1617.03286936 325.857068538 c 2,3,-1
 1639.0150769 542.671875 l 1,4,-1
 1739.07200256 542.671875 l 1,5,-1
 1760.93065589 325.08316597 l 2,6,7
 1768.53833805 247.856339874 1768.53833805 247.856339874 1817.02046537 208.084773734 c 128,-1,8
 1865.5025927 168.313207595 1865.5025927 168.313207595 1950.06259571 168.664111095 c 0,9,10
 2020.99395348 168.844663451 2020.99395348 168.844663451 2061.60207003 206.794915014 c 128,-1,11
 2102.21018659 244.745166578 2102.21018659 244.745166578 2108.69904176 316.639938431 c 2,12,-1
 2130.87316286 562.323242188 l 1,13,-1
 2233.05135806 562.323242188 l 1,14,-1
 2257.20438882 316.568535367 l 2,15,16
 2264.19203376 243.780965049 2264.19203376 243.780965049 2312.50922298 206.390482524 c 128,-1,17
 2360.82641221 169 2360.82641221 169 2445.25976562 169 c 2,18,-1
 2469.5160922 169 l 1,19,20
 2480.11425781 158.102837439 2480.11425781 158.102837439 2480.11425781 99 c 2,21,-1
 2480.11427202 83.0206489822 l 2,22,23
 2480.03470665 25.2221881571 2480.03470665 25.2221881571 2469.57890252 15 c 1,24,-1
 2446.76171875 15 l 2,25,26
 2275.35789059 15 2275.35789059 15 2206.31421684 126.584066105 c 2,27,-1
 2191.5377619 150.464848151 l 1,28,-1
 2179.90582919 124.904458622 l 2,29,30
 2130.34655241 16.0012823453 2130.34655241 16.0012823453 1948.9160148 16.0253904977 c 0,31,32
 1763.1854968 16.0011966588 1763.1854968 16.0011966588 1703.90025998 132.190553881 c 2,33,-1
 1690.44056082 158.569360455 l 1,34,-1
 1677.13764219 132.111142568 l 2,35,36
 1647.48739359 73.1396672591 1647.48739359 73.1396672591 1588.83011473 43.6927911721 c 128,-1,37
 1530.17283586 14.2459150851 1530.17283586 14.2459150851 1439.79551018 14.4754319343 c 0,38,39
 1384.54245615 14.7258086273 1384.54245615 14.7258086273 1345.70534692 29.4534188986 c 128,-1,40
 1306.86823768 44.1810291699 1306.86823768 44.1810291699 1283.15992114 72.7899276962 c 2,41,-1
 1256.78786334 104.613171 l 1,42,-1
 1256.61048969 63.2831239949 l 2,43,44
 1256.49106048 35.4547785717 1256.49106048 35.4547785717 1254.10564275 8.42970224318 c 128,-1,45
 1251.72022503 -18.5953740853 1251.72022503 -18.5953740853 1247.07050824 -44.8259995173 c 128,-1,46
 1242.42079146 -71.0566249493 1242.42079146 -71.0566249493 1235.50043686 -96.5227702429 c 128,-1,47
 1228.58008227 -121.988915537 1228.58008227 -121.988915537 1219.39817032 -146.682316927 c 128,-1,48
 1210.21625836 -171.375718317 1210.21625836 -171.375718317 1198.75905929 -195.343428525 c 0,49,50
 1075.52900648 -454.004024056 1075.52900648 -454.004024056 671.004716849 -454.175781992 c 0,51,52
 126.956853497 -454.00470254 126.956853497 -454.00470254 125.410106498 82.7915635119 c 0,53,54
 125.215654462 158.289418294 125.215654462 158.289418294 140.134618988 248.64135329 c 128,-1,55
 155.053583514 338.993288285 155.053583514 338.993288285 184.825471757 442.531952112 c 1,56,-1
 316.749966511 408.244843993 l 1,57,58
 268.009522931 215.82603485 268.009522931 215.82603485 268.390758408 89.5246275842 c 0,59,60
 269.21834182 -106.698010758 269.21834182 -106.698010758 373.038729819 -206.995944131 c 128,-1,61
 476.859117819 -307.293877504 476.859117819 -307.293877504 678.95059634 -307.603434267 c 0,62,63
 895.830327384 -308.317748314 895.830327384 -308.317748314 1006.38002184 -207.259790902 c 128,-1,64
 1116.92971629 -106.20183349 1116.92971629 -106.20183349 1115.79375105 93.0763399065 c 0,65,66
 1115.53291106 144.328029371 1115.53291106 144.328029371 1106.99663246 202.534163411 c 128,-1,67
 1098.46035385 260.740297451 1098.46035385 260.740297451 1081.9569658 324.799814865 c 128,-1,68
 1065.45357775 388.85933228 1065.45357775 388.85933228 1041.01091622 459.153431799 c 1,69,-1
 1174.49745574 505.79086592 l 1,70,-1
 1234.19750438 323.132574046 l 2,71,72
 1246.47661635 285.461996114 1246.47661635 285.461996114 1266.0804902 256.713341669 c 128,-1,73
 1285.68436405 227.964687225 1285.68436405 227.964687225 1312.13256765 208.603028856 c 128,-1,74
 1338.58077124 189.241370488 1338.58077124 189.241370488 1371.87177422 179.276192485 c 128,-1,75
 1405.1627772 169.311014482 1405.1627772 169.311014482 1444.70268682 169.063827219 c 0,0,1
EndSplineSet
EndChar

StartChar: uniFEB3
Encoding: 65203 65203 190
Width: 1593
VWidth: 2510
GlyphClass: 2
Flags: W
AnchorPoint: "Anchor-10" 794.089 1095.79 basechar 0
AnchorPoint: "Anchor-7" 859.978 -310.491 basechar 0
LayerCount: 2
Fore
SplineSet
1162 15 m 0,0,1
 980.741986695 15 980.741986695 15 914.590165896 131.766875392 c 2,2,-1
 901.305368773 155.216331984 l 1,3,-1
 888.377420651 131.568266388 l 2,4,5
 824.130033197 14.045638779 824.130033197 14.045638779 646.090505618 14.9577798724 c 0,6,7
 465.488053444 15.953433659 465.488053444 15.953433659 394.647167969 133.135229307 c 2,8,-1
 380.472265279 156.582713612 l 1,9,-1
 368.356708324 132.007814504 l 2,10,11
 310.671228738 15 310.671228738 15 61.4033203125 15 c 2,12,-1
 -5.8857421875 15 l 2,13,14
 -37.0672651968 15 -37.0672651968 15 -51.0336325984 30.6370793819 c 128,-1,15
 -65 46.2741587639 -65 46.2741587639 -65 83 c 2,16,-1
 -65 99 l 2,17,18
 -65 136.831283504 -65 136.831283504 -50.9570897605 152.915641752 c 128,-1,19
 -36.9141795211 169 -36.9141795211 169 -5.8857421875 169 c 2,20,-1
 61.5888671875 169 l 2,21,22
 173.242788914 169 173.242788914 169 236.934292829 211.127719803 c 128,-1,23
 300.625796745 253.255439607 300.625796745 253.255439607 310.565674248 337.1252465 c 2,24,-1
 334.826267174 541.829101562 l 1,25,-1
 433.907235947 541.829101562 l 1,26,-1
 454.87686417 339.691917721 l 2,27,28
 463.495443254 256.055181644 463.495443254 256.055181644 512.391553552 212.339328699 c 128,-1,29
 561.28766385 168.623475753 561.28766385 168.623475753 646.527076272 168.197278691 c 0,30,31
 699.812838516 168.126945942 699.812838516 168.126945942 738.397565842 187.65356922 c 128,-1,32
 776.982293168 207.180192498 776.982293168 207.180192498 799.525136067 245.26141721 c 128,-1,33
 822.067978965 283.342641922 822.067978965 283.342641922 828.02352249 338.767555287 c 2,34,-1
 849.933544126 542.671875 l 1,35,-1
 950.15257173 542.671875 l 1,36,-1
 971.946396266 337.931308024 l 2,37,38
 981.054727932 254.213841524 981.054727932 254.213841524 1029.42810833 210.924436332 c 128,-1,39
 1077.80148873 167.635031139 1077.80148873 167.635031139 1161.55798681 168.356317307 c 0,40,41
 1246.48655659 169.259721417 1246.48655659 169.259721417 1288.40702442 234.861934968 c 128,-1,42
 1330.32749226 300.46414852 1330.32749226 300.46414852 1329.61309173 423.07540248 c 0,43,44
 1329.02917885 539.233154424 1329.02917885 539.233154424 1295.48953742 651.311370153 c 1,45,-1
 1436.42280739 683.767220501 l 1,46,47
 1472.95212348 561.212415154 1472.95212348 561.212415154 1472.31256987 430.04578467 c 0,48,49
 1471.88203362 288.993908183 1471.88203362 288.993908183 1437.05658943 196.724135181 c 128,-1,50
 1402.23114523 104.454362179 1402.23114523 104.454362179 1333.81097268 59.7271810895 c 128,-1,51
 1265.39080012 15 1265.39080012 15 1162 15 c 0,0,1
EndSplineSet
EndChar

StartChar: uniFEB4
Encoding: 65204 65204 191
Width: 1694
VWidth: 2504
GlyphClass: 2
Flags: W
AnchorPoint: "Anchor-10" 700.828 1090.02 basechar 0
AnchorPoint: "Anchor-7" 768.752 -280.508 basechar 0
LayerCount: 2
Fore
SplineSet
1486.20766508 316.534808361 m 2,0,1
 1493.35926657 243.767852332 1493.35926657 243.767852332 1541.66777974 206.383926166 c 128,-1,2
 1589.97629292 169 1589.97629292 169 1674.25976562 169 c 2,3,-1
 1698.5160922 169 l 1,4,5
 1709.11425781 158.102837439 1709.11425781 158.102837439 1709.11425781 99 c 2,6,-1
 1709.11427202 83.0206489822 l 2,7,8
 1708.88693963 26.3353399393 1708.88693963 26.3353399393 1698.57890252 15 c 1,9,-1
 1675.76171875 15 l 2,10,11
 1586.39586627 15 1586.39586627 15 1525.57679001 42.9593206042 c 128,-1,12
 1464.75771375 70.9186412084 1464.75771375 70.9186412084 1430.31421684 126.584066105 c 2,13,-1
 1415.5377619 150.464848151 l 1,14,-1
 1403.90582919 124.904458622 l 2,15,16
 1379.26600546 70.7601037858 1379.26600546 70.7601037858 1323.52704802 43.3866156841 c 128,-1,17
 1267.78809058 16.0131275825 1267.78809058 16.0131275825 1177.9160148 16.0253904977 c 0,18,19
 1083.58145736 16.0131021829 1083.58145736 16.0131021829 1023.00287616 45.1706907833 c 128,-1,20
 962.424294956 74.3282793838 962.424294956 74.3282793838 932.900259984 132.190553881 c 2,21,-1
 919.440560819 158.569360455 l 1,22,-1
 906.137642186 132.111142568 l 2,23,24
 876.56754824 73.2990870972 876.56754824 73.2990870972 815.496210331 43.896619942 c 128,-1,25
 754.424872421 14.4941527868 754.424872421 14.4941527868 659.089213629 14.9577869394 c 0,26,27
 612.392184563 15.2112033959 612.392184563 15.2112033959 573.712254702 22.7340715683 c 128,-1,28
 535.032324842 30.2569397407 535.032324842 30.2569397407 504.398621693 45.001344613 c 128,-1,29
 473.764918544 59.7457494853 473.764918544 59.7457494853 450.78957963 81.3266584601 c 128,-1,30
 427.814240717 102.907567435 427.814240717 102.907567435 411.93878554 131.630987153 c 2,31,-1
 398.911596556 155.201046264 l 1,32,-1
 385.730160987 131.716900641 l 2,33,34
 320.218035051 15 320.218035051 15 79.4033203125 15 c 2,35,-1
 -5.8857421875 15 l 2,36,37
 -37.0672651968 15 -37.0672651968 15 -51.0336325984 30.6370793819 c 128,-1,38
 -65 46.2741587639 -65 46.2741587639 -65 83 c 2,39,-1
 -65 99 l 2,40,41
 -65 136.831283504 -65 136.831283504 -50.9570897605 152.915641752 c 128,-1,42
 -36.9141795211 169 -36.9141795211 169 -5.8857421875 169 c 2,43,-1
 79.5888671875 169 l 2,44,45
 311.216160845 169 311.216160845 169 328.576974748 324.223359379 c 2,46,-1
 352.914888894 541.829101562 l 1,47,-1
 451.827618123 541.829101562 l 1,48,-1
 472.869064416 326.769590016 l 2,49,50
 480.503961907 248.6960302 480.503961907 248.6960302 529.623511976 208.394600709 c 128,-1,51
 578.743062045 168.093171218 578.743062045 168.093171218 664.527337722 168.197278349 c 0,52,53
 745.286530903 168.092090603 745.286530903 168.092090603 791.738348808 208.297525589 c 128,-1,54
 838.190166713 248.502960574 838.190166713 248.502960574 846.032869356 325.857068538 c 2,55,-1
 868.015076898 542.671875 l 1,56,-1
 968.072002556 542.671875 l 1,57,-1
 989.930655895 325.08316597 l 2,58,59
 997.538338046 247.856339874 997.538338046 247.856339874 1046.02046537 208.084773734 c 128,-1,60
 1094.5025927 168.313207595 1094.5025927 168.313207595 1179.06259571 168.664111095 c 0,61,62
 1249.99395348 168.844663451 1249.99395348 168.844663451 1290.60207003 206.794915014 c 128,-1,63
 1331.21018659 244.745166578 1331.21018659 244.745166578 1337.69904176 316.639938431 c 2,64,-1
 1359.87316286 562.323242188 l 1,65,-1
 1462.05135806 562.323242188 l 1,66,-1
 1486.20766508 316.534808361 l 2,0,1
EndSplineSet
EndChar

StartChar: uniFEBA
Encoding: 65210 65210 197
Width: 2531
VWidth: 2510
GlyphClass: 2
Flags: W
AnchorPoint: "Anchor-10" 545.807 972.391 basechar 0
AnchorPoint: "Anchor-7" 366.683 -755.994 basechar 0
LayerCount: 2
Fore
SplineSet
1234.13823607 323.318496602 m 2,0,1
 1267.42162506 216.513796888 1267.42162506 216.513796888 1322.88313393 213.977573366 c 2,2,-1
 1331.99538392 213.560875313 l 1,3,-1
 1336.55753729 221.459830545 l 2,4,5
 1666.57570471 792.856387494 1666.57570471 792.856387494 2037.47879958 786.733318056 c 0,6,7
 2059.8708918 786.379447879 2059.8708918 786.379447879 2080.83686651 783.832580668 c 128,-1,8
 2101.80284123 781.285713457 2101.80284123 781.285713457 2121.54240928 776.533717117 c 0,9,10
 2141.60123387 771.859227441 2141.60123387 771.859227441 2160.02896033 765.329430531 c 128,-1,11
 2178.45668679 758.799633622 2178.45668679 758.799633622 2195.32527795 750.379335848 c 128,-1,12
 2212.19386912 741.959038074 2212.19386912 741.959038074 2227.49589007 731.661601934 c 128,-1,13
 2242.79791102 721.364165793 2242.79791102 721.364165793 2256.61384747 709.130851201 c 128,-1,14
 2270.42978392 696.897536608 2270.42978392 696.897536608 2282.74310988 682.766822281 c 128,-1,15
 2295.05643584 668.636107953 2295.05643584 668.636107953 2305.9561599 652.525707349 c 0,16,17
 2329.75326461 617.769632987 2329.75326461 617.769632987 2342.07653039 569.147507905 c 128,-1,18
 2354.39979616 520.525382824 2354.39979616 520.525382824 2354.7766566 457.90682146 c 0,19,20
 2354.99136739 423.343071497 2354.99136739 423.343071497 2348.89010886 390.687972788 c 0,21,22
 2347.43241775 382.473670126 2347.43241775 382.473670126 2345.54461509 374.349934336 c 128,-1,23
 2343.65681243 366.226198545 2343.65681243 366.226198545 2341.33205667 358.16835638 c 128,-1,24
 2339.0073009 350.110514214 2339.0073009 350.110514214 2336.24589473 342.129037313 c 128,-1,25
 2333.48448856 334.147560413 2333.48448856 334.147560413 2330.28119628 326.224935972 c 128,-1,26
 2327.077904 318.302311531 2327.077904 318.302311531 2323.4313154 310.441373385 c 128,-1,27
 2319.7847268 302.580435238 2319.7847268 302.580435238 2315.6913191 294.771308387 c 128,-1,28
 2311.5979114 286.962181536 2311.5979114 286.962181536 2307.05466851 279.200539371 c 2,29,-1
 2301.85041136 270.309625398 l 1,30,-1
 2308.28054823 262.260651331 l 2,31,32
 2382.7842984 169 2382.7842984 169 2520.15722656 169 c 2,33,-1
 2535.72321314 169 l 1,34,35
 2546.11425781 159.547385195 2546.11425781 159.547385195 2546.11425781 103 c 2,36,-1
 2546.11427202 83.0206489822 l 2,37,38
 2546.03470665 25.2221881571 2546.03470665 25.2221881571 2535.57890252 15 c 1,39,-1
 2515.48144531 15 l 2,40,41
 2343.38602246 15 2343.38602246 15 2227.88935984 165.145661413 c 2,42,-1
 2218.52077721 177.324818833 l 1,43,-1
 2206.57072321 167.665707829 l 2,44,45
 2017.69584108 15 2017.69584108 15 1609.41210938 15 c 2,46,-1
 1520.0078125 15 l 2,47,48
 1447.35281313 15 1447.35281313 15 1387.35138251 30.2708762011 c 128,-1,49
 1327.34995189 45.5417524023 1327.34995189 45.5417524023 1279.66083639 75.8753567338 c 2,50,-1
 1256.72713502 90.4627907009 l 1,51,-1
 1256.61048969 63.2831239949 l 2,52,53
 1256.46116047 28.4877422658 1256.46116047 28.4877422658 1252.77553716 -5.03271663808 c 128,-1,54
 1249.08991386 -38.5531755419 1249.08991386 -38.5531755419 1241.85665223 -70.8656233104 c 128,-1,55
 1234.6233906 -103.178071079 1234.6233906 -103.178071079 1223.85012359 -134.28495342 c 128,-1,56
 1213.07685658 -165.391835761 1213.07685658 -165.391835761 1198.73941593 -195.38482276 c 0,57,58
 1185.22910437 -223.967574356 1185.22910437 -223.967574356 1168.33197439 -249.365335857 c 128,-1,59
 1151.43484441 -274.763097358 1151.43484441 -274.763097358 1131.02793567 -297.099137744 c 128,-1,60
 1110.62102692 -319.435178129 1110.62102692 -319.435178129 1086.76291576 -338.573695118 c 128,-1,61
 1062.9048046 -357.712212106 1062.9048046 -357.712212106 1035.46081377 -373.742755116 c 128,-1,62
 1008.01682295 -389.773298126 1008.01682295 -389.773298126 977.058026844 -402.596032408 c 128,-1,63
 946.099230735 -415.418766689 946.099230735 -415.418766689 911.478454077 -425.087274129 c 128,-1,64
 876.857677419 -434.755781569 876.857677419 -434.755781569 838.6584926 -441.206194949 c 128,-1,65
 800.459307781 -447.656608328 800.459307781 -447.656608328 758.522041524 -450.906542004 c 128,-1,66
 716.584775267 -454.156475679 716.584775267 -454.156475679 671.004716849 -454.175781992 c 0,67,68
 126.956853497 -454.00470254 126.956853497 -454.00470254 125.410106498 82.7915635119 c 0,69,70
 125.215654462 158.289418294 125.215654462 158.289418294 140.134618988 248.64135329 c 128,-1,71
 155.053583514 338.993288285 155.053583514 338.993288285 184.825471757 442.531952112 c 1,72,-1
 316.749966511 408.244843993 l 1,73,74
 268.009522931 215.82603485 268.009522931 215.82603485 268.390758408 89.5246275842 c 0,75,76
 269.21834182 -106.698010758 269.21834182 -106.698010758 373.038729819 -206.995944131 c 128,-1,77
 476.859117819 -307.293877504 476.859117819 -307.293877504 678.95059634 -307.603434267 c 0,78,79
 895.829444455 -308.317745406 895.829444455 -308.317745406 1006.37957738 -207.259504663 c 128,-1,80
 1116.92971031 -106.20126392 1116.92971031 -106.20126392 1115.79376954 93.0726160982 c 0,81,82
 1115.01445838 254.049737209 1115.01445838 254.049737209 1043.99529186 459.147972972 c 1,83,-1
 1177.29652132 505.72066359 l 1,84,-1
 1234.13823607 323.318496602 l 2,0,1
1612.33984375 170.298828125 m 2,85,86
 1936.60098631 170.298828125 1936.60098631 170.298828125 2081.60616017 255.827351052 c 0,87,88
 2133.27948087 286.228039512 2133.27948087 286.228039512 2165.0403374 324.467287112 c 128,-1,89
 2196.80119393 362.706534711 2196.80119393 362.706534711 2207.59173336 408.615643755 c 0,90,91
 2213.97948883 436.197155497 2213.97948883 436.197155497 2214.27576531 460.941495451 c 0,92,93
 2214.20076778 478.915371614 2214.20076778 478.915371614 2210.86996455 495.547427636 c 128,-1,94
 2207.53916132 512.179483657 2207.53916132 512.179483657 2201.01409137 527.283618009 c 128,-1,95
 2194.48902141 542.387752361 2194.48902141 542.387752361 2184.75813077 555.956914714 c 128,-1,96
 2175.02724012 569.526077067 2175.02724012 569.526077067 2162.19261383 581.367331871 c 0,97,98
 2126.98919738 613.971960952 2126.98919738 613.971960952 2070.58095133 624.269898148 c 0,99,100
 2040.29388016 629.283487576 2040.29388016 629.283487576 2009.28583661 628.262440119 c 128,-1,101
 1978.27779306 627.241392662 1978.27779306 627.241392662 1946.0591623 620.242322075 c 0,102,103
 1867.29003869 603.748414777 1867.29003869 603.748414777 1789.39445035 550.138739565 c 128,-1,104
 1711.49886201 496.529064353 1711.49886201 496.529064353 1635.44160541 407.50125561 c 128,-1,105
 1559.38434881 318.473446866 1559.38434881 318.473446866 1483.42871198 193.069871942 c 2,106,-1
 1469.63652833 170.298828125 l 1,107,-1
 1612.33984375 170.298828125 l 2,85,86
EndSplineSet
EndChar

StartChar: uniFEBB
Encoding: 65211 65211 198
Width: 1660
VWidth: 2510
GlyphClass: 2
Flags: W
AnchorPoint: "Anchor-10" 630.956 1187.3 basechar 0
AnchorPoint: "Anchor-7" 608.025 -259.753 basechar 0
LayerCount: 2
Fore
SplineSet
425.641097915 341.327648292 m 2,0,1
 427.777156128 317.126923303 427.777156128 317.126923303 437.879172698 295.918757809 c 0,2,3
 447.981189267 274.710592316 447.981189267 274.710592316 465.297437659 257.267748832 c 0,4,5
 482.61368605 239.824905348 482.61368605 239.824905348 506.942988374 225.935302794 c 2,6,-1
 519.905092849 218.535235295 l 1,7,-1
 527.369415451 231.460444752 l 2,8,9
 851.575257517 792.854778725 851.575257517 792.854778725 1218.2962554 786.733225478 c 0,10,11
 1264.10609822 786.027400327 1264.10609822 786.027400327 1303.57246019 776.526482825 c 0,12,13
 1362.61160746 763.024334092 1362.61160746 763.024334092 1408.46754161 732.162814515 c 0,14,15
 1454.32347576 701.301294939 1454.32347576 701.301294939 1487.9561599 652.525707349 c 0,16,17
 1536.02791804 582.316090634 1536.02791804 582.316090634 1536.7766566 457.90682146 c 0,18,19
 1536.83057573 449.227019624 1536.83057573 449.227019624 1536.49192975 440.719039139 c 0,20,21
 1536.15328377 432.211058655 1536.15328377 432.211058655 1535.41808478 423.817588601 c 0,22,23
 1534.6828858 415.424118548 1534.6828858 415.424118548 1533.55057016 407.145509114 c 0,24,25
 1532.41825453 398.86689968 1532.41825453 398.86689968 1530.88324584 390.651240558 c 0,26,27
 1516.8314931 309.108167158 1516.8314931 309.108167158 1464.94386902 239.924668387 c 0,28,29
 1298.44119242 15 1298.44119242 15 790.223632812 15 c 2,30,-1
 700.819335938 15 l 2,31,32
 450.418928689 15 450.418928689 15 369.884386985 146.976515058 c 2,33,-1
 358.105146048 166.279824372 l 1,34,-1
 344.902195722 147.920892752 l 2,35,36
 249.31123321 15 249.31123321 15 36.6337890625 15 c 2,37,-1
 -5.8857421875 15 l 2,38,39
 -37.0672651968 15 -37.0672651968 15 -51.0336325984 30.6370793819 c 0,40,41
 -65 46.2741587639 -65 46.2741587639 -65 83 c 2,42,-1
 -65 99 l 2,43,44
 -65 136.831283504 -65 136.831283504 -50.9570897605 152.915641752 c 0,45,46
 -36.9141795211 169 -36.9141795211 169 -5.8857421875 169 c 2,47,-1
 35.892578125 169 l 2,48,49
 149.493675091 169 149.493675091 169 213.150365134 211.576180901 c 0,50,51
 276.807055177 254.152361801 276.807055177 254.152361801 284.347245019 338.911073794 c 2,52,-1
 304.277562677 562.946289062 l 1,53,-1
 406.080100545 562.946289062 l 1,54,-1
 425.641097915 341.327648292 l 2,0,1
650.436535162 170.298828125 m 1,55,-1
 793.137440082 170.29883459 l 2,56,57
 1119.11243902 169.996175241 1119.11243902 169.996175241 1263.60616017 255.827351052 c 0,58,59
 1368.13439504 317.323888536 1368.13439504 317.323888536 1389.59173336 408.615643755 c 0,60,61
 1392.79183434 422.43327078 1392.79183434 422.43327078 1394.45861936 435.408480859 c 0,62,63
 1396.12540438 448.383690938 1396.12540438 448.383690938 1396.27576531 460.941495451 c 0,64,65
 1396.12556499 496.938440875 1396.12556499 496.938440875 1383.00300246 527.303063589 c 0,66,67
 1369.88043992 557.667686303 1369.88043992 557.667686303 1344.19261383 581.367331871 c 0,68,69
 1332.34793014 592.337617067 1332.34793014 592.337617067 1318.08608204 600.780650903 c 0,70,71
 1303.82423393 609.223684738 1303.82423393 609.223684738 1287.51276184 615.047119063 c 0,72,73
 1271.20128976 620.870553388 1271.20128976 620.870553388 1252.60232155 624.265996783 c 0,74,75
 1193.70499733 634.264696758 1193.70499733 634.264696758 1126.92329567 620.25333815 c 0,76,77
 1009.08569927 595.558177636 1009.08569927 595.558177636 893.793813902 488.558981801 c 0,78,79
 778.501928532 381.559785966 778.501928532 381.559785966 664.243110743 193.074617157 c 2,80,-1
 650.436535162 170.298828125 l 1,55,-1
EndSplineSet
EndChar

StartChar: uniFEBC
Encoding: 65212 65212 199
Width: 1713
VWidth: 2510
GlyphClass: 2
Flags: W
AnchorPoint: "Anchor-10" 718.544 1219.32 basechar 0
AnchorPoint: "Anchor-7" 730.715 -296.653 basechar 0
LayerCount: 2
Fore
SplineSet
1490.28054823 262.260651331 m 2,0,1
 1515.08321011 231.213725559 1515.08321011 231.213725559 1547.26613516 210.41443944 c 0,2,3
 1579.4490602 189.615153321 1579.4490602 189.615153321 1618.19435229 179.307576661 c 0,4,5
 1656.93964438 169 1656.93964438 169 1702.15722656 169 c 2,6,-1
 1717.5160922 169 l 1,7,8
 1728.11425781 158.102837439 1728.11425781 158.102837439 1728.11425781 99 c 2,9,-1
 1728.11427202 83.0206489822 l 2,10,11
 1728.08667069 62.9702859638 1728.08667069 62.9702859638 1726.06847006 47.071139 c 0,12,13
 1724.05026944 31.1719920362 1724.05026944 31.1719920362 1721.80791456 24.0571304725 c 0,14,15
 1719.56555968 16.9422689089 1719.56555968 16.9422689089 1717.57890252 15 c 2,16,-1
 1697.48144531 15 l 2,17,18
 1522.3830607 15 1522.3830607 15 1409.88645216 161.149440149 c 2,19,-1
 1400.51572845 173.323371811 l 1,20,-1
 1388.56916776 163.664450404 l 2,21,22
 1204.69471594 15 1204.69471594 15 790.223632812 15 c 2,23,-1
 700.819335938 15 l 2,24,25
 450.418928689 15 450.418928689 15 369.884386985 146.976515058 c 2,26,-1
 358.105146048 166.279824372 l 1,27,-1
 344.902195722 147.920892752 l 2,28,29
 249.31123321 15 249.31123321 15 36.6337890625 15 c 2,30,-1
 -5.8857421875 15 l 2,31,32
 -37.0672651968 15 -37.0672651968 15 -51.0336325984 30.6370793819 c 0,33,34
 -65 46.2741587639 -65 46.2741587639 -65 83 c 2,35,-1
 -65 99 l 2,36,37
 -65 136.831283504 -65 136.831283504 -50.9570897605 152.915641752 c 0,38,39
 -36.9141795211 169 -36.9141795211 169 -5.8857421875 169 c 2,40,-1
 35.892578125 169 l 2,41,42
 149.493675091 169 149.493675091 169 213.150365134 211.576180901 c 0,43,44
 276.807055177 254.152361801 276.807055177 254.152361801 284.347245019 338.911073794 c 2,45,-1
 304.277562677 562.946289062 l 1,46,-1
 406.080100545 562.946289062 l 1,47,-1
 425.635392957 341.393962855 l 2,48,49
 431.711202393 268.885141338 431.711202393 268.885141338 506.942988374 225.935302794 c 2,50,-1
 519.905092849 218.535235295 l 1,51,-1
 527.369415451 231.460444752 l 2,52,53
 851.575257517 792.854778725 851.575257517 792.854778725 1218.2962554 786.733225478 c 0,54,55
 1264.10609822 786.027400327 1264.10609822 786.027400327 1303.54240928 776.533717117 c 0,56,57
 1422.87076919 748.725547994 1422.87076919 748.725547994 1487.9561599 652.525707349 c 0,58,59
 1536.02791804 582.316090634 1536.02791804 582.316090634 1536.7766566 457.90682146 c 0,60,61
 1536.99136739 423.343071497 1536.99136739 423.343071497 1530.89010886 390.687972788 c 0,62,63
 1525.78575854 361.924212003 1525.78575854 361.924212003 1515.3624884 334.130898666 c 0,64,65
 1504.93921826 306.337585328 1504.93921826 306.337585328 1489.05466851 279.200539371 c 2,66,-1
 1483.85041136 270.309625398 l 1,67,-1
 1490.28054823 262.260651331 l 2,0,1
650.436535162 170.298828125 m 1,68,-1
 793.137440082 170.29883459 l 2,69,70
 1119.11243902 169.996175241 1119.11243902 169.996175241 1263.60616017 255.827351052 c 0,71,72
 1368.13439504 317.323888536 1368.13439504 317.323888536 1389.59173336 408.615643755 c 0,73,74
 1392.79183434 422.43327078 1392.79183434 422.43327078 1394.45861936 435.408480859 c 0,75,76
 1396.12540438 448.383690938 1396.12540438 448.383690938 1396.27576531 460.941495451 c 0,77,78
 1396.12556499 496.938440875 1396.12556499 496.938440875 1383.00300246 527.303063589 c 0,79,80
 1369.88043992 557.667686303 1369.88043992 557.667686303 1344.19261383 581.367331871 c 0,81,82
 1332.34793014 592.337617067 1332.34793014 592.337617067 1318.08608204 600.780650903 c 0,83,84
 1303.82423393 609.223684738 1303.82423393 609.223684738 1287.51276184 615.047119063 c 0,85,86
 1271.20128976 620.870553388 1271.20128976 620.870553388 1252.60232155 624.265996783 c 0,87,88
 1193.70499733 634.264696758 1193.70499733 634.264696758 1126.92329567 620.25333815 c 0,89,90
 1009.08569927 595.558177636 1009.08569927 595.558177636 893.793813902 488.558981801 c 0,91,92
 778.501928532 381.559785966 778.501928532 381.559785966 664.243110743 193.074617157 c 2,93,-1
 650.436535162 170.298828125 l 1,68,-1
EndSplineSet
EndChar

StartChar: uniFEC2
Encoding: 65218 65218 205
Width: 1511
VWidth: 2510
GlyphClass: 2
Flags: W
AnchorPoint: "Anchor-7" 610.286 -302 basechar 0
AnchorPoint: "Anchor-10" 409.92 1615.6 basechar 0
LayerCount: 2
Fore
SplineSet
447.199234448 170.298828125 m 1,0,-1
 589.913729975 170.298834662 l 2,1,2
 914.06844299 169.996195054 914.06844299 169.996195054 1060.38698215 255.829972945 c 0,3,4
 1165.2881234 317.594572128 1165.2881234 317.594572128 1186.35431471 408.556117961 c 0,5,6
 1187.99802789 415.399311036 1187.99802789 415.399311036 1189.23953167 422.077970933 c 128,-1,7
 1190.48103544 428.756630831 1190.48103544 428.756630831 1191.32634663 435.318032739 c 128,-1,8
 1192.17165781 441.879434647 1192.17165781 441.879434647 1192.60466247 448.315834305 c 128,-1,9
 1193.03766713 454.752233963 1193.03766713 454.752233963 1193.0517532 461.011763135 c 0,10,11
 1192.99483224 533.595658788 1192.99483224 533.595658788 1140.96467592 581.371472653 c 0,12,13
 1106.0126934 613.971052152 1106.0126934 613.971052152 1049.37797526 624.266059258 c 0,14,15
 1019.6425142 629.285628433 1019.6425142 629.285628433 988.390547744 628.265149791 c 128,-1,16
 957.138581284 627.244671148 957.138581284 627.244671148 923.696756636 620.252728794 c 0,17,18
 805.971020074 595.556680965 805.971020074 595.556680965 690.682678769 488.560661142 c 128,-1,19
 575.394337464 381.56464132 575.394337464 381.56464132 461.022890191 193.080243352 c 2,20,-1
 447.199234448 170.298828125 l 1,0,-1
523.297461835 507.259865652 m 1,21,-1
 532.513500699 518.563198419 l 1,22,23
 759.9205825 790.885399648 759.9205825 790.885399648 1015.07370584 786.733208827 c 0,24,25
 1061.0973433 786.027414424 1061.0973433 786.027414424 1100.2136168 776.559130956 c 0,26,27
 1159.35484863 762.098281654 1159.35484863 762.098281654 1205.3243277 731.158730488 c 128,-1,28
 1251.29380678 700.219179322 1251.29380678 700.219179322 1284.78593887 652.447918928 c 0,29,30
 1301.31575247 628.383244941 1301.31575247 628.383244941 1312.27562494 599.000336373 c 128,-1,31
 1323.23549741 569.617427805 1323.23549741 569.617427805 1328.62877127 534.276172092 c 128,-1,32
 1334.02204513 498.934916379 1334.02204513 498.934916379 1333.5545021 458.230278851 c 0,33,34
 1333.01874596 423.336084467 1333.01874596 423.336084467 1327.62502795 390.448573799 c 0,35,36
 1317.66714299 330.264661936 1317.66714299 330.264661936 1287.13482398 279.335844415 c 2,37,-1
 1281.77791932 270.400367883 l 1,38,-1
 1288.28054823 262.260651331 l 2,39,40
 1325.45762729 215.72395218 1325.45762729 215.72395218 1378.82228752 192.36197609 c 128,-1,41
 1432.18694776 169 1432.18694776 169 1500.15722656 169 c 2,42,-1
 1515.5160922 169 l 1,43,44
 1526.11425781 158.102837439 1526.11425781 158.102837439 1526.11425781 99 c 2,45,-1
 1526.11427202 83.0206489822 l 2,46,47
 1525.88693963 26.3353399393 1525.88693963 26.3353399393 1515.57890252 15 c 1,48,-1
 1495.48144531 15 l 2,49,50
 1320.3830607 15 1320.3830607 15 1207.88645216 161.149440149 c 2,51,-1
 1199.06244118 172.613112531 l 1,52,-1
 1187.28685043 164.209874063 l 2,53,54
 978.196697964 15 978.196697964 15 587 15 c 2,55,-1
 119.625976562 15 l 1,56,-1
 119.625976562 168.259978791 l 1,57,-1
 296.278387118 168.389045247 l 1,58,-1
 300.635329599 175.716856147 l 2,59,60
 334.527625135 232.719291626 334.527625135 232.719291626 357.700979037 264.388199244 c 2,61,-1
 360.595703125 268.344154437 l 1,62,-1
 360.595703125 1442.00585938 l 1,63,-1
 494.997070312 1442.00585938 l 1,64,-1
 494.997070312 514.314453125 l 1,65,-1
 511.996992696 514.278128664 l 1,66,-1
 523.297461835 507.259865652 l 1,21,-1
EndSplineSet
EndChar

StartChar: uniFEC3
Encoding: 65219 65219 206
Width: 1331
VWidth: 2510
GlyphClass: 2
Flags: W
AnchorPoint: "Anchor-10" 282.183 1621.58 basechar 0
AnchorPoint: "Anchor-7" 475.014 -296.653 basechar 0
LayerCount: 2
Fore
SplineSet
317.199234448 170.298828125 m 1,0,-1
 459.913729975 170.298834662 l 2,1,2
 540.672535758 170.223436057 540.672535758 170.223436057 610.030068594 175.396665311 c 128,-1,3
 679.38760143 180.569894564 679.38760143 180.569894564 738.293632277 191.13843506 c 128,-1,4
 797.199663125 201.706975556 797.199663125 201.706975556 845.222034913 217.874135128 c 128,-1,5
 893.244406701 234.041294701 893.244406701 234.041294701 930.386982143 255.829972945 c 0,6,7
 1035.2881234 317.594572128 1035.2881234 317.594572128 1056.35431471 408.556117961 c 0,8,9
 1062.99593373 436.206855227 1062.99593373 436.206855227 1063.0517532 461.011763135 c 0,10,11
 1062.99483224 533.595658788 1062.99483224 533.595658788 1010.96467592 581.371472653 c 0,12,13
 993.398419558 597.755452316 993.398419558 597.755452316 970.409873334 608.461908401 c 128,-1,14
 947.421327109 619.168364487 947.421327109 619.168364487 919.377975262 624.266059258 c 0,15,16
 860.715397047 634.264837144 860.715397047 634.264837144 793.696756636 620.252728794 c 0,17,18
 675.971020074 595.556680965 675.971020074 595.556680965 560.682678769 488.560661142 c 128,-1,19
 445.394337464 381.56464132 445.394337464 381.56464132 331.022890191 193.080243352 c 2,20,-1
 317.199234448 170.298828125 l 1,0,-1
170.663086895 175.763733893 m 2,21,22
 199.946153242 225.423748411 199.946153242 225.423748411 228.567400398 274.713825178 c 2,23,-1
 230.595703125 278.206866974 l 1,24,-1
 230.595703125 1442.00585938 l 1,25,-1
 364.997070312 1442.00585938 l 1,26,-1
 364.997070312 473.160121611 l 1,27,-1
 391.46831835 504.649543998 l 2,28,29
 400.344622867 515.184799884 400.344622867 515.184799884 405.775001947 522.452833791 c 0,30,31
 632.299596331 790.878290379 632.299596331 790.878290379 885.073705837 786.733208827 c 0,32,33
 908.115387566 786.379853662 908.115387566 786.379853662 929.42852989 783.826131561 c 128,-1,34
 950.741672215 781.272409459 950.741672215 781.272409459 970.213616798 776.559130956 c 0,35,36
 1087.95670181 747.769317894 1087.95670181 747.769317894 1154.78593887 652.447918928 c 0,37,38
 1164.68451283 638.037232823 1164.68451283 638.037232823 1172.58671951 621.710390916 c 128,-1,39
 1180.48892619 605.38354901 1180.48892619 605.38354901 1186.43599034 586.943371472 c 128,-1,40
 1192.38305448 568.503193934 1192.38305448 568.503193934 1196.27352229 548.141001848 c 128,-1,41
 1200.16399011 527.778809761 1200.16399011 527.778809761 1201.99976923 505.238590556 c 128,-1,42
 1203.83554836 482.698371351 1203.83554836 482.698371351 1203.5545021 458.230278851 c 0,43,44
 1203.0187235 423.334621493 1203.0187235 423.334621493 1197.63523873 390.509506723 c 0,45,46
 1190.7211107 349.764367658 1190.7211107 349.764367658 1174.30329135 312.216489212 c 128,-1,47
 1157.88547199 274.668610766 1157.88547199 274.668610766 1131.78949057 240.017471312 c 0,48,49
 962.513651959 15 962.513651959 15 457 15 c 2,50,-1
 -5.8857421875 15 l 2,51,52
 -37.0672651968 15 -37.0672651968 15 -51.0336325984 30.6370793819 c 128,-1,53
 -65 46.2741587639 -65 46.2741587639 -65 83 c 2,54,-1
 -65 99 l 2,55,56
 -65 136.974972681 -65 136.974972681 -50.96636361 153.045985985 c 128,-1,57
 -36.93272722 169.116999289 -36.93272722 169.116999289 -5.94232022196 169.000106703 c 2,58,-1
 166.291693665 168.35045795 l 1,59,-1
 170.663086895 175.763733893 l 2,21,22
EndSplineSet
EndChar

StartChar: uniFEC4
Encoding: 65220 65220 207
Width: 1381
VWidth: 2510
GlyphClass: 2
Flags: W
AnchorPoint: "Anchor-10" 280.418 1617.05 basechar 0
AnchorPoint: "Anchor-7" 560.531 -315.103 basechar 0
LayerCount: 2
Fore
SplineSet
317.199234448 170.298828125 m 1,0,-1
 459.913729975 170.298834662 l 2,1,2
 540.672535758 170.223436057 540.672535758 170.223436057 610.030068594 175.396665311 c 128,-1,3
 679.38760143 180.569894564 679.38760143 180.569894564 738.293632277 191.13843506 c 128,-1,4
 797.199663125 201.706975556 797.199663125 201.706975556 845.222034913 217.874135128 c 128,-1,5
 893.244406701 234.041294701 893.244406701 234.041294701 930.386982143 255.829972945 c 0,6,7
 1035.2881234 317.594572128 1035.2881234 317.594572128 1056.35431471 408.556117961 c 0,8,9
 1062.99593373 436.206855227 1062.99593373 436.206855227 1063.0517532 461.011763135 c 0,10,11
 1062.99483224 533.595658788 1062.99483224 533.595658788 1010.96467592 581.371472653 c 0,12,13
 993.398419558 597.755452316 993.398419558 597.755452316 970.409873334 608.461908401 c 128,-1,14
 947.421327109 619.168364487 947.421327109 619.168364487 919.377975262 624.266059258 c 0,15,16
 860.715397047 634.264837144 860.715397047 634.264837144 793.696756636 620.252728794 c 0,17,18
 675.971020074 595.556680965 675.971020074 595.556680965 560.682678769 488.560661142 c 128,-1,19
 445.394337464 381.56464132 445.394337464 381.56464132 331.022890191 193.080243352 c 2,20,-1
 317.199234448 170.298828125 l 1,0,-1
1057.28685043 164.209874063 m 2,21,22
 848.196697964 15 848.196697964 15 457 15 c 2,23,-1
 -5.8857421875 15 l 2,24,25
 -37.0672651968 15 -37.0672651968 15 -51.0336325984 30.6370793819 c 128,-1,26
 -65 46.2741587639 -65 46.2741587639 -65 83 c 2,27,-1
 -65 99 l 2,28,29
 -65 136.974972681 -65 136.974972681 -50.96636361 153.045985985 c 128,-1,30
 -36.93272722 169.116999289 -36.93272722 169.116999289 -5.94232022196 169.000106703 c 2,31,-1
 166.574888457 168.349389769 l 1,32,-1
 170.872609798 176.130777594 l 2,33,34
 191.903026765 214.208125461 191.903026765 214.208125461 206.34776282 238.974239435 c 128,-1,35
 220.792498875 263.74035341 220.792498875 263.74035341 224.954827091 269.334162351 c 2,36,-1
 230.595703125 272.606461119 l 1,37,-1
 230.595703125 1442.00585938 l 1,38,-1
 364.997070312 1442.00585938 l 1,39,-1
 364.997070312 469.194730293 l 1,40,-1
 392.006746891 505.327369701 l 2,41,42
 396.767721386 511.689585471 396.767721386 511.689585471 402.513500699 518.563198419 c 0,43,44
 629.9205825 790.885399648 629.9205825 790.885399648 885.073705837 786.733208827 c 0,45,46
 908.115387566 786.379853662 908.115387566 786.379853662 929.42852989 783.826131561 c 128,-1,47
 950.741672215 781.272409459 950.741672215 781.272409459 970.213616798 776.559130956 c 0,48,49
 1087.95670181 747.769317894 1087.95670181 747.769317894 1154.78593887 652.447918928 c 0,50,51
 1164.68451283 638.037232823 1164.68451283 638.037232823 1172.58671951 621.710390916 c 128,-1,52
 1180.48892619 605.38354901 1180.48892619 605.38354901 1186.43599034 586.943371472 c 128,-1,53
 1192.38305448 568.503193934 1192.38305448 568.503193934 1196.27352229 548.141001848 c 128,-1,54
 1200.16399011 527.778809761 1200.16399011 527.778809761 1201.99976923 505.238590556 c 128,-1,55
 1203.83554836 482.698371351 1203.83554836 482.698371351 1203.5545021 458.230278851 c 0,56,57
 1203.01874596 423.336084467 1203.01874596 423.336084467 1197.62502795 390.448573799 c 0,58,59
 1187.66714299 330.264661936 1187.66714299 330.264661936 1157.13482398 279.335844415 c 2,60,-1
 1151.77791932 270.400367883 l 1,61,-1
 1158.28054823 262.260651331 l 2,62,63
 1183.08321011 231.213725559 1183.08321011 231.213725559 1215.26613516 210.41443944 c 128,-1,64
 1247.4490602 189.615153321 1247.4490602 189.615153321 1286.19435229 179.307576661 c 128,-1,65
 1324.93964438 169 1324.93964438 169 1370.15722656 169 c 2,66,-1
 1385.5160922 169 l 1,67,68
 1396.11425781 158.102837439 1396.11425781 158.102837439 1396.11425781 99 c 2,69,-1
 1396.11427202 83.0206489822 l 2,70,71
 1395.88693963 26.3353399393 1395.88693963 26.3353399393 1385.57890252 15 c 1,72,-1
 1365.48144531 15 l 2,73,74
 1190.3830607 15 1190.3830607 15 1077.88645216 161.149440149 c 2,75,-1
 1069.06244118 172.613112531 l 1,76,-1
 1057.28685043 164.209874063 l 2,21,22
EndSplineSet
EndChar

